<svg xmlns="http://www.w3.org/2000/svg" viewBox="0 0 300.83153 48.16777"><defs><style>.cls-1{fill:#878787;}</style></defs><title>c1-signature</title><g id="Layer_2" data-name="Layer 2"><g id="Layer_1-2" data-name="Layer 1"><path class="cls-1" d="M11.17051,23.55642a6.72827,6.72827,0,0,1,2.46456,2.51674,7.1448,7.1448,0,0,1,.914,3.60242,7.44474,7.44474,0,0,1-.94833,3.827,6.36973,6.36973,0,0,1-2.53392,2.46524,7.36359,7.36359,0,0,1-3.51658.84464,7.13132,7.13132,0,0,1-3.43-.86181,6.56574,6.56574,0,0,1-2.49958-2.27571v2.86147H0V10.33474H1.62061V25.74561a6.39179,6.39179,0,0,1,2.53391-2.25855,7.67349,7.67349,0,0,1,3.56808-.84464A6.66988,6.66988,0,0,1,11.17051,23.55642ZM11.36,33.81293a5.6996,5.6996,0,0,0,1.53408-4.13735,5.94183,5.94183,0,0,0-.70661-2.86147,5.2498,5.2498,0,0,0-1.99966-2.06833,5.6523,5.6523,0,0,0-2.913-.7588,5.74286,5.74286,0,0,0-3.7068,1.25871,5.29791,5.29791,0,0,0-1.94747,3.22336v2.10336a4.66016,4.66016,0,0,0,.89614,2.37872,5.95634,5.95634,0,0,0,2.034,1.77511,5.62412,5.62412,0,0,0,2.72413.67228A5.42252,5.42252,0,0,0,11.36,33.81293Z"/><path class="cls-1" d="M29.64886,23.0565,20.96145,43.01812H19.27217L22.168,36.39835,15.928,23.0565h1.82731l5.24019,11.48021L28.06328,23.0565Z"/><path class="cls-1" d="M56.95334,36.27749a11.939,11.939,0,0,1-3.62027.53494A12.66027,12.66027,0,0,1,46.817,35.15749a11.67972,11.67972,0,0,1-4.39555-4.48208A12.57216,12.57216,0,0,1,40.853,24.46973,12.96778,12.96778,0,0,1,42.47363,18.023,12.09716,12.09716,0,0,1,53.195,11.783a12.655,12.655,0,0,1,6.68844,1.86164l-.72378,1.55125a11.14224,11.14224,0,0,0-5.92964-1.79262,10.15415,10.15415,0,0,0-5.30954,1.46507,10.70562,10.70562,0,0,0-3.87847,3.99932A11.06328,11.06328,0,0,0,42.611,24.40106a11.3828,11.3828,0,0,0,1.31022,5.42971,9.90718,9.90718,0,0,0,3.72327,3.91281,10.64324,10.64324,0,0,0,5.5856,1.44824,10.9993,10.9993,0,0,0,5.964-1.75794l.79314,1.48189A13.55136,13.55136,0,0,1,56.95334,36.27749Z"/><path class="cls-1" d="M66.57191,12.05869V34.91577H79.98312v1.62061H64.88264V12.05869Z"/><path class="cls-1" d="M96.44533,36.226a15.36055,15.36055,0,0,1-4.0165.58644,13.19085,13.19085,0,0,1-6.61908-1.62061,11.431,11.431,0,0,1-4.43057-4.41272,12.518,12.518,0,0,1-1.56842-6.24A12.85224,12.85224,0,0,1,81.5,17.97116a12.17778,12.17778,0,0,1,4.55074-4.55075A12.41417,12.41417,0,0,1,92.32514,11.783a12.97116,12.97116,0,0,1,6.72277,1.79263l-.62009,1.51691a12.15806,12.15806,0,0,0-2.82713-1.17219,11.39824,11.39824,0,0,0-3.10319-.44807A11.10347,11.10347,0,0,0,86.91259,14.903a10.37271,10.37271,0,0,0-3.94714,3.92962,11.07235,11.07235,0,0,0-1.43108,5.60277,11.08156,11.08156,0,0,0,1.36172,5.48191,9.83878,9.83878,0,0,0,3.827,3.84345,11.30311,11.30311,0,0,0,5.67144,1.39674,13.79856,13.79856,0,0,0,3.06816-.36189,10.08116,10.08116,0,0,0,2.68911-.98267V27.02081H92.63553V25.40089h7.20552v9.41188A11.75156,11.75156,0,0,1,96.44533,36.226Z"/><path class="cls-1" d="M120.87048,22.2977v5.48191h5.48191v1.44824h-5.48191v5.55058H119.3879V29.22785h-5.48122V27.77961h5.48122V22.2977Z"/><polygon class="cls-1" points="156.38 8.03 150.689 11.467 150.689 4.587 146.895 6.88 146.895 13.76 141.21 17.204 141.21 21.79 160.174 10.324 156.38 8.03"/><polygon class="cls-1" points="146.895 29.821 141.21 26.377 141.21 30.964 146.895 34.407 146.895 41.288 150.689 43.581 150.689 20.641 146.895 22.934 146.895 29.821"/><polygon class="cls-1" points="154.483 38.994 160.174 42.438 154.483 45.874 158.277 48.168 163.962 44.731 169.653 48.168 173.447 45.874 154.483 34.407 154.483 38.994"/><polygon class="cls-1" points="171.55 40.144 177.242 36.701 177.242 43.581 181.029 41.288 181.029 34.407 186.721 30.964 186.721 26.377 167.756 37.851 171.55 40.144"/><polygon class="cls-1" points="181.029 13.76 181.029 6.88 177.242 4.587 177.242 27.527 181.029 25.234 181.029 18.347 186.721 21.79 186.721 17.204 181.029 13.76"/><polygon class="cls-1" points="173.447 9.174 167.756 5.73 173.447 2.293 169.653 0 163.962 3.437 158.277 0 154.483 2.293 173.447 13.76 173.447 9.174"/><path class="cls-1" d="M217.69114,12.62991l-.53274,1.17593a17.07944,17.07944,0,0,0-2.66372-.83809,13.17511,13.17511,0,0,0-3.05353-.37682,7.602,7.602,0,0,0-2.46881.37682,5.93089,5.93089,0,0,0-1.87759,1.00052,4.28771,4.28771,0,0,0-1.17593,1.46179,4.06733,4.06733,0,0,0-.40931,1.80613,3.18682,3.18682,0,0,0,.57173,1.92957,5.15463,5.15463,0,0,0,1.52027,1.35784,12.63416,12.63416,0,0,0,2.144,1.02c.79912.29886,1.61772.60421,2.46232.90956a26.8285,26.8285,0,0,1,2.46881,1.0525,9.49005,9.49005,0,0,1,2.144,1.42931,6.513,6.513,0,0,1,1.52027,2.001,6.35546,6.35546,0,0,1,.57173,2.83913,7.11668,7.11668,0,0,1-.59122,2.96257,6.3036,6.3036,0,0,1-1.69568,2.25442,7.84011,7.84011,0,0,1-2.64422,1.42931,11.12794,11.12794,0,0,1-3.43035.50026,12.27694,12.27694,0,0,1-2.73518-.28587,13.05406,13.05406,0,0,1-2.19594-.69516,13.6784,13.6784,0,0,1-1.6632-.8251q-.69191-.4093-1.09147-.6237L203.58,33.173a12.52975,12.52975,0,0,0,1.37733.80562,15.32262,15.32262,0,0,0,1.71518.74714,13.8047,13.8047,0,0,0,1.91008.55223,9.52589,9.52589,0,0,0,2.001.2144,8.72486,8.72486,0,0,0,2.35836-.33784,7.22355,7.22355,0,0,0,2.21543-1.0395,5.5657,5.5657,0,0,0,1.64371-1.78664,5.0149,5.0149,0,0,0,.6432-2.59225,4.80281,4.80281,0,0,0-.57173-2.42983,5.41951,5.41951,0,0,0-1.52027-1.69568,10.64425,10.64425,0,0,0-2.144-1.21492c-.79911-.34433-1.61772-.67567-2.46881-.981-.84459-.31185-1.66969-.6302-2.46881-.96154a10.5633,10.5633,0,0,1-2.144-1.18243,5.58988,5.58988,0,0,1-1.52027-1.61122,4.267,4.267,0,0,1-.57173-2.2869,5.65969,5.65969,0,0,1,.51975-2.37785,5.90215,5.90215,0,0,1,1.4618-1.96206,6.96719,6.96719,0,0,1,2.2674-1.31886,8.42766,8.42766,0,0,1,2.93009-.48077,12.66193,12.66193,0,0,1,1.73466.12344c.61071.08446,1.20842.18841,1.80613.32484a16.58615,16.58615,0,0,1,1.6632.44829A10.6645,10.6645,0,0,1,217.69114,12.62991Z"/><path class="cls-1" d="M223.44086,16.74243h1.2474v6.289h4.35939v1.10447h-4.35939V36.64233h-1.2474V24.13586h-3.04053V23.03139h3.04053Z"/><path class="cls-1" d="M230.412,29.74916a6.96849,6.96849,0,0,1,.57172-2.81965,7.55,7.55,0,0,1,1.53976-2.30638,7.07937,7.07937,0,0,1,2.26741-1.55276,6.88478,6.88478,0,0,1,2.80664-.57172,6.72564,6.72564,0,0,1,2.03352.30535,6.62692,6.62692,0,0,1,1.75416.8381,6.77979,6.77979,0,0,1,1.37733,1.2344,5.45893,5.45893,0,0,1,.90956,1.48129c0-.59771.013-1.18893.03248-1.78664.026-.59771.05848-1.17593.11045-1.74766h1.072V36.64883H243.6721V33.108a5.75882,5.75882,0,0,1-2.21543,2.67671,6.617,6.617,0,0,1-3.85914,1.10446,6.95055,6.95055,0,0,1-2.83913-.57172,7.46692,7.46692,0,0,1-2.26741-1.53326,7.09723,7.09723,0,0,1-1.52026-2.26741A6.88761,6.88761,0,0,1,230.412,29.74916Zm1.21492-.039a5.92725,5.92725,0,0,0,1.72816,4.22946,5.87647,5.87647,0,0,0,1.91008,1.26689,6.179,6.179,0,0,0,4.71673,0,6.14382,6.14382,0,0,0,1.92957-1.26689,5.87812,5.87812,0,0,0,1.75415-4.22946,6.015,6.015,0,0,0-.46777-2.35836,5.75707,5.75707,0,0,0-1.28638-1.91008,6.11239,6.11239,0,0,0-4.28793-1.72817,6.12862,6.12862,0,0,0-2.35837.46128,5.77547,5.77547,0,0,0-3.177,3.177A6.12856,6.12856,0,0,0,231.62692,29.71017Z"/><path class="cls-1" d="M256.7438,23.99293a7.23247,7.23247,0,0,0-2.12447.38981,5.73654,5.73654,0,0,0-1.80613,1.02,4.8812,4.8812,0,0,0-1.2474,1.57224,4.36094,4.36094,0,0,0-.46127,2.02053v7.64681h-1.21491V22.817h1.03949c0,.09745.0065.31834.0195.67567s.01949.74064.01949,1.14345.0065.77962.0195,1.124.01949.55223.01949.62369a6.34477,6.34477,0,0,1,2.4818-2.80664,6.80511,6.80511,0,0,1,3.48232-1.0525Z"/><path class="cls-1" d="M268.67854,34.39442q.21439.2144.40931.44828c.12994.15593.25337.31835.37682.48077a8.02352,8.02352,0,0,1-2.07249,1.14345,7.29438,7.29438,0,0,1-5.29495-.14293,7.65127,7.65127,0,0,1-2.30639-1.53326,6.94274,6.94274,0,0,1-1.53975-2.26741,7.09283,7.09283,0,0,1-.55224-2.80665,7.23445,7.23445,0,0,1,.55224-2.82614,6.891,6.891,0,0,1,1.53975-2.28689,7.41742,7.41742,0,0,1,2.30639-1.53327,7.32886,7.32886,0,0,1,5.30794-.14293,8.03784,8.03784,0,0,1,2.092,1.14345,3.84556,3.84556,0,0,1-.38982.46128,4.8909,4.8909,0,0,0-.4288.50026,5.97149,5.97149,0,0,0-1.71516-.96153,5.78554,5.78554,0,0,0-2.04-.35733,6.08445,6.08445,0,0,0-2.37785.46128,5.96606,5.96606,0,0,0-1.89059,1.26688,5.87668,5.87668,0,0,0-1.26689,1.91008,6.02551,6.02551,0,0,0,1.26689,6.58782,5.97045,5.97045,0,0,0,4.26844,1.73467,6.08246,6.08246,0,0,0,2.04-.33784A5.63375,5.63375,0,0,0,268.67854,34.39442Z"/><path class="cls-1" d="M272.71959,17.98983a1.06316,1.06316,0,0,1,.31834-.78613,1.039,1.039,0,0,1,.75365-.32484.99825.99825,0,0,1,.71465.32484,1.06307,1.06307,0,0,1,.31834.78613,1.00047,1.00047,0,0,1-.31834.76663,1.02828,1.02828,0,0,1-.71465.30535,1.08372,1.08372,0,0,1-.75365-.30535A1.00047,1.00047,0,0,1,272.71959,17.98983Zm1.64371,18.6525h-1.21491V22.817h1.21491Z"/><path class="cls-1" d="M280.43787,16.74243h1.2474v6.289h4.3594v1.10447h-4.3594V36.64233h-1.2474V24.13586h-3.04053V23.03139h3.04053Z"/><path class="cls-1" d="M291.619,43.28862h-1.35784c.28585-.59771.53274-1.14994.75364-1.66319.2144-.51326.4223-1.033.62371-1.55276.20141-.52624.42229-1.07847.66267-1.66319s.52626-1.26689.85759-2.053q-1.647-3.32315-3.073-6.75025-1.43256-3.43033-3.10551-6.78922h1.31887c.64318,1.26039,1.21491,2.44932,1.71516,3.55378s.96154,2.17645,1.39683,3.19646q.6432,1.53976,1.2474,2.96907.6042,1.43256,1.24739,2.82614.6432-1.39358,1.2474-2.82614t1.24739-2.94958q.6432-1.52026,1.37734-3.19646c.48726-1.11746,1.05248-2.31288,1.69568-3.57327h1.35784Z"/></g></g></svg>