<svg id="Layer_1" data-name="Layer 1" xmlns="http://www.w3.org/2000/svg" viewBox="0 0 1179.21045 407"><defs><style>.cls-1{fill:#fcfaf7;}.cls-2{font-size:20px;}.cls-2,.cls-21{fill:#4b4a4a;font-family:WorkSans-SemiBold, Work Sans;font-weight:600;}.cls-3{letter-spacing:-0.02em;}.cls-4{letter-spacing:-0.01001em;}.cls-5{letter-spacing:-0.01599em;}.cls-6{letter-spacing:-0.00698em;}.cls-7{letter-spacing:0.00002em;}.cls-8{letter-spacing:-0.01797em;}.cls-9{letter-spacing:-0.00002em;}.cls-10{letter-spacing:0.003em;}.cls-11{letter-spacing:-0.01201em;}.cls-12{letter-spacing:-0.004em;}.cls-13{letter-spacing:-0.021em;}.cls-14{letter-spacing:-0.01196em;}.cls-15{letter-spacing:-0.00005em;}.cls-16{letter-spacing:0.00801em;}.cls-17{letter-spacing:-0.01006em;}.cls-18{letter-spacing:-0.01997em;}.cls-19{letter-spacing:-0.025em;}.cls-20{fill:#4380a3;}.cls-21{font-size:13px;}.cls-22{letter-spacing:0.061em;}.cls-23{letter-spacing:0.05901em;}.cls-24{letter-spacing:0.08em;}.cls-25{letter-spacing:0.05101em;}.cls-26{letter-spacing:0.07598em;}.cls-27,.cls-28,.cls-49{font-size:16px;}.cls-28,.cls-49{font-family:WorkSans-Regular, Work Sans;font-weight:400;}.cls-29{letter-spacing:-0.00598em;}.cls-30{letter-spacing:-0.01596em;}.cls-31{letter-spacing:-0.01602em;}.cls-32{letter-spacing:0.06802em;}.cls-33{letter-spacing:0.07595em;}.cls-34{letter-spacing:-0.01898em;}.cls-35{letter-spacing:-0.02499em;}.cls-36{letter-spacing:-0.064em;}.cls-37{letter-spacing:-0.01797em;}.cls-38{letter-spacing:0.069em;}.cls-39{letter-spacing:0.08004em;}.cls-40{letter-spacing:-0.01999em;}.cls-41{letter-spacing:-0.01401em;}.cls-42{letter-spacing:-0.02899em;}.cls-43{letter-spacing:-0.01297em;}.cls-44{letter-spacing:-0.02301em;}.cls-45{letter-spacing:-0.03em;}.cls-46{letter-spacing:0.00003em;}.cls-47{letter-spacing:-0.009em;}.cls-48{letter-spacing:-0.04001em;}.cls-49{letter-spacing:-0.01901em;}.cls-50{letter-spacing:-0.00897em;}.cls-51{letter-spacing:-0.017em;}.cls-52{letter-spacing:-0.02197em;}.cls-53{letter-spacing:-0.00003em;}.cls-54{letter-spacing:-0.02298em;}.cls-55{letter-spacing:-0.07001em;}.cls-56{letter-spacing:-0.01398em;}.cls-57{letter-spacing:-0.00699em;}.cls-58{letter-spacing:-0.01801em;}.cls-59{letter-spacing:-0.00998em;}.cls-60{fill:#0b4a60;}.cls-61{fill:#2a6984;}.cls-62{fill:#c7dde5;}</style></defs><title>chart-roommate</title><rect class="cls-1" x="0.21045" width="1179" height="407"/><text class="cls-2" transform="translate(0.12891 53.32031)">Wh<tspan class="cls-3" x="32.05957" y="0">a</tspan><tspan x="43.13965" y="0">t a</tspan><tspan class="cls-4" x="69.31934" y="0">r</tspan><tspan x="77.55908" y="0">e</tspan><tspan class="cls-5" x="89.19873" y="0"> </tspan><tspan class="cls-6" x="94.99902" y="0">y</tspan><tspan class="cls-7" x="105.99902" y="0">ou</tspan><tspan class="cls-8" x="130.4585" y="0">r</tspan><tspan class="cls-9" x="138.53906" y="0" xml:space="preserve"> bi</tspan><tspan class="cls-10" x="162.87891" y="0">g</tspan><tspan class="cls-9" x="174.13867" y="0">gest</tspan><tspan class="cls-11" x="216.17773" y="0"> </tspan><tspan x="222.05762" y="0">friction poi</tspan><tspan class="cls-12" x="330.75635" y="0">n</tspan><tspan x="343.05615" y="0">ts</tspan><tspan class="cls-13" x="362.25537" y="0"> </tspan><tspan class="cls-9" x="367.95557" y="0">when it comes</tspan><tspan class="cls-14" x="513.21289" y="0"> </tspan><tspan class="cls-15" x="519.09375" y="0">to living</tspan><tspan class="cls-13" x="598.03223" y="0"> </tspan><tspan class="cls-15" x="603.73242" y="0">wi</tspan><tspan class="cls-16" x="627.15137" y="0">t</tspan><tspan x="635.8916" y="0">h </tspan><tspan class="cls-17" x="654.3916" y="0">r</tspan><tspan x="662.63086" y="0">oomm</tspan><tspan class="cls-18" x="724.59082" y="0">a</tspan><tspan class="cls-15" x="735.6709" y="0">te</tspan><tspan class="cls-19" x="755.88965" y="0">s</tspan><tspan x="766.00977" y="0">?</tspan></text><rect class="cls-20" x="0.12891" width="920.08154" height="1"/><text class="cls-21" transform="translate(0 193.41309)"><tspan class="cls-22">2<tspan class="cls-23" x="8.47559" y="0">4</tspan><tspan class="cls-24" x="17.47168" y="0">1</tspan><tspan class="cls-25" x="24.07568" y="0"> </tspan><tspan class="cls-24" x="28.7168" y="0">AN</tspan><tspan class="cls-26" x="49.12646" y="0">S</tspan><tspan class="cls-24" x="58.47314" y="0">WERED</tspan></tspan><tspan class="cls-27"><tspan x="0" y="24">Cleanliness</tspan></tspan><tspan class="cls-28"><tspan class="cls-29" x="0" y="48">M</tspan><tspan x="13.56787" y="48">aking su</tspan><tspan class="cls-30" x="78.43018" y="48">r</tspan><tspan x="84.70264" y="48">e sha</tspan><tspan class="cls-31" x="126.84619" y="48">r</tspan><tspan x="133.11768" y="48">ed spaces a</tspan><tspan class="cls-31" x="226.78076" y="48">r</tspan><tspan x="233.05225" y="48">e clean</tspan></tspan></text><text class="cls-21" transform="translate(379 193.41309)"><tspan class="cls-24">1<tspan class="cls-32" x="6.604" y="0">8</tspan><tspan x="15.58691" y="0">3</tspan><tspan class="cls-25" x="24.28369" y="0"> </tspan><tspan x="28.9248" y="0">AN</tspan><tspan class="cls-33" x="49.33447" y="0">S</tspan><tspan x="58.68066" y="0">WERED</tspan></tspan><tspan class="cls-27"><tspan x="0" y="24">Cho</tspan><tspan class="cls-4" x="30.49561" y="24">r</tspan><tspan x="37.0874" y="24">es</tspan></tspan><tspan class="cls-28"><tspan class="cls-34" x="0" y="48">E</tspan><tspan x="9.90381" y="48">qual</tspan><tspan class="cls-35" x="43.85498" y="48">ly</tspan><tspan x="56.51123" y="48" xml:space="preserve"> spli</tspan><tspan class="cls-36" x="89.63037" y="48">t</tspan><tspan x="95.31006" y="48">ting house</tspan><tspan class="cls-37" x="177.67725" y="48">k</tspan><tspan x="186.46143" y="48">eeping </tspan><tspan x="0" y="72">and ca</tspan><tspan class="cls-5" x="52.57568" y="72">r</tspan><tspan x="58.84766" y="72">e duties</tspan></tspan></text><text class="cls-21" transform="translate(665 193.41309)"><tspan class="cls-24">1<tspan class="cls-38" x="6.604" y="0">6</tspan><tspan class="cls-39" x="15.52197" y="0">1</tspan><tspan class="cls-25" x="22.12646" y="0"> </tspan><tspan x="26.76758" y="0">AN</tspan><tspan class="cls-33" x="47.17725" y="0">S</tspan><tspan x="56.52344" y="0">WERED</tspan></tspan><tspan class="cls-27"><tspan class="cls-29" x="0" y="24">M</tspan><tspan x="14.14404" y="24">on</tspan><tspan class="cls-40" x="33.71143" y="24">e</tspan><tspan x="42.70361" y="24">y</tspan></tspan><tspan class="cls-28"><tspan class="cls-29" x="0" y="48">M</tspan><tspan x="13.56787" y="48">aking su</tspan><tspan class="cls-30" x="78.43018" y="48">r</tspan><tspan x="84.70264" y="48">e </tspan><tspan class="cls-41" x="99.45459" y="48">e</tspan><tspan x="108.52637" y="48">veryone p</tspan><tspan class="cls-42" x="185.69238" y="48">a</tspan><tspan class="cls-43" x="194.28418" y="48">y</tspan><tspan x="202.63623" y="48">s </tspan><tspan x="0" y="72">thei</tspan><tspan class="cls-44" x="30.15918" y="72">r</tspan><tspan class="cls-34" x="36.31885" y="72"> </tspan><tspan class="cls-45" x="41.47119" y="72">f</tspan><tspan x="47.2793" y="72">ai</tspan><tspan class="cls-44" x="60.59082" y="72">r</tspan><tspan class="cls-46" x="66.75049" y="72" xml:space="preserve"> sha</tspan><tspan class="cls-31" x="99.59814" y="72">r</tspan><tspan x="105.86963" y="72">e </tspan><tspan class="cls-47" x="120.62158" y="72">o</tspan><tspan class="cls-48" x="130.20508" y="72">f</tspan><tspan x="135.85303" y="72" xml:space="preserve"> bills and </tspan></tspan><tspan class="cls-49"><tspan x="0" y="96">e</tspan><tspan class="cls-46" x="8.9917" y="96">xpenses</tspan></tspan></text><text class="cls-21" transform="translate(920 201.41309)"><tspan class="cls-24">140<tspan class="cls-25" x="25.18115" y="0"> </tspan><tspan x="29.82227" y="0">AN</tspan><tspan class="cls-26" x="50.23193" y="0">S</tspan><tspan x="59.57861" y="0">WERED</tspan></tspan><tspan class="cls-27"><tspan x="0" y="24">Li</tspan><tspan class="cls-50" x="14.12744" y="24">f</tspan><tspan x="20.49561" y="24">estyle</tspan></tspan><tspan class="cls-28"><tspan class="cls-51" x="0" y="48">R</tspan><tspan x="10.36816" y="48">oomm</tspan><tspan class="cls-40" x="60.31934" y="48">a</tspan><tspan x="69.05518" y="48">tes</tspan><tspan class="cls-52" x="93.48682" y="48"> </tspan><tspan class="cls-53" x="98.59131" y="48">who h</tspan><tspan class="cls-51" x="147.27783" y="48">a</tspan><tspan class="cls-46" x="156.06201" y="48">ve </tspan><tspan class="cls-54" x="179.1333" y="48">a</tspan><tspan x="187.82129" y="48"> </tspan><tspan x="0" y="72">di</tspan><tspan class="cls-55" x="14.33545" y="72">f</tspan><tspan class="cls-56" x="19.50342" y="72">f</tspan><tspan x="25.56787" y="72">e</tspan><tspan class="cls-5" x="34.86377" y="72">r</tspan><tspan x="41.13574" y="72">e</tspan><tspan class="cls-57" x="50.43164" y="72">n</tspan><tspan x="60.22363" y="72">t schedule and </tspan><tspan x="0" y="96">who m</tspan><tspan class="cls-42" x="54.03174" y="96">a</tspan><tspan class="cls-35" x="62.62354" y="96">y</tspan><tspan x="70.7832" y="96" xml:space="preserve"> ma</tspan><tspan class="cls-58" x="100.54297" y="96">k</tspan><tspan x="109.32666" y="96">e noise o</tspan><tspan class="cls-44" x="180.87744" y="96">r</tspan><tspan x="187.03711" y="96"> </tspan><tspan x="0" y="120">a</tspan><tspan class="cls-5" x="9.05615" y="120">r</tspan><tspan x="15.32813" y="120">e mo</tspan><tspan class="cls-5" x="55.05518" y="120">r</tspan><tspan x="61.32715" y="120">e active</tspan><tspan class="cls-52" x="122.7334" y="120"> </tspan><tspan class="cls-53" x="127.8374" y="120">when I</tspan><tspan class="cls-59" x="180.82764" y="120">’</tspan><tspan x="184.74756" y="120">m </tspan><tspan x="0" y="144">trying</tspan><tspan class="cls-40" x="44.73486" y="144"> </tspan><tspan x="49.87109" y="144">to h</tspan><tspan class="cls-51" x="81.6626" y="144">a</tspan><tspan x="90.44678" y="144">ve d</tspan><tspan class="cls-5" x="123.59814" y="144">o</tspan><tspan x="133.06982" y="144">w</tspan><tspan class="cls-57" x="146.76563" y="144">n</tspan><tspan x="156.55762" y="144">time</tspan></tspan></text><rect class="cls-60" x="166.88416" y="-56.88434" width="45.00013" height="378.76819" transform="translate(322.09443 -56.88447) rotate(90)"/><rect class="cls-61" x="499.46111" y="-10.6931" width="45.00013" height="286.3857" transform="translate(654.67137 -389.46142) rotate(90)"/><rect class="cls-20" x="770.14179" y="5.01192" width="45.00013" height="254.97566" transform="translate(925.35206 -660.1421) rotate(90)"/><rect class="cls-62" x="1007.56477" y="22.5646" width="45.00013" height="219.87031" transform="translate(1162.77504 -897.56509) rotate(90)"/></svg>