<svg id="Layer_1" data-name="Layer 1" xmlns="http://www.w3.org/2000/svg" viewBox="0 0 1209.50586 625"><defs><style>.cls-1{fill:#fcfaf7;}.cls-2{font-size:20px;}.cls-2,.cls-25,.cls-26{fill:#4b4a4a;}.cls-2,.cls-26{font-family:WorkSans-SemiBold, Work Sans;font-weight:600;}.cls-3{letter-spacing:-0.00999em;}.cls-4{letter-spacing:-0.002em;}.cls-5{letter-spacing:-0.02em;}.cls-6{letter-spacing:-0.02297em;}.cls-7{letter-spacing:-0.00002em;}.cls-8{letter-spacing:-0.01001em;}.cls-9{letter-spacing:-0.01296em;}.cls-10{letter-spacing:-0.00698em;}.cls-11{letter-spacing:-0.01199em;}.cls-12{letter-spacing:0.00798em;}.cls-13{letter-spacing:-0.00894em;}.cls-14{letter-spacing:-0.01997em;}.cls-15{letter-spacing:-0.00005em;}.cls-16{letter-spacing:-0.00195em;}.cls-17{letter-spacing:-0.01797em;}.cls-18{letter-spacing:0.00005em;}.cls-19{letter-spacing:-0.01006em;}.cls-20{letter-spacing:-0.00601em;}.cls-21{letter-spacing:-0.02495em;}.cls-22{letter-spacing:0.00298em;}.cls-23{fill:#e6e6e5;}.cls-24{fill:#4380a3;}.cls-25{font-size:16px;font-family:WorkSans-Regular, Work Sans;}.cls-26{font-size:13px;letter-spacing:0.08em;}.cls-27{letter-spacing:-0.03998em;}.cls-28{letter-spacing:-0.00003em;}.cls-29{letter-spacing:-0.01398em;}.cls-30,.cls-31,.cls-32,.cls-33,.cls-34{fill:none;stroke-linecap:round;stroke-linejoin:round;stroke-width:2px;}.cls-30{stroke:#4380a3;}.cls-31{stroke:#7d0092;}.cls-32{stroke:#47c5a5;}.cls-33{stroke:#b79a73;}.cls-34{stroke:#c1666c;}.cls-35{letter-spacing:-0.02002em;}.cls-36{letter-spacing:-0.03003em;}.cls-37{letter-spacing:-0.01599em;}.cls-38{letter-spacing:-0.01099em;}.cls-39{letter-spacing:0.00006em;}.cls-40{letter-spacing:-0.01593em;}.cls-41{letter-spacing:-0.00696em;}.cls-42{letter-spacing:-0.00897em;}.cls-43{letter-spacing:-0.04004em;}.cls-44{letter-spacing:-0.01996em;}.cls-45{letter-spacing:-0.01501em;}.cls-46{letter-spacing:-0.02496em;}.cls-47{letter-spacing:-0.02197em;}.cls-48{letter-spacing:-0.02203em;}.cls-49{letter-spacing:-0.00006em;}.cls-50{letter-spacing:-0.04199em;}.cls-51{letter-spacing:-0.02997em;}.cls-52{letter-spacing:-0.08002em;}.cls-53{letter-spacing:-0.02698em;}.cls-54{letter-spacing:-0.01605em;}.cls-55{letter-spacing:-0.00702em;}.cls-56{letter-spacing:-0.02399em;}.cls-57{letter-spacing:-0.01898em;}.cls-58{letter-spacing:-0.02301em;}.cls-59{letter-spacing:-0.02502em;}.cls-60{letter-spacing:-0.01801em;}.cls-61{letter-spacing:-0.01495em;}</style></defs><title>chart-shared-living</title><rect class="cls-1" x="0.50586" width="1209" height="625"/><text class="cls-2" transform="translate(0.42432 53.32031)">Sha<tspan class="cls-3" x="36.71924" y="0">r</tspan><tspan x="44.95947" y="0">ed housing ste</tspan><tspan class="cls-4" x="188.93701" y="0">a</tspan><tspan x="200.37695" y="0">di</tspan><tspan class="cls-5" x="218.59668" y="0">l</tspan><tspan class="cls-6" x="224.57666" y="0">y</tspan><tspan class="cls-7" x="235.25684" y="0" xml:space="preserve"> g</tspan><tspan class="cls-8" x="252.57666" y="0">r</tspan><tspan class="cls-9" x="260.81641" y="0">o</tspan><tspan class="cls-10" x="272.63672" y="0">w</tspan><tspan x="290.27686" y="0">s </tspan><tspan class="cls-5" x="307.0166" y="0">a</tspan><tspan x="318.09668" y="0">t</tspan><tspan class="cls-11" x="326.67627" y="0"> </tspan><tspan class="cls-12" x="332.55664" y="0">t</tspan><tspan x="341.2959" y="0">he same </tspan><tspan class="cls-13" x="430.19434" y="0">r</tspan><tspan class="cls-14" x="438.45508" y="0">a</tspan><tspan class="cls-15" x="449.53516" y="0">te among </tspan><tspan class="cls-16" x="548.0332" y="0">a</tspan><tspan x="559.47363" y="0">du</tspan><tspan class="cls-17" x="584.43262" y="0">l</tspan><tspan class="cls-15" x="590.45313" y="0">ts, </tspan><tspan class="cls-8" x="621.39258" y="0">r</tspan><tspan class="cls-18" x="629.63184" y="0">ega</tspan><tspan class="cls-19" x="663.95215" y="0">r</tspan><tspan x="672.19141" y="0">dless </tspan><tspan class="cls-20" x="730.15039" y="0">o</tspan><tspan class="cls-21" x="742.11035" y="0">f</tspan><tspan x="749.75098" y="0"> </tspan><tspan class="cls-22" x="755.87109" y="0">a</tspan><tspan x="767.41016" y="0">ge</tspan></text><rect class="cls-23" x="54.50586" y="227" width="958" height="1"/><rect class="cls-23" x="54.50586" y="286.6" width="958" height="1"/><rect class="cls-24" x="2.50586" width="972" height="1"/><rect class="cls-23" x="54.50586" y="346.2" width="958" height="1"/><rect class="cls-23" x="54.50586" y="405.8" width="958" height="1"/><rect class="cls-23" x="54.50586" y="465.4" width="958" height="1"/><rect class="cls-23" x="54.50586" y="525" width="958" height="1"/><text class="cls-25" transform="translate(0.00049 291.32031)">40%</text><text class="cls-25" transform="translate(0.46484 232.32031)">50%</text><text class="cls-26" transform="translate(71.74585 548.32068)">2006</text><text class="cls-26" transform="translate(248.90656 548.32068)">2008</text><text class="cls-26" transform="translate(427.37439 548.32068)">2010</text><text class="cls-26" transform="translate(604.86633 548.32068)">2012</text><text class="cls-26" transform="translate(781.79346 548.32068)">2014</text><text class="cls-26" transform="translate(959.0979 548.32068)">2016</text><text class="cls-25" transform="translate(0.44873 351.32031)">30%</text><text class="cls-25" transform="translate(0.44873 411.32031)">20%</text><text class="cls-25" transform="translate(3.23291 470.32031)">10%</text><text class="cls-25" transform="translate(23.47217 529.32031)">0</text><text class="cls-25" transform="translate(1094.42432 203.12866)">Age 23<tspan class="cls-27" x="52.75098" y="0">-</tspan><tspan class="cls-28" x="60.27148" y="0">29</tspan></text><text class="cls-25" transform="translate(1094.42432 351.12843)">Age 50-59</text><text class="cls-25" transform="translate(1094.42432 374.12842)">Age 60-69</text><text class="cls-25" transform="translate(1094.42432 397.12842)">Age 30<tspan class="cls-29" x="53.375" y="0">-</tspan><tspan class="cls-28" x="61.31152" y="0">39</tspan></text><text class="cls-25" transform="translate(1094.42432 420.12842)">Age 40-49</text><polyline class="cls-30" points="83.046 439 163.797 430 325.299 426 488.636 416 646.468 414 810.674 407.945 903.035 407.945 974.059 404"/><polyline class="cls-31" points="83.046 421.5 164.715 404.5 258.312 404.5 337.228 399.5 495.059 386.5 746.489 376.5 818.063 375.5 974.059 370.5"/><polyline class="cls-32" points="83.046 405.8 160.127 402 259.23 402 411.556 397 491.204 388.009 651.973 385 745.571 376 818.981 374 974.059 367"/><line class="cls-33" x1="1050.00586" y1="198.69165" x2="1076.00586" y2="198.69165"/><line class="cls-34" x1="1050.00586" y1="346.69189" x2="1076.00586" y2="346.69189"/><line class="cls-32" x1="1050.00586" y1="369.69189" x2="1076.00586" y2="369.69189"/><line class="cls-31" x1="1050.00586" y1="392.69189" x2="1076.00586" y2="392.69189"/><line class="cls-30" x1="1050.00586" y1="415.69189" x2="1076.00586" y2="415.69189"/><polyline class="cls-34" points="83.046 398 161.962 393 251.889 393 328.969 390 486.801 373 571.222 373 673.996 368 807.969 360 974.059 357"/><path class="cls-33" d="M82.54023,294.5l79.83333-28,84.42146-2,86.2567-7,157.83142-19,80.40823-9.68072L650.54981,223.5s84.42145-8,86.2567-9,82.58621-7,82.58621-7l154.16092-8" transform="translate(0.50586)"/><text class="cls-25" transform="translate(0.56641 89.85254)"><tspan class="cls-35">T</tspan><tspan x="9.34375" y="0">his cha</tspan><tspan class="cls-36" x="65.37695" y="0">r</tspan><tspan x="71.4248" y="0">t sh</tspan><tspan class="cls-37" x="101.9209" y="0">o</tspan><tspan class="cls-38" x="111.39258" y="0">w</tspan><tspan x="124.91309" y="0">s</tspan><tspan class="cls-35" x="133.34473" y="0"> </tspan><tspan class="cls-39" x="138.48047" y="0">the pe</tspan><tspan class="cls-40" x="189.2168" y="0">r</tspan><tspan x="195.49023" y="0">ce</tspan><tspan class="cls-41" x="213.80859" y="0">n</tspan><tspan x="223.60059" y="0">t </tspan><tspan class="cls-42" x="235.76074" y="0">o</tspan><tspan class="cls-43" x="245.34473" y="0">f</tspan><tspan class="cls-39" x="250.99219" y="0" xml:space="preserve"> adu</tspan><tspan class="cls-44" x="285.48828" y="0">l</tspan><tspan x="290.06543" y="0">ts </tspan><tspan class="cls-45" x="310.65723" y="0">b</tspan><tspan class="cls-46" x="320.49707" y="0">y</tspan><tspan x="328.65723" y="0" xml:space="preserve"> age in double-up households,</tspan><tspan class="cls-47" x="568.46094" y="0"> </tspan><tspan x="573.56543" y="0">which is one in</tspan><tspan class="cls-48" x="692.49219" y="0"> </tspan><tspan class="cls-39" x="697.5957" y="0">which </tspan><tspan class="cls-44" x="749.83594" y="0">a</tspan><tspan x="758.57227" y="0">t least </tspan><tspan x="0" y="24">t</tspan><tspan class="cls-37" x="6.7041" y="24">w</tspan><tspan x="20.14453" y="24">o</tspan><tspan class="cls-47" x="29.87207" y="24"> </tspan><tspan class="cls-37" x="34.97656" y="24">w</tspan><tspan x="48.41602" y="24">orking</tspan><tspan class="cls-42" x="96.68848" y="24">-</tspan><tspan class="cls-49" x="104.70508" y="24">age </tspan><tspan class="cls-50" x="137.29688" y="24">(</tspan><tspan class="cls-49" x="142.22461" y="24">ages 23</tspan><tspan class="cls-35" x="201.9043" y="24"> </tspan><tspan x="207.04004" y="24">to 65), un-pa</tspan><tspan class="cls-51" x="310.54297" y="24">r</tspan><tspan class="cls-49" x="316.5918" y="24">tne</tspan><tspan class="cls-40" x="342.49414" y="24">r</tspan><tspan class="cls-49" x="348.76758" y="24">ed adu</tspan><tspan class="cls-35" x="402.63867" y="24">l</tspan><tspan x="407.21484" y="24">ts live</tspan><tspan class="cls-35" x="454.5752" y="24"> </tspan><tspan class="cls-39" x="459.71094" y="24">tog</tspan><tspan class="cls-45" x="484.92773" y="24">e</tspan><tspan x="493.9834" y="24">the</tspan><tspan class="cls-52" x="519.88672" y="24">r</tspan><tspan x="525.13477" y="24">.</tspan><tspan class="cls-53" x="529.39063" y="24"> </tspan><tspan class="cls-44" x="534.41504" y="24">T</tspan><tspan class="cls-49" x="543.75977" y="24">he sha</tspan><tspan class="cls-54" x="595.80664" y="24">r</tspan><tspan class="cls-39" x="602.07813" y="24">e </tspan><tspan class="cls-42" x="616.83008" y="24">o</tspan><tspan class="cls-27" x="626.41406" y="24">f</tspan><tspan class="cls-44" x="632.0625" y="24"> </tspan><tspan class="cls-49" x="637.19922" y="24">t</tspan><tspan class="cls-37" x="643.90234" y="24">w</tspan><tspan class="cls-39" x="657.3418" y="24">e</tspan><tspan class="cls-55" x="666.63867" y="24">n</tspan><tspan x="676.42969" y="24">t</tspan><tspan class="cls-56" x="683.13379" y="24">y</tspan><tspan x="691.30957" y="24">-som</tspan><tspan class="cls-45" x="732.87695" y="24">e</tspan><tspan x="741.93262" y="24">things </tspan><tspan x="0" y="48">living in doubled-up households has climbed</tspan><tspan class="cls-57" x="354.63574" y="48"> </tspan><tspan class="cls-36" x="359.78809" y="48">f</tspan><tspan x="365.5957" y="48">aste</tspan><tspan class="cls-58" x="399.08301" y="48">r</tspan><tspan class="cls-44" x="405.24219" y="48"> </tspan><tspan x="410.37891" y="48">than a</tspan><tspan class="cls-29" x="460.45801" y="48">n</tspan><tspan class="cls-59" x="470.13867" y="48">y</tspan><tspan x="478.29785" y="48"> </tspan><tspan class="cls-42" x="483.75391" y="48">o</tspan><tspan x="493.33789" y="48">the</tspan><tspan class="cls-58" x="519.24219" y="48">r</tspan><tspan x="525.40234" y="48" xml:space="preserve"> age b</tspan><tspan class="cls-29" x="573.53027" y="48">r</tspan><tspan x="579.83496" y="48">ac</tspan><tspan class="cls-60" x="597.91504" y="48">k</tspan><tspan class="cls-61" x="606.69922" y="48">e</tspan><tspan class="cls-49" x="615.75586" y="48">t.</tspan></text></svg>