<?xml version="1.0" encoding="utf-8"?>
<!-- Generator: Adobe Illustrator 23.0.1, SVG Export Plug-In . SVG Version: 6.00 Build 0)  -->
<svg version="1.1" id="Layer_1" xmlns="http://www.w3.org/2000/svg" xmlns:xlink="http://www.w3.org/1999/xlink" x="0px" y="0px"
	 viewBox="0 0 846.4 874.7" style="enable-background:new 0 0 846.4 874.7;" xml:space="preserve">
<style type="text/css">
	.st0{fill:#E6E6E5;}
	.st1{fill:#4380A3;}
	.st2{fill:#4B4A4A;}
	.st3{fill:#FCFAF7;}
	.st4{fill:#0B4A60;}
	.st5{fill:#80AABC;}
	.st6{font-family:'WorkSans-Bold';}
	.st7{font-size:12.9483px;}
</style>
<title>chart-shared-living-mobile</title>
<rect x="7" y="332.5" class="st0" width="839.4" height="1"/>
<rect x="294.1" y="421.5" class="st1" width="515.9" height="1"/>
<rect x="83" y="421.5" class="st1" width="134" height="1"/>
<g>
	<g>
		<path class="st2" d="M47.6,361.8h-2.1l-2.5-8.6h2l1.7,7.2l1.7-7.2h1.7l1.7,7.2l1.7-7.2h1.8l-2.5,8.6h-2l-1.2-4.7l-0.4-2l0,0
			l-0.4,2L47.6,361.8z"/>
		<path class="st2" d="M64.4,360.3v1.4h-6.6v-8.6h6.4v1.4h-4.6v2.1h3.7v1.4h-3.7v2.2h4.8V360.3z"/>
		<path class="st2" d="M72.2,353.5c0.6,0.3,1.1,0.7,1.5,1.3l-1.2,1.2c-0.2-0.5-0.5-0.8-0.9-1s-0.8-0.3-1.4-0.3
			c-0.5,0-0.9,0.1-1.2,0.3c-0.3,0.2-0.4,0.5-0.4,0.8s0.1,0.5,0.4,0.7s0.8,0.3,1.5,0.5c0.8,0.1,1.4,0.3,1.9,0.5s0.8,0.5,1,0.8
			s0.3,0.7,0.3,1.2s-0.1,1-0.4,1.4s-0.7,0.7-1.2,0.9s-1.1,0.3-1.8,0.3c-0.9,0-1.7-0.1-2.3-0.4c-0.6-0.3-1.1-0.7-1.5-1.2l1.1-1.3
			c0.3,0.5,0.7,0.9,1.1,1.1s0.9,0.3,1.5,0.3s1-0.1,1.3-0.3s0.4-0.4,0.4-0.7c0-0.2-0.1-0.4-0.4-0.6s-0.8-0.3-1.5-0.4
			c-0.8-0.2-1.4-0.4-1.9-0.6s-0.8-0.5-1-0.8s-0.3-0.7-0.3-1.2s0.1-1,0.4-1.4s0.7-0.7,1.2-1c0.5-0.2,1.2-0.4,1.9-0.4
			C71,353.1,71.6,353.2,72.2,353.5z"/>
		<path class="st2" d="M83,354.6h-2.9v7.1h-1.8v-7.1h-2.9v-1.4H83V354.6z"/>
		<path class="st2" d="M48.7,371.5c0.6,0.3,1.1,0.7,1.5,1.3L49,374c-0.2-0.5-0.5-0.8-0.9-1s-0.8-0.3-1.4-0.3c-0.5,0-0.9,0.1-1.2,0.3
			c-0.3,0.2-0.4,0.5-0.4,0.8s0.1,0.5,0.4,0.7c0.3,0.2,0.8,0.3,1.5,0.5c0.8,0.1,1.4,0.3,1.9,0.5s0.8,0.5,1,0.8s0.3,0.7,0.3,1.2
			s-0.1,1-0.4,1.4s-0.7,0.7-1.2,0.9s-1.1,0.3-1.8,0.3c-0.9,0-1.7-0.1-2.3-0.4s-1.1-0.7-1.5-1.2l1-1.5c0.3,0.5,0.7,0.9,1.1,1.1
			c0.4,0.2,0.9,0.3,1.5,0.3s1-0.1,1.3-0.3c0.3-0.2,0.4-0.4,0.4-0.7c0-0.2-0.1-0.4-0.4-0.6c-0.3-0.2-0.8-0.3-1.5-0.4
			c-0.8-0.2-1.5-0.4-1.9-0.6c-0.5-0.2-0.8-0.5-1-0.8s-0.3-0.7-0.3-1.2s0.1-1,0.4-1.4c0.3-0.4,0.7-0.7,1.2-1c0.5-0.2,1.2-0.4,1.9-0.4
			C47.5,371.1,48.1,371.2,48.7,371.5z"/>
		<path class="st2" d="M58.8,371.6c0.6,0.4,1.1,0.9,1.4,1.5c0.3,0.7,0.5,1.4,0.5,2.4s-0.2,1.7-0.5,2.4c-0.3,0.7-0.8,1.2-1.4,1.5
			c-0.6,0.4-1.3,0.5-2.2,0.5s-1.6-0.2-2.2-0.5s-1.1-0.9-1.4-1.5c-0.3-0.7-0.5-1.4-0.5-2.4s0.2-1.7,0.5-2.4c0.3-0.7,0.8-1.2,1.4-1.5
			s1.4-0.5,2.2-0.5S58.2,371.2,58.8,371.6z M54.9,373.3c-0.4,0.5-0.6,1.2-0.6,2.2s0.2,1.7,0.6,2.2c0.4,0.5,1,0.8,1.7,0.8
			s1.3-0.3,1.7-0.8s0.6-1.2,0.6-2.2s-0.2-1.7-0.6-2.2c-0.4-0.5-1-0.8-1.7-0.8S55.3,372.8,54.9,373.3z"/>
		<path class="st2" d="M72.9,379.8h-1.6v-4.5l0.1-2.5l0,0l-2.4,7h-1.5l-2.4-7l0,0l0.1,2.5v4.5h-1.6v-8.6h2.6l1.5,4.7l0.5,1.9l0,0
			l0.6-1.9l1.5-4.7h2.5v8.6H72.9z"/>
		<path class="st2" d="M81.1,377.7h-3.3l-0.7,2.1h-1.8l3.1-8.6h2.1l3.1,8.6h-1.9L81.1,377.7z M80.6,376.4l-0.8-2.4l-0.4-1.3l0,0
			L79,374l-0.8,2.4H80.6z"/>
	</g>
</g>
<g>
	<g>
		<path class="st2" d="M144.7,361.8H143v-4.5l0.1-2.5l0,0l-2.4,7h-1.5l-2.4-7l0,0l0.1,2.5v4.5h-1.6v-8.6h2.6l1.5,4.7l0.5,1.9l0,0
			l0.6-1.9l1.5-4.7h2.5v8.6H144.7z"/>
		<path class="st2" d="M149.7,361.8h-1.8v-8.6h1.8V361.8z"/>
		<path class="st2" d="M158.2,353.5c0.6,0.3,1.1,0.7,1.5,1.3l-1.2,1.2c-0.2-0.5-0.5-0.8-0.9-1s-0.8-0.3-1.4-0.3
			c-0.5,0-0.9,0.1-1.2,0.3s-0.4,0.5-0.4,0.8s0.1,0.5,0.4,0.7c0.3,0.2,0.8,0.3,1.5,0.5c0.8,0.1,1.4,0.3,1.9,0.5s0.8,0.5,1,0.8
			s0.3,0.7,0.3,1.2s-0.1,1-0.4,1.4s-0.7,0.7-1.2,0.9s-1.1,0.3-1.8,0.3c-0.9,0-1.7-0.1-2.3-0.4s-1.1-0.7-1.5-1.2l1.1-1.3
			c0.3,0.5,0.7,0.9,1.1,1.1c0.4,0.2,0.9,0.3,1.5,0.3s1-0.1,1.3-0.3c0.3-0.2,0.4-0.4,0.4-0.7c0-0.2-0.1-0.4-0.4-0.6s-0.8-0.3-1.5-0.4
			c-0.8-0.2-1.4-0.4-1.9-0.6s-0.8-0.5-1-0.8s-0.3-0.7-0.3-1.2s0.1-1,0.4-1.4c0.3-0.4,0.7-0.7,1.2-1c0.5-0.2,1.2-0.4,1.9-0.4
			C156.9,353.1,157.6,353.2,158.2,353.5z"/>
		<path class="st2" d="M167.6,353.5c0.6,0.3,1.1,0.7,1.5,1.3l-1.2,1.2c-0.2-0.5-0.5-0.8-0.9-1s-0.8-0.3-1.4-0.3
			c-0.5,0-0.9,0.1-1.2,0.3s-0.4,0.5-0.4,0.8s0.1,0.5,0.4,0.7c0.3,0.2,0.8,0.3,1.5,0.5c0.8,0.1,1.4,0.3,1.9,0.5s0.8,0.5,1,0.8
			s0.3,0.7,0.3,1.2s-0.1,1-0.4,1.4s-0.7,0.7-1.2,0.9s-1.1,0.3-1.8,0.3c-0.9,0-1.7-0.1-2.3-0.4s-1.1-0.7-1.5-1.2l1.1-1.3
			c0.3,0.5,0.7,0.9,1.1,1.1c0.4,0.2,0.9,0.3,1.5,0.3s1-0.1,1.3-0.3c0.3-0.2,0.4-0.4,0.4-0.7c0-0.2-0.1-0.4-0.4-0.6s-0.8-0.3-1.5-0.4
			c-0.8-0.2-1.4-0.4-1.9-0.6s-0.8-0.5-1-0.8s-0.3-0.7-0.3-1.2s0.1-1,0.4-1.4c0.3-0.4,0.7-0.7,1.2-1c0.5-0.2,1.2-0.4,1.9-0.4
			C166.3,353.1,167,353.2,167.6,353.5z"/>
		<path class="st2" d="M173.6,361.8h-1.8v-8.6h1.8V361.8z"/>
		<path class="st2" d="M182.8,353.6c0.6,0.4,1.1,0.9,1.4,1.5s0.5,1.4,0.5,2.4s-0.2,1.7-0.5,2.4c-0.3,0.7-0.8,1.2-1.4,1.5
			c-0.6,0.4-1.4,0.5-2.2,0.5s-1.6-0.2-2.2-0.5s-1.1-0.9-1.4-1.5c-0.3-0.7-0.5-1.4-0.5-2.4s0.2-1.7,0.5-2.4s0.8-1.2,1.4-1.5
			s1.4-0.5,2.2-0.5C181.4,353.1,182.1,353.2,182.8,353.6z M178.9,355.3c-0.4,0.5-0.6,1.2-0.6,2.2s0.2,1.7,0.6,2.2
			c0.4,0.5,1,0.8,1.7,0.8s1.3-0.3,1.7-0.8s0.6-1.2,0.6-2.2s-0.2-1.7-0.6-2.2c-0.4-0.5-1-0.8-1.7-0.8
			C179.8,354.5,179.3,354.8,178.9,355.3z"/>
		<path class="st2" d="M194.9,361.8h-2.1l-3-5l-0.7-1.4l0,0l0.1,1.5v5h-1.6v-8.6h2l3,5l0.7,1.5l0,0l-0.1-1.5v-5h1.6v8.5H194.9z"/>
	</g>
</g>
<g>
	<g>
		<path class="st2" d="M273.8,361.8h-2.1l-3-5l-0.7-1.4l0,0l0.1,1.5v5h-1.6v-8.6h2l3,5l0.7,1.5l0,0l-0.1-1.5v-5h1.6v8.5H273.8z"/>
		<path class="st2" d="M283,353.6c0.6,0.4,1.1,0.9,1.4,1.5s0.5,1.4,0.5,2.4s-0.2,1.7-0.5,2.4c-0.3,0.7-0.8,1.2-1.4,1.5
			c-0.6,0.4-1.4,0.5-2.2,0.5c-0.8,0-1.6-0.2-2.2-0.5s-1.1-0.9-1.4-1.5c-0.3-0.7-0.5-1.4-0.5-2.4s0.2-1.7,0.5-2.4s0.8-1.2,1.4-1.5
			s1.4-0.5,2.2-0.5C281.7,353.1,282.4,353.2,283,353.6z M279.1,355.3c-0.4,0.5-0.6,1.2-0.6,2.2s0.2,1.7,0.6,2.2s1,0.8,1.7,0.8
			s1.3-0.3,1.7-0.8c0.4-0.5,0.6-1.2,0.6-2.2s-0.2-1.7-0.6-2.2s-1-0.8-1.7-0.8S279.5,354.8,279.1,355.3z"/>
		<path class="st2" d="M291.2,358.5h-1.6v3.3h-1.8v-8.6h3.8c1,0,1.7,0.2,2.3,0.7c0.6,0.5,0.8,1.1,0.8,2c0,0.6-0.2,1.1-0.5,1.5
			s-0.7,0.7-1.3,0.9l2.3,3.5h-2L291.2,358.5z M289.6,357.1h1.8c0.5,0,0.9-0.1,1.2-0.3c0.2-0.2,0.4-0.5,0.4-0.9s-0.1-0.7-0.4-0.9
			c-0.2-0.2-0.6-0.3-1.2-0.3h-1.8V357.1z"/>
		<path class="st2" d="M304.3,354.6h-2.9v7.1h-1.8v-7.1h-2.9v-1.4h7.6L304.3,354.6L304.3,354.6z"/>
		<path class="st2" d="M314.2,353.2v8.6h-1.8v-3.6h-3.8v3.6h-1.8v-8.6h1.8v3.5h3.8v-3.5H314.2z"/>
		<path class="st2" d="M267.4,371.2h3.8c1,0,1.8,0.2,2.3,0.6s0.8,1,0.8,1.7c0,0.5-0.1,0.9-0.4,1.2c-0.3,0.4-0.7,0.6-1.2,0.7l0,0
			c0.6,0.1,1,0.3,1.4,0.7c0.3,0.4,0.5,0.8,0.5,1.3c0,0.7-0.3,1.3-0.8,1.7c-0.5,0.4-1.3,0.6-2.3,0.6h-3.9v-8.5H267.4z M270.9,374.8
			c1,0,1.4-0.4,1.4-1.1s-0.5-1.1-1.4-1.1h-1.8v2.2H270.9z M271.2,378.4c0.5,0,0.8-0.1,1.1-0.3c0.2-0.2,0.4-0.5,0.4-0.8
			c0-0.4-0.1-0.6-0.4-0.8s-0.6-0.3-1.1-0.3h-2v2.2L271.2,378.4L271.2,378.4z"/>
		<path class="st2" d="M283.8,378.3v1.4h-6.6v-8.6h6.4v1.4H279v2.1h3.7v1.4H279v2.2h4.8V378.3z"/>
		<path class="st2" d="M291.3,377.7H288l-0.7,2.1h-1.8l3.1-8.6h2.1l3.1,8.6h-1.9L291.3,377.7z M290.9,376.4l-0.8-2.4l-0.4-1.3l0,0
			l-0.4,1.3l-0.8,2.4H290.9z"/>
		<path class="st2" d="M301.9,379.3c-0.6,0.4-1.4,0.6-2.3,0.6c-0.8,0-1.6-0.2-2.2-0.5s-1.1-0.9-1.4-1.5c-0.3-0.7-0.5-1.4-0.5-2.4
			s0.2-1.7,0.5-2.4s0.8-1.2,1.4-1.5s1.3-0.5,2.2-0.5c0.9,0,1.6,0.2,2.3,0.6c0.6,0.4,1,0.9,1.3,1.7l-1.6,0.7
			c-0.1-0.5-0.4-0.9-0.7-1.1c-0.3-0.2-0.7-0.3-1.2-0.3c-0.7,0-1.3,0.3-1.7,0.8s-0.6,1.2-0.6,2.2c0,0.9,0.2,1.7,0.6,2.2
			s1,0.8,1.7,0.8c1,0,1.7-0.5,2-1.5l1.7,0.5C303,378.2,302.6,378.8,301.9,379.3z"/>
		<path class="st2" d="M313.2,371.2v8.6h-1.8v-3.6h-3.8v3.6h-1.8v-8.6h1.8v3.5h3.8v-3.5H313.2z"/>
	</g>
</g>
<g>
	<g>
		<path class="st2" d="M394.3,353.5c0.6,0.3,1.1,0.7,1.5,1.3l-1.2,1.2c-0.2-0.5-0.5-0.8-0.9-1s-0.8-0.3-1.4-0.3
			c-0.5,0-0.9,0.1-1.2,0.3c-0.3,0.2-0.4,0.5-0.4,0.8s0.1,0.5,0.4,0.7s0.8,0.3,1.5,0.5c0.8,0.1,1.4,0.3,1.9,0.5s0.8,0.5,1,0.8
			s0.3,0.7,0.3,1.2s-0.1,1-0.4,1.4s-0.7,0.7-1.2,0.9s-1.1,0.3-1.8,0.3c-0.9,0-1.7-0.1-2.3-0.4c-0.6-0.3-1.1-0.7-1.5-1.2l1.1-1.3
			c0.3,0.5,0.7,0.9,1.1,1.1s0.9,0.3,1.5,0.3s1-0.1,1.3-0.3c0.3-0.2,0.4-0.4,0.4-0.7c0-0.2-0.1-0.4-0.4-0.6s-0.8-0.3-1.5-0.4
			c-0.8-0.2-1.5-0.4-1.9-0.6c-0.5-0.2-0.8-0.5-1-0.8s-0.3-0.7-0.3-1.2s0.1-1,0.4-1.4s0.7-0.7,1.2-1c0.5-0.2,1.2-0.4,1.9-0.4
			C393.1,353.1,393.7,353.2,394.3,353.5z"/>
		<path class="st2" d="M404.4,353.6c0.6,0.4,1.1,0.9,1.4,1.5c0.3,0.7,0.5,1.4,0.5,2.4s-0.2,1.7-0.5,2.4c-0.3,0.7-0.8,1.2-1.4,1.5
			c-0.6,0.4-1.3,0.5-2.2,0.5s-1.6-0.2-2.2-0.5s-1.1-0.9-1.4-1.5c-0.3-0.7-0.5-1.4-0.5-2.4s0.2-1.7,0.5-2.4c0.3-0.7,0.8-1.2,1.4-1.5
			s1.4-0.5,2.2-0.5S403.8,353.2,404.4,353.6z M400.5,355.3c-0.4,0.5-0.6,1.2-0.6,2.2s0.2,1.7,0.6,2.2s1,0.8,1.7,0.8s1.3-0.3,1.7-0.8
			c0.4-0.5,0.6-1.2,0.6-2.2s-0.2-1.7-0.6-2.2s-1-0.8-1.7-0.8S400.9,354.8,400.5,355.3z"/>
		<path class="st2" d="M418.5,361.8h-1.6v-4.5l0.1-2.5l0,0l-2.4,7h-1.5l-2.4-7l0,0l0.1,2.5v4.5h-1.6v-8.6h2.6l1.5,4.7l0.5,1.9l0,0
			l0.6-1.9l1.5-4.7h2.5L418.5,361.8L418.5,361.8z"/>
		<path class="st2" d="M426.7,359.7h-3.3l-0.7,2.1h-1.8l3.1-8.6h2.1l3.1,8.6h-1.9L426.7,359.7z M426.2,358.4l-0.8-2.4l-0.4-1.3l0,0
			l-0.4,1.3l-0.8,2.4H426.2z"/>
		<path class="st2" d="M368.6,371.5c0.6,0.3,1.1,0.7,1.5,1.3l-1.2,1.2c-0.2-0.5-0.5-0.8-0.9-1s-0.8-0.3-1.4-0.3
			c-0.5,0-0.9,0.1-1.2,0.3c-0.3,0.2-0.4,0.5-0.4,0.8s0.1,0.5,0.4,0.7s0.8,0.3,1.5,0.5c0.8,0.1,1.4,0.3,1.9,0.5s0.8,0.5,1,0.8
			s0.3,0.7,0.3,1.2s-0.1,1-0.4,1.4s-0.7,0.7-1.2,0.9s-1.1,0.3-1.8,0.3c-0.9,0-1.7-0.1-2.3-0.4c-0.6-0.3-1.1-0.7-1.5-1.2l1.1-1.3
			c0.3,0.5,0.7,0.9,1.1,1.1s0.9,0.3,1.5,0.3s1-0.1,1.3-0.3c0.3-0.2,0.4-0.4,0.4-0.7c0-0.2-0.1-0.4-0.4-0.6s-0.8-0.3-1.5-0.4
			c-0.8-0.2-1.5-0.4-1.9-0.6c-0.5-0.2-0.8-0.5-1-0.8s-0.3-0.7-0.3-1.2s0.1-1,0.4-1.4s0.7-0.7,1.2-1c0.5-0.2,1.2-0.4,1.9-0.4
			C367.4,371.1,368.1,371.2,368.6,371.5z"/>
		<path class="st2" d="M378.7,371.6c0.6,0.4,1.1,0.9,1.4,1.5c0.3,0.7,0.5,1.4,0.5,2.4s-0.2,1.7-0.5,2.4c-0.3,0.7-0.8,1.2-1.4,1.5
			c-0.6,0.4-1.3,0.5-2.2,0.5s-1.6-0.2-2.2-0.5s-1.1-0.9-1.4-1.5c-0.3-0.7-0.5-1.4-0.5-2.4s0.2-1.7,0.5-2.4c0.3-0.7,0.8-1.2,1.4-1.5
			s1.4-0.5,2.2-0.5S378.1,371.2,378.7,371.6z M374.9,373.3c-0.4,0.5-0.6,1.2-0.6,2.2s0.2,1.7,0.6,2.2s1,0.8,1.7,0.8s1.3-0.3,1.7-0.8
			c0.4-0.5,0.6-1.2,0.6-2.2s-0.2-1.7-0.6-2.2s-1-0.8-1.7-0.8C375.8,372.5,375.3,372.8,374.9,373.3z"/>
		<path class="st2" d="M390.7,376.4c0,1.2-0.3,2-0.9,2.6s-1.5,0.9-2.7,0.9s-2.1-0.3-2.7-0.9s-0.9-1.5-0.9-2.6v-5.2h1.8v5.1
			c0,0.7,0.2,1.3,0.5,1.6c0.3,0.3,0.8,0.5,1.4,0.5s1.1-0.2,1.4-0.5s0.5-0.9,0.5-1.6v-5.1h1.8v5.2H390.7z"/>
		<path class="st2" d="M400.6,372.6h-2.9v7.1H396v-7.1h-2.9v-1.4h7.6v1.4H400.6z"/>
		<path class="st2" d="M410.5,371.2v8.6h-1.8v-3.6h-3.8v3.6h-1.8v-8.6h1.8v3.5h3.8v-3.5H410.5z"/>
		<path class="st2" d="M424.7,371.9c0.6,0.5,0.8,1.2,0.8,2s-0.3,1.5-0.8,2s-1.3,0.7-2.3,0.7h-1.8v3.1h-1.8v-8.6h3.6
			C423.4,371.2,424.2,371.4,424.7,371.9z M423.4,374.9c0.3-0.2,0.4-0.6,0.4-1s-0.1-0.8-0.4-1s-0.7-0.3-1.2-0.3h-1.5v2.6h1.5
			C422.7,375.3,423.1,375.1,423.4,374.9z"/>
		<path class="st2" d="M432.3,377.7H429l-0.7,2.1h-1.8l3.1-8.6h2.1l3.1,8.6h-1.9L432.3,377.7z M431.9,376.4l-0.8-2.4l-0.4-1.3l0,0
			l-0.4,1.3l-0.8,2.4H431.9z"/>
		<path class="st2" d="M440.6,376.5H439v3.3h-1.8v-8.6h3.8c1,0,1.7,0.2,2.3,0.7c0.6,0.5,0.8,1.1,0.8,2c0,0.6-0.2,1.1-0.5,1.5
			s-0.7,0.7-1.3,0.9l2.3,3.5h-2L440.6,376.5z M439,375.1h1.8c0.5,0,0.9-0.1,1.2-0.3c0.2-0.2,0.4-0.5,0.4-0.9s-0.1-0.7-0.4-0.9
			c-0.2-0.2-0.6-0.3-1.2-0.3H439V375.1z"/>
		<path class="st2" d="M450.1,375.8l-1.2,1.4v2.5h-1.8v-8.6h1.8v4.1l3.5-4.1h2.1l-3.1,3.5l3.2,5.1h-2.1L450.1,375.8z"/>
	</g>
</g>
<g>
	<g>
		<path class="st2" d="M523.5,361.8h-2.1l-3.1-8.6h1.9l1.8,5.5l0.5,1.7l0.5-1.7l1.8-5.5h1.8L523.5,361.8z"/>
		<path class="st2" d="M535.6,360.3v1.4H529v-8.6h6.4v1.4h-4.6v2.1h3.7v1.4h-3.7v2.2h4.8V360.3z"/>
		<path class="st2" d="M545.6,361.8h-2.1l-3-5l-0.7-1.4l0,0l0.1,1.5v5h-1.6v-8.6h2l3,5l0.7,1.5l0,0l-0.1-1.5v-5h1.6L545.6,361.8
			L545.6,361.8z"/>
		<path class="st2" d="M550.7,361.8h-1.8v-8.6h1.8V361.8z"/>
		<path class="st2" d="M559.9,361.3c-0.6,0.4-1.4,0.6-2.3,0.6c-0.8,0-1.6-0.2-2.2-0.5s-1.1-0.9-1.4-1.5c-0.3-0.7-0.5-1.4-0.5-2.4
			s0.2-1.7,0.5-2.4c0.3-0.7,0.8-1.2,1.4-1.5c0.6-0.4,1.3-0.5,2.2-0.5s1.6,0.2,2.3,0.6c0.6,0.4,1,0.9,1.3,1.7l-1.6,0.7
			c-0.1-0.5-0.4-0.9-0.7-1.1s-0.7-0.3-1.2-0.3c-0.7,0-1.3,0.3-1.7,0.8s-0.6,1.2-0.6,2.2c0,0.9,0.2,1.7,0.6,2.2
			c0.4,0.5,1,0.8,1.7,0.8c1,0,1.7-0.5,2-1.5l1.7,0.5C561,360.2,560.6,360.8,559.9,361.3z"/>
		<path class="st2" d="M570.5,360.3v1.4h-6.6v-8.6h6.4v1.4h-4.6v2.1h3.7v1.4h-3.7v2.2h4.8V360.3z"/>
		<path class="st2" d="M521.6,371.2h3.8c1,0,1.8,0.2,2.3,0.6s0.8,1,0.8,1.7c0,0.5-0.1,0.9-0.4,1.2c-0.3,0.4-0.7,0.6-1.2,0.7l0,0
			c0.6,0.1,1,0.3,1.4,0.7s0.5,0.8,0.5,1.3c0,0.7-0.3,1.3-0.8,1.7c-0.5,0.4-1.3,0.6-2.3,0.6h-3.9v-8.5H521.6z M525.1,374.8
			c1,0,1.4-0.4,1.4-1.1s-0.5-1.1-1.4-1.1h-1.8v2.2H525.1z M525.4,378.4c0.5,0,0.8-0.1,1.1-0.3c0.2-0.2,0.4-0.5,0.4-0.8
			c0-0.4-0.1-0.6-0.4-0.8s-0.6-0.3-1.1-0.3h-2v2.2L525.4,378.4L525.4,378.4z"/>
		<path class="st2" d="M538,378.3v1.4h-6.6v-8.6h6.4v1.4h-4.6v2.1h3.7v1.4h-3.7v2.2h4.8V378.3z"/>
		<path class="st2" d="M545.5,377.7h-3.3l-0.7,2.1h-1.8l3.1-8.6h2.1l3.1,8.6h-1.9L545.5,377.7z M545.1,376.4l-0.8-2.4l-0.4-1.3l0,0
			l-0.4,1.3l-0.8,2.4H545.1z"/>
		<path class="st2" d="M556.1,379.3c-0.6,0.4-1.4,0.6-2.3,0.6c-0.8,0-1.6-0.2-2.2-0.5s-1.1-0.9-1.4-1.5c-0.3-0.7-0.5-1.4-0.5-2.4
			s0.2-1.7,0.5-2.4c0.3-0.7,0.8-1.2,1.4-1.5c0.6-0.4,1.3-0.5,2.2-0.5s1.6,0.2,2.3,0.6c0.6,0.4,1,0.9,1.3,1.7l-1.6,0.7
			c-0.1-0.5-0.4-0.9-0.7-1.1s-0.7-0.3-1.2-0.3c-0.7,0-1.3,0.3-1.7,0.8s-0.6,1.2-0.6,2.2c0,0.9,0.2,1.7,0.6,2.2
			c0.4,0.5,1,0.8,1.7,0.8c1,0,1.7-0.5,2-1.5l1.7,0.5C557.2,378.2,556.8,378.8,556.1,379.3z"/>
		<path class="st2" d="M567.4,371.2v8.6h-1.8v-3.6h-3.8v3.6H560v-8.6h1.8v3.5h3.8v-3.5H567.4z"/>
	</g>
</g>
<g>
	<g>
		<path class="st2" d="M710.8,361.8h-1.6v-4.5l0.1-2.5l0,0l-2.4,7h-1.5l-2.4-7l0,0l0.1,2.5v4.5h-1.6v-8.6h2.6l1.5,4.7l0.5,1.9l0,0
			l0.6-1.9l1.5-4.7h2.5v8.6H710.8z"/>
		<path class="st2" d="M719,359.7h-3.3l-0.7,2.1h-1.8l3.1-8.6h2.1l3.1,8.6h-1.9L719,359.7z M718.5,358.4l-0.8-2.4l-0.4-1.3l0,0
			l-0.4,1.3l-0.8,2.4H718.5z"/>
		<path class="st2" d="M727.2,358.5h-1.6v3.3h-1.8v-8.6h3.8c1,0,1.7,0.2,2.3,0.7s0.8,1.1,0.8,2c0,0.6-0.2,1.1-0.5,1.5
			s-0.7,0.7-1.3,0.9l2.3,3.5h-2L727.2,358.5z M725.6,357.1h1.8c0.5,0,0.9-0.1,1.2-0.3c0.2-0.2,0.4-0.5,0.4-0.9s-0.1-0.7-0.4-0.9
			c-0.2-0.2-0.6-0.3-1.2-0.3h-1.8V357.1z"/>
		<path class="st2" d="M735.5,361.8h-1.8v-8.6h1.8V361.8z"/>
		<path class="st2" d="M746.2,361.8h-2.1l-3-5l-0.7-1.4l0,0l0.1,1.5v5h-1.6v-8.6h2l3,5l0.7,1.5l0,0l-0.1-1.5v-5h1.6L746.2,361.8
			L746.2,361.8z"/>
		<path class="st2" d="M754.3,359.7H751l-0.7,2.1h-1.8l3.1-8.6h2.1l3.1,8.6H755L754.3,359.7z M753.9,358.4l-0.8-2.4l-0.4-1.3l0,0
			l-0.4,1.3l-0.8,2.4H753.9z"/>
		<path class="st2" d="M716.1,377.7h-3.3l-0.7,2.1h-1.8l3.1-8.6h2.1l3.1,8.6h-1.9L716.1,377.7z M715.6,376.4l-0.8-2.4l-0.4-1.3l0,0
			L714,374l-0.8,2.4H715.6z"/>
		<path class="st2" d="M724.3,376.5h-1.6v3.3H721v-8.6h3.8c1,0,1.7,0.2,2.3,0.7s0.8,1.1,0.8,2c0,0.6-0.2,1.1-0.5,1.5
			s-0.7,0.7-1.3,0.9l2.3,3.5h-2L724.3,376.5z M722.7,375.1h1.8c0.5,0,0.9-0.1,1.2-0.3c0.2-0.2,0.4-0.5,0.4-0.9s-0.1-0.7-0.4-0.9
			c-0.2-0.2-0.6-0.3-1.2-0.3h-1.8V375.1z"/>
		<path class="st2" d="M737.5,372.6h-2.9v7.1h-1.8v-7.1h-2.9v-1.4h7.6L737.5,372.6L737.5,372.6z"/>
		<path class="st2" d="M744.9,371.5c0.6,0.3,1.1,0.7,1.5,1.3l-1.2,1.2c-0.2-0.5-0.5-0.8-0.9-1s-0.8-0.3-1.4-0.3
			c-0.5,0-0.9,0.1-1.2,0.3c-0.3,0.2-0.4,0.5-0.4,0.8s0.1,0.5,0.4,0.7c0.3,0.2,0.8,0.3,1.5,0.5c0.8,0.1,1.4,0.3,1.9,0.5
			s0.8,0.5,1,0.8s0.3,0.7,0.3,1.2s-0.1,1-0.4,1.4s-0.7,0.7-1.2,0.9s-1.1,0.3-1.8,0.3c-0.9,0-1.7-0.1-2.3-0.4s-1.1-0.7-1.5-1.2
			l1.1-1.3c0.3,0.5,0.7,0.9,1.1,1.1c0.4,0.2,0.9,0.3,1.5,0.3s1-0.1,1.3-0.3c0.3-0.2,0.4-0.4,0.4-0.7c0-0.2-0.1-0.4-0.4-0.6
			c-0.3-0.2-0.8-0.3-1.5-0.4c-0.8-0.2-1.5-0.4-1.9-0.6c-0.5-0.2-0.8-0.5-1-0.8s-0.3-0.7-0.3-1.2s0.1-1,0.4-1.4
			c0.3-0.4,0.7-0.7,1.2-1c0.5-0.2,1.2-0.4,1.9-0.4C743.7,371.1,744.3,371.2,744.9,371.5z"/>
	</g>
</g>
<rect x="379" y="213.5" class="st1" width="60" height="119"/>
<rect x="37" y="251.5" class="st1" width="51" height="81"/>
<g>
	<rect x="47" y="307.5" class="st3" width="10.9" height="15"/>
	<rect x="67.1" y="307.5" class="st3" width="10.9" height="15"/>
</g>
<g>
	<rect x="47" y="285.5" class="st3" width="10.9" height="15"/>
	<rect x="67.1" y="285.5" class="st3" width="10.9" height="15"/>
</g>
<g>
	<rect x="47" y="263.5" class="st3" width="10.9" height="15"/>
	<rect x="67.1" y="263.5" class="st3" width="10.9" height="15"/>
</g>
<polygon class="st1" points="325,332.5 255,332.5 255,229.5 309.1,229.5 309,252.5 325,252.5 "/>
<g>
	<rect x="265" y="307.5" class="st3" width="10.9" height="15"/>
	<rect x="285.1" y="307.5" class="st3" width="10.9" height="15"/>
</g>
<g>
	<rect x="265" y="285.5" class="st3" width="10.9" height="15"/>
	<rect x="285.1" y="285.5" class="st3" width="10.9" height="15"/>
</g>
<g>
	<rect x="265" y="263.5" class="st3" width="10.9" height="15"/>
	<rect x="285.1" y="263.5" class="st3" width="10.9" height="15"/>
</g>
<g>
	<rect x="265" y="241.5" class="st3" width="10.9" height="15"/>
	<rect x="285.1" y="241.5" class="st3" width="10.9" height="15"/>
</g>
<g>
	<rect x="305.1" y="307.5" class="st3" width="10.9" height="15"/>
</g>
<g>
	<rect x="305.1" y="285.5" class="st3" width="10.9" height="15"/>
</g>
<g>
	<rect x="305.1" y="263.5" class="st3" width="10.9" height="15"/>
</g>
<rect x="116" y="208.5" class="st1" width="101" height="124"/>
<g>
	<rect x="126" y="310.5" class="st3" width="15" height="9"/>
	<rect x="148" y="310.5" class="st3" width="15" height="9"/>
</g>
<g>
	<rect x="126" y="288.5" class="st3" width="15" height="9"/>
	<rect x="148" y="288.5" class="st3" width="15" height="9"/>
</g>
<g>
	<rect x="126" y="266.5" class="st3" width="15" height="9"/>
	<rect x="148" y="266.5" class="st3" width="15" height="9"/>
</g>
<g>
	<rect x="170" y="310.5" class="st3" width="15" height="9"/>
	<rect x="192" y="310.5" class="st3" width="15" height="9"/>
</g>
<g>
	<rect x="170" y="288.5" class="st3" width="15" height="9"/>
	<rect x="192" y="288.5" class="st3" width="15" height="9"/>
</g>
<g>
	<rect x="170" y="266.5" class="st3" width="15" height="9"/>
	<rect x="192" y="266.5" class="st3" width="15" height="9"/>
</g>
<g>
	<rect x="126" y="244.5" class="st3" width="15" height="9"/>
	<rect x="148" y="244.5" class="st3" width="15" height="9"/>
</g>
<g>
	<rect x="170" y="244.5" class="st3" width="15" height="9"/>
	<rect x="192" y="244.5" class="st3" width="15" height="9"/>
</g>
<g>
	<rect x="126" y="222.5" class="st3" width="15" height="9"/>
	<rect x="148" y="222.5" class="st3" width="15" height="9"/>
</g>
<g>
	<rect x="170" y="222.5" class="st3" width="15" height="9"/>
	<rect x="192" y="222.5" class="st3" width="15" height="9"/>
</g>
<polygon class="st1" points="596,332.5 495,332.5 495,166.5 530,166.5 530,190.5 596,190.5 "/>
<g>
	<rect x="505" y="310.5" class="st3" width="15" height="9"/>
	<rect x="527" y="310.5" class="st3" width="15" height="9"/>
</g>
<g>
	<rect x="505" y="288.5" class="st3" width="15" height="9"/>
	<rect x="527" y="288.5" class="st3" width="15" height="9"/>
</g>
<g>
	<rect x="505" y="266.5" class="st3" width="15" height="9"/>
	<rect x="527" y="266.5" class="st3" width="15" height="9"/>
</g>
<g>
	<rect x="549" y="310.5" class="st3" width="15" height="9"/>
	<rect x="571" y="310.5" class="st3" width="15" height="9"/>
</g>
<g>
	<rect x="549" y="288.5" class="st3" width="15" height="9"/>
	<rect x="571" y="288.5" class="st3" width="15" height="9"/>
</g>
<g>
	<rect x="549" y="266.5" class="st3" width="15" height="9"/>
	<rect x="571" y="266.5" class="st3" width="15" height="9"/>
</g>
<g>
	<rect x="505" y="244.5" class="st3" width="15" height="9"/>
	<rect x="527" y="244.5" class="st3" width="15" height="9"/>
</g>
<g>
	<rect x="549" y="244.5" class="st3" width="15" height="9"/>
	<rect x="571" y="244.5" class="st3" width="15" height="9"/>
</g>
<g>
	<rect x="505" y="222.5" class="st3" width="15" height="9"/>
	<rect x="527" y="222.5" class="st3" width="15" height="9"/>
</g>
<g>
	<rect x="549" y="222.5" class="st3" width="15" height="9"/>
	<rect x="571" y="222.5" class="st3" width="15" height="9"/>
</g>
<g>
	<rect x="505" y="200.5" class="st3" width="15" height="9"/>
	<rect x="527" y="200.5" class="st3" width="15" height="9"/>
</g>
<g>
	<rect x="505" y="200.5" class="st3" width="15" height="9"/>
	<rect x="527" y="200.5" class="st3" width="15" height="9"/>
</g>
<g>
	<rect x="505" y="178.5" class="st3" width="15" height="9"/>
</g>
<g>
	<rect x="549" y="200.5" class="st3" width="15" height="9"/>
	<rect x="571" y="200.5" class="st3" width="15" height="9"/>
</g>
<rect x="389" y="308.5" class="st3" width="8" height="8"/>
<rect x="405" y="308.5" class="st3" width="8" height="8"/>
<rect x="421" y="308.5" class="st3" width="8" height="8"/>
<rect x="389" y="287.5" class="st3" width="8" height="8"/>
<rect x="405" y="287.5" class="st3" width="8" height="8"/>
<rect x="421" y="287.5" class="st3" width="8" height="8"/>
<rect x="389" y="266.5" class="st3" width="8" height="8"/>
<rect x="405" y="266.5" class="st3" width="8" height="8"/>
<rect x="421" y="266.5" class="st3" width="8" height="8"/>
<rect x="389" y="245.5" class="st3" width="8" height="8"/>
<rect x="405" y="245.5" class="st3" width="8" height="8"/>
<rect x="421" y="245.5" class="st3" width="8" height="8"/>
<rect x="389" y="224.5" class="st3" width="8" height="8"/>
<rect x="405" y="224.5" class="st3" width="8" height="8"/>
<rect x="421" y="224.5" class="st3" width="8" height="8"/>
<rect x="648" y="50.5" class="st1" width="161" height="282"/>
<rect x="662" y="308.5" class="st3" width="8" height="8"/>
<rect x="676" y="308.5" class="st3" width="8" height="8"/>
<rect x="690" y="308.5" class="st3" width="8" height="8"/>
<rect x="704" y="308.5" class="st3" width="8" height="8"/>
<rect x="718" y="308.5" class="st3" width="8" height="8"/>
<rect x="732" y="308.5" class="st3" width="8" height="8"/>
<rect x="746" y="308.5" class="st3" width="8" height="8"/>
<rect x="760" y="308.5" class="st3" width="8" height="8"/>
<rect x="774" y="308.5" class="st3" width="8" height="8"/>
<rect x="788" y="308.5" class="st3" width="8" height="8"/>
<rect x="662" y="288.5" class="st3" width="8" height="8"/>
<rect x="676" y="288.5" class="st3" width="8" height="8"/>
<rect x="690" y="288.5" class="st3" width="8" height="8"/>
<rect x="704" y="288.5" class="st3" width="8" height="8"/>
<rect x="718" y="288.5" class="st3" width="8" height="8"/>
<rect x="732" y="288.5" class="st3" width="8" height="8"/>
<rect x="746" y="288.5" class="st3" width="8" height="8"/>
<rect x="760" y="288.5" class="st3" width="8" height="8"/>
<rect x="774" y="288.5" class="st3" width="8" height="8"/>
<rect x="788" y="288.5" class="st3" width="8" height="8"/>
<rect x="662" y="268.5" class="st3" width="8" height="8"/>
<rect x="676" y="268.5" class="st3" width="8" height="8"/>
<rect x="690" y="268.5" class="st3" width="8" height="8"/>
<rect x="704" y="268.5" class="st3" width="8" height="8"/>
<rect x="718" y="268.5" class="st3" width="8" height="8"/>
<rect x="732" y="268.5" class="st3" width="8" height="8"/>
<rect x="746" y="268.5" class="st3" width="8" height="8"/>
<rect x="760" y="268.5" class="st3" width="8" height="8"/>
<rect x="774" y="268.5" class="st3" width="8" height="8"/>
<rect x="788" y="268.5" class="st3" width="8" height="8"/>
<rect x="662" y="248.5" class="st3" width="8" height="8"/>
<rect x="676" y="248.5" class="st3" width="8" height="8"/>
<rect x="690" y="248.5" class="st3" width="8" height="8"/>
<rect x="704" y="248.5" class="st3" width="8" height="8"/>
<rect x="718" y="248.5" class="st3" width="8" height="8"/>
<rect x="732" y="248.5" class="st3" width="8" height="8"/>
<rect x="746" y="248.5" class="st3" width="8" height="8"/>
<rect x="760" y="248.5" class="st3" width="8" height="8"/>
<rect x="774" y="248.5" class="st3" width="8" height="8"/>
<rect x="788" y="248.5" class="st3" width="8" height="8"/>
<rect x="662" y="228.5" class="st3" width="8" height="8"/>
<rect x="676" y="228.5" class="st3" width="8" height="8"/>
<rect x="690" y="228.5" class="st3" width="8" height="8"/>
<rect x="704" y="228.5" class="st3" width="8" height="8"/>
<rect x="718" y="228.5" class="st3" width="8" height="8"/>
<rect x="732" y="228.5" class="st3" width="8" height="8"/>
<rect x="746" y="228.5" class="st3" width="8" height="8"/>
<rect x="760" y="228.5" class="st3" width="8" height="8"/>
<rect x="774" y="228.5" class="st3" width="8" height="8"/>
<rect x="788" y="228.5" class="st3" width="8" height="8"/>
<rect x="662" y="208.5" class="st3" width="8" height="8"/>
<rect x="676" y="208.5" class="st3" width="8" height="8"/>
<rect x="690" y="208.5" class="st3" width="8" height="8"/>
<rect x="704" y="208.5" class="st3" width="8" height="8"/>
<rect x="718" y="208.5" class="st3" width="8" height="8"/>
<rect x="732" y="208.5" class="st3" width="8" height="8"/>
<rect x="746" y="208.5" class="st3" width="8" height="8"/>
<rect x="760" y="208.5" class="st3" width="8" height="8"/>
<rect x="774" y="208.5" class="st3" width="8" height="8"/>
<rect x="788" y="208.5" class="st3" width="8" height="8"/>
<rect x="662" y="188.5" class="st3" width="8" height="8"/>
<rect x="676" y="188.5" class="st3" width="8" height="8"/>
<rect x="690" y="188.5" class="st3" width="8" height="8"/>
<rect x="704" y="188.5" class="st3" width="8" height="8"/>
<rect x="718" y="188.5" class="st3" width="8" height="8"/>
<rect x="732" y="188.5" class="st3" width="8" height="8"/>
<rect x="746" y="188.5" class="st3" width="8" height="8"/>
<rect x="760" y="188.5" class="st3" width="8" height="8"/>
<rect x="774" y="188.5" class="st3" width="8" height="8"/>
<rect x="788" y="188.5" class="st3" width="8" height="8"/>
<rect x="662" y="168.5" class="st3" width="8" height="8"/>
<rect x="676" y="168.5" class="st3" width="8" height="8"/>
<rect x="690" y="168.5" class="st3" width="8" height="8"/>
<rect x="704" y="168.5" class="st3" width="8" height="8"/>
<rect x="718" y="168.5" class="st3" width="8" height="8"/>
<rect x="732" y="168.5" class="st3" width="8" height="8"/>
<rect x="746" y="168.5" class="st3" width="8" height="8"/>
<rect x="760" y="168.5" class="st3" width="8" height="8"/>
<rect x="774" y="168.5" class="st3" width="8" height="8"/>
<rect x="788" y="168.5" class="st3" width="8" height="8"/>
<rect x="662" y="148.5" class="st3" width="8" height="8"/>
<rect x="676" y="148.5" class="st3" width="8" height="8"/>
<rect x="690" y="148.5" class="st3" width="8" height="8"/>
<rect x="704" y="148.5" class="st3" width="8" height="8"/>
<rect x="718" y="148.5" class="st3" width="8" height="8"/>
<rect x="732" y="148.5" class="st3" width="8" height="8"/>
<rect x="746" y="148.5" class="st3" width="8" height="8"/>
<rect x="760" y="148.5" class="st3" width="8" height="8"/>
<rect x="774" y="148.5" class="st3" width="8" height="8"/>
<rect x="788" y="148.5" class="st3" width="8" height="8"/>
<rect x="662" y="128.5" class="st3" width="8" height="8"/>
<rect x="676" y="128.5" class="st3" width="8" height="8"/>
<rect x="690" y="128.5" class="st3" width="8" height="8"/>
<rect x="704" y="128.5" class="st3" width="8" height="8"/>
<rect x="718" y="128.5" class="st3" width="8" height="8"/>
<rect x="732" y="128.5" class="st3" width="8" height="8"/>
<rect x="746" y="128.5" class="st3" width="8" height="8"/>
<rect x="760" y="128.5" class="st3" width="8" height="8"/>
<rect x="774" y="128.5" class="st3" width="8" height="8"/>
<rect x="788" y="128.5" class="st3" width="8" height="8"/>
<rect x="662" y="108.5" class="st3" width="8" height="8"/>
<rect x="676" y="108.5" class="st3" width="8" height="8"/>
<rect x="690" y="108.5" class="st3" width="8" height="8"/>
<rect x="704" y="108.5" class="st3" width="8" height="8"/>
<rect x="718" y="108.5" class="st3" width="8" height="8"/>
<rect x="732" y="108.5" class="st3" width="8" height="8"/>
<rect x="746" y="108.5" class="st3" width="8" height="8"/>
<rect x="760" y="108.5" class="st3" width="8" height="8"/>
<rect x="774" y="108.5" class="st3" width="8" height="8"/>
<rect x="788" y="108.5" class="st3" width="8" height="8"/>
<rect x="662" y="88.5" class="st3" width="8" height="8"/>
<rect x="676" y="88.5" class="st3" width="8" height="8"/>
<rect x="690" y="88.5" class="st3" width="8" height="8"/>
<rect x="704" y="88.5" class="st3" width="8" height="8"/>
<rect x="718" y="88.5" class="st3" width="8" height="8"/>
<rect x="732" y="88.5" class="st3" width="8" height="8"/>
<rect x="746" y="88.5" class="st3" width="8" height="8"/>
<rect x="760" y="88.5" class="st3" width="8" height="8"/>
<rect x="774" y="88.5" class="st3" width="8" height="8"/>
<rect x="788" y="88.5" class="st3" width="8" height="8"/>
<g>
	<rect x="676" y="68.5" class="st3" width="8" height="8"/>
	<rect x="690" y="68.5" class="st3" width="8" height="8"/>
	<rect x="704" y="68.5" class="st3" width="8" height="8"/>
	<rect x="718" y="68.5" class="st3" width="8" height="8"/>
	<rect x="732" y="68.5" class="st3" width="8" height="8"/>
	<rect x="746" y="68.5" class="st3" width="8" height="8"/>
	<rect x="760" y="68.5" class="st3" width="8" height="8"/>
	<rect x="774" y="68.5" class="st3" width="8" height="8"/>
</g>
<g>
	<g>
		<path class="st4" d="M65.7,226.7c0.6,0.4,1.1,1,1.4,1.9l-2,0.9c-0.3-1-0.9-1.4-2-1.4c-0.5,0-0.9,0.2-1.3,0.5
			c-0.4,0.3-0.7,0.8-0.9,1.4s-0.3,1.2-0.3,2v0.3h0.1c0.2-0.6,0.5-1,1.1-1.3c0.5-0.3,1.1-0.4,1.8-0.4s1.3,0.1,1.9,0.4
			c0.6,0.3,1,0.7,1.3,1.2s0.5,1.2,0.5,1.9c0,1.1-0.4,2-1.1,2.7s-1.8,1-3,1c-1.5,0-2.6-0.5-3.4-1.5c-0.8-1-1.2-2.4-1.2-4.3
			c0-1.3,0.2-2.3,0.6-3.2c0.4-0.9,1-1.5,1.7-1.9s1.5-0.6,2.4-0.6C64.3,226.1,65.1,226.3,65.7,226.7z M61.8,232.7
			c-0.4,0.3-0.5,0.8-0.5,1.3c0,0.6,0.2,1,0.5,1.3c0.4,0.3,0.8,0.5,1.4,0.5c0.6,0,1.1-0.2,1.4-0.5c0.3-0.3,0.5-0.8,0.5-1.3
			c0-0.6-0.2-1-0.5-1.3s-0.8-0.5-1.4-0.5C62.7,232.2,62.2,232.4,61.8,232.7z"/>
	</g>
</g>
<g>
	<g>
		<path class="st4" d="M156.9,191.9c1.4-0.9,2.5-1.7,3.3-2.4s1.4-1.3,1.8-1.9c0.4-0.6,0.5-1.2,0.5-1.8c0-0.5-0.2-1-0.5-1.3
			s-0.8-0.5-1.3-0.5c-0.6,0-1.1,0.2-1.5,0.6c-0.4,0.4-0.6,1-0.6,1.8l-2-0.8c0.1-1.1,0.5-2,1.3-2.7c0.8-0.6,1.8-1,3-1
			c0.9,0,1.6,0.2,2.2,0.5c0.6,0.3,1.1,0.8,1.4,1.3c0.3,0.5,0.5,1.1,0.5,1.8c0,1.1-0.4,2-1.2,3c-0.8,0.9-2.1,1.9-3.8,3l0,0
			c0.7,0,1.3-0.1,2.1-0.1h3.1v1.9h-8.1v-1.4H156.9z"/>
		<path class="st4" d="M169.3,192.2c-0.8-1-1.1-2.4-1.1-4.3c0-1.9,0.4-3.3,1.1-4.3c0.8-1,1.9-1.5,3.4-1.5s2.6,0.5,3.4,1.5
			c0.8,1,1.1,2.4,1.1,4.3c0,1.9-0.4,3.3-1.1,4.3c-0.8,1-1.9,1.5-3.4,1.5C171.1,193.7,170,193.2,169.3,192.2z M174.2,190.8
			c0.4-0.6,0.5-1.6,0.5-2.9c0-1.3-0.2-2.3-0.5-2.9c-0.4-0.6-0.9-1-1.6-1c-0.7,0-1.3,0.3-1.6,1s-0.5,1.6-0.5,2.9
			c0,1.3,0.2,2.3,0.5,2.9s0.9,1,1.6,1S173.9,191.5,174.2,190.8z"/>
	</g>
</g>
<g>
	<g>
		<path class="st4" d="M287.8,202.3v11.2h-2.3v-8.4c0-0.2,0-0.3,0-0.4c-0.4,0.4-0.8,0.7-1.3,1s-0.9,0.4-1.4,0.5l-0.3-2
			c0.5-0.1,1.1-0.3,1.9-0.7c0.7-0.4,1.2-0.8,1.5-1.2L287.8,202.3L287.8,202.3z"/>
		<path class="st4" d="M296.4,202.3v11.2h-2.3v-8.4c0-0.2,0-0.3,0-0.4c-0.4,0.4-0.8,0.7-1.3,1s-0.9,0.4-1.4,0.5l-0.3-2
			c0.5-0.1,1.1-0.3,1.9-0.7c0.7-0.4,1.2-0.8,1.5-1.2L296.4,202.3L296.4,202.3z"/>
	</g>
</g>
<g>
	<g>
		<path class="st4" d="M405.5,186.3v11.2h-2.3v-8.4c0-0.2,0-0.3,0-0.4c-0.4,0.4-0.8,0.7-1.3,1s-0.9,0.4-1.4,0.5l-0.3-2
			c0.5-0.1,1.1-0.3,1.9-0.7c0.7-0.4,1.2-0.8,1.5-1.2L405.5,186.3L405.5,186.3z"/>
		<path class="st4" d="M416.4,191.3c0.6,0.6,0.9,1.5,0.9,2.5c0,1.3-0.4,2.2-1.1,2.9c-0.8,0.7-1.8,1-3,1c-1,0-1.9-0.2-2.5-0.6
			s-1.2-1-1.7-1.8l2.1-1.2c0.1,0.6,0.4,1,0.7,1.2c0.3,0.3,0.8,0.4,1.4,0.4s1.1-0.2,1.5-0.5s0.5-0.8,0.5-1.4c0-0.6-0.2-1.1-0.5-1.4
			c-0.3-0.3-0.8-0.5-1.4-0.5c-0.9,0-1.6,0.3-2.1,0.8l-1.8-0.2l0.7-6.4h6.7v1.9h-5l-0.3,2.6l-0.1,0.3l0,0c0.2-0.3,0.6-0.5,1-0.6
			s0.9-0.2,1.4-0.2C415,190.3,415.8,190.6,416.4,191.3z"/>
	</g>
</g>
<g>
	<g>
		<path class="st4" d="M544.4,137c0.7,0.6,1,1.3,1,2.2c0,0.6-0.1,1-0.3,1.4s-0.5,0.7-0.8,0.9s-0.6,0.3-0.9,0.3v0.1
			c0.4,0,0.7,0.1,1.1,0.3c0.4,0.2,0.7,0.5,0.9,0.9s0.3,0.9,0.3,1.4c0,0.6-0.2,1.2-0.5,1.7c-0.4,0.5-0.9,0.9-1.5,1.1
			c-0.6,0.3-1.4,0.4-2.2,0.4c-1.1,0-2-0.2-2.7-0.7c-0.7-0.4-1.2-1.1-1.5-2.1l2.1-1c0.1,0.6,0.4,1.1,0.7,1.4c0.3,0.3,0.8,0.4,1.4,0.4
			c0.6,0,1-0.1,1.4-0.4c0.3-0.3,0.5-0.7,0.5-1.2s-0.2-0.9-0.5-1.1c-0.3-0.2-0.8-0.3-1.5-0.3h-0.6v-1.6h0.5c1.2,0,1.8-0.5,1.8-1.5
			c0-0.5-0.1-0.9-0.4-1.1s-0.7-0.4-1.2-0.4s-0.9,0.1-1.3,0.4c-0.3,0.3-0.5,0.7-0.6,1.2l-2.1-0.8c0.2-0.9,0.7-1.6,1.4-2
			s1.6-0.7,2.6-0.7C542.8,136.1,543.8,136.4,544.4,137z"/>
		<path class="st4" d="M553.8,136.3v11.2h-2.3v-8.4c0-0.2,0-0.3,0-0.4c-0.4,0.4-0.8,0.7-1.3,1s-0.9,0.4-1.4,0.5l-0.3-2
			c0.5-0.1,1.1-0.3,1.9-0.7c0.7-0.4,1.2-0.8,1.5-1.2L553.8,136.3L553.8,136.3z"/>
	</g>
</g>
<g>
	<g>
		<path class="st4" d="M719.4,21.3v11.2h-2.3v-8.4c0-0.2,0-0.3,0-0.4c-0.4,0.4-0.8,0.7-1.3,1s-0.9,0.4-1.4,0.5l-0.3-2
			c0.5-0.1,1.1-0.3,1.9-0.7c0.7-0.4,1.2-0.8,1.5-1.2H719.4z"/>
		<path class="st4" d="M723.3,30.9c1.4-0.9,2.5-1.7,3.3-2.4s1.4-1.3,1.8-1.9c0.4-0.6,0.5-1.2,0.5-1.8c0-0.5-0.2-1-0.5-1.3
			s-0.8-0.5-1.3-0.5c-0.6,0-1.1,0.2-1.5,0.6s-0.6,1-0.6,1.8l-2-0.8c0.1-1.1,0.5-2,1.3-2.7c0.8-0.6,1.8-1,3-1c0.9,0,1.6,0.2,2.2,0.5
			c0.6,0.3,1.1,0.8,1.4,1.3c0.3,0.5,0.5,1.1,0.5,1.8c0,1.1-0.4,2-1.2,3c-0.8,0.9-2.1,1.9-3.8,3l0,0c0.7,0,1.3-0.1,2.1-0.1h3.1v1.9
			h-8.1v-1.4H723.3z"/>
		<path class="st4" d="M741.8,22c0.7,0.5,1.1,1.3,1.1,2.2c0,0.6-0.2,1.1-0.5,1.5s-0.7,0.8-1.2,1l0,0c0.7,0.2,1.2,0.6,1.6,1.1
			c0.4,0.5,0.6,1.1,0.6,1.7c0,1-0.4,1.7-1.2,2.3c-0.8,0.6-1.9,0.8-3.2,0.8s-2.4-0.3-3.2-0.8c-0.8-0.6-1.2-1.3-1.2-2.3
			c0-0.7,0.2-1.3,0.6-1.7s0.9-0.8,1.6-1.1l0,0c-0.5-0.2-1-0.5-1.3-1s-0.5-0.9-0.5-1.5c0-1,0.4-1.7,1.1-2.2c0.7-0.5,1.7-0.8,2.9-0.8
			S741.1,21.4,741.8,22z M740.5,30.4c0.4-0.3,0.5-0.7,0.5-1.2s-0.2-0.9-0.6-1.2s-0.9-0.4-1.5-0.4s-1.1,0.1-1.5,0.4s-0.6,0.7-0.6,1.2
			s0.2,0.9,0.6,1.2c0.4,0.3,0.9,0.4,1.5,0.4C739.6,30.9,740.1,30.7,740.5,30.4z M737.7,23.4c-0.3,0.3-0.5,0.6-0.5,1.1
			s0.2,0.8,0.5,1.1c0.3,0.3,0.7,0.4,1.2,0.4s1-0.1,1.3-0.4s0.5-0.6,0.5-1.1s-0.2-0.8-0.5-1.1c-0.3-0.3-0.7-0.4-1.3-0.4
			C738.4,23,738,23.1,737.7,23.4z"/>
	</g>
</g>
<g>
	<path class="st1" d="M250.7,424.3c1-0.7,1.9-1.3,2.5-1.8c0.6-0.5,1.1-1,1.3-1.5c0.3-0.5,0.4-0.9,0.4-1.3s-0.1-0.7-0.4-1
		c-0.2-0.3-0.6-0.4-1-0.4c-0.5,0-0.9,0.2-1.1,0.5s-0.4,0.8-0.5,1.4l-1.5-0.6c0.1-0.9,0.4-1.5,1-2c0.6-0.5,1.3-0.7,2.3-0.7
		c0.7,0,1.2,0.1,1.7,0.4s0.8,0.6,1,1c0.2,0.4,0.4,0.9,0.4,1.4c0,0.8-0.3,1.6-0.9,2.3c-0.6,0.7-1.6,1.5-2.9,2.3l0,0
		c0.5,0,1-0.1,1.6-0.1h2.4v1.4h-6.2v-1.3H250.7z"/>
	<path class="st1" d="M260.2,424.5c-0.6-0.7-0.9-1.8-0.9-3.3s0.3-2.6,0.9-3.3c0.6-0.7,1.4-1.1,2.6-1.1c1.1,0,2,0.4,2.6,1.1
		s0.9,1.8,0.9,3.3s-0.3,2.6-0.9,3.3c-0.6,0.7-1.4,1.1-2.6,1.1C261.6,425.6,260.8,425.2,260.2,424.5z M264,423.4
		c0.3-0.5,0.4-1.2,0.4-2.2s-0.1-1.8-0.4-2.2c-0.3-0.4-0.7-0.7-1.2-0.7s-1,0.2-1.2,0.7c-0.2,0.5-0.4,1.2-0.4,2.2s0.1,1.8,0.4,2.2
		c0.3,0.4,0.7,0.7,1.2,0.7S263.8,423.9,264,423.4z"/>
	<path class="st1" d="M272.4,416.9v8.6h-1.7v-6.4c0-0.1,0-0.2,0-0.3c-0.3,0.3-0.6,0.5-1,0.7c-0.4,0.2-0.7,0.3-1.1,0.4l-0.2-1.5
		c0.4,0,0.9-0.2,1.4-0.5c0.6-0.3,0.9-0.6,1.2-0.9h1.4V416.9z"/>
	<path class="st1" d="M280.8,417.4c0.5,0.4,0.8,1,0.8,1.7c0,0.4-0.1,0.8-0.3,1.2c-0.2,0.3-0.5,0.6-1,0.7l0,0
		c0.5,0.2,0.9,0.5,1.2,0.8s0.4,0.8,0.4,1.3c0,0.7-0.3,1.3-0.9,1.8c-0.6,0.4-1.4,0.7-2.5,0.7c-1,0-1.8-0.2-2.4-0.7
		c-0.6-0.4-0.9-1-0.9-1.8c0-0.5,0.1-1,0.4-1.3c0.3-0.4,0.7-0.6,1.2-0.8l0,0c-0.4-0.2-0.7-0.4-1-0.7c-0.2-0.3-0.3-0.7-0.3-1.2
		c0-0.7,0.3-1.3,0.8-1.7c0.5-0.4,1.3-0.6,2.2-0.6C279.5,416.8,280.2,417,280.8,417.4z M279.8,423.9c0.3-0.2,0.4-0.5,0.4-0.9
		s-0.1-0.7-0.4-0.9c-0.3-0.2-0.7-0.3-1.2-0.3s-0.9,0.1-1.2,0.3c-0.3,0.2-0.4,0.5-0.4,0.9s0.1,0.7,0.4,0.9c0.3,0.2,0.7,0.3,1.2,0.3
		C279.1,424.2,279.5,424.1,279.8,423.9z M277.6,418.5c-0.2,0.2-0.4,0.5-0.4,0.8s0.1,0.6,0.4,0.8c0.2,0.2,0.6,0.3,1,0.3
		s0.7-0.1,1-0.3c0.2-0.2,0.4-0.5,0.4-0.8c0-0.4-0.1-0.6-0.4-0.8c-0.2-0.2-0.6-0.3-1-0.3S277.8,418.3,277.6,418.5z"/>
</g>
<polygon class="st0" points="677.2,722.1 148.8,718.5 148.8,717.5 677.2,721.1 "/>
<g>
	<g>
		<path class="st2" d="M565,742h-2.9v7.1h-1.8V742h-2.9v-1.4h7.6L565,742z"/>
		<path class="st2" d="M574.1,747.7v1.4h-6.6v-8.6h6.4v1.4h-4.6v2.1h3.7v1.4h-3.7v2.2L574.1,747.7z"/>
		<path class="st2" d="M584.1,749.2H582l-3-5.1l-0.7-1.4l0,0v1.5v5h-1.6v-8.6h2l3,5l0.7,1.5l0,0v-1.5v-5h1.6L584.1,749.2z"/>
		<path class="st2" d="M593.8,741.7c0.7,0.7,1.1,1.8,1.1,3.2s-0.4,2.4-1.1,3.2c-0.7,0.7-1.8,1.1-3.1,1.1h-3.3v-8.6h3.3
			C592.1,740.6,593.1,741,593.8,741.7z M592.5,747c0.4-0.5,0.6-1.2,0.6-2.1c0-0.9-0.2-1.6-0.6-2.1c-0.4-0.5-1-0.7-1.8-0.7h-1.4v5.7
			h1.4C591.4,747.7,592,747.5,592.5,747z"/>
		<path class="st2" d="M604.4,747.8v1.4h-6.6v-8.6h6.4v1.4h-4.6v2.1h3.7v1.4h-3.7v2.2L604.4,747.8z"/>
		<path class="st2" d="M610.4,745.9h-1.6v3.3H607v-8.6h3.8c1,0,1.7,0.2,2.3,0.7c0.5,0.5,0.8,1.1,0.8,2c0,0.6-0.2,1.1-0.5,1.5
			s-0.7,0.7-1.3,0.9l2.3,3.5h-2L610.4,745.9z M608.8,744.6h1.8c0.5,0,0.9-0.1,1.2-0.3c0.3-0.2,0.4-0.5,0.4-0.9s-0.1-0.7-0.4-0.9
			s-0.6-0.3-1.1-0.3h-1.8L608.8,744.6z"/>
		<path class="st2" d="M623.2,747.8v1.4h-6.3v-8.6h1.8v7.1L623.2,747.8z"/>
		<path class="st2" d="M631.4,741.1c0.6,0.4,1.1,0.9,1.4,1.5s0.5,1.5,0.5,2.4s-0.2,1.7-0.5,2.4s-0.8,1.2-1.4,1.5
			c-0.6,0.4-1.4,0.5-2.2,0.5c-0.8,0-1.6-0.2-2.2-0.5c-0.6-0.3-1.1-0.9-1.4-1.5c-0.3-0.7-0.5-1.5-0.5-2.4s0.2-1.7,0.5-2.4
			c0.3-0.7,0.8-1.2,1.4-1.5c0.6-0.4,1.4-0.5,2.2-0.5C630.1,740.6,630.8,740.7,631.4,741.1z M627.5,742.8c-0.4,0.5-0.6,1.2-0.6,2.2
			s0.2,1.7,0.6,2.2c0.4,0.5,1,0.8,1.7,0.8s1.3-0.2,1.7-0.8c0.4-0.5,0.6-1.2,0.6-2.2s-0.2-1.7-0.6-2.2c-0.4-0.5-0.9-0.8-1.7-0.8
			C628.5,742,627.9,742.3,627.5,742.8z"/>
		<path class="st2" d="M638,749.3h-1.8v-8.6h1.8V749.3z"/>
		<path class="st2" d="M648.6,749.3h-2.1l-3-5.1l-0.7-1.4l0,0v1.5v5h-1.6v-8.6h2l3,5l0.7,1.5l0,0v-1.5v-5h1.6L648.6,749.3z"/>
	</g>
</g>
<g>
	<g>
		<path class="st2" d="M197.8,749.5h-2.1l-3-5.1L192,743l0,0v1.5v5h-1.6v-8.6h2l3,5l0.7,1.5l0,0v-1.5v-5h1.6L197.8,749.5z"/>
		<path class="st2" d="M207,741.3c0.6,0.4,1.1,0.9,1.4,1.5c0.3,0.7,0.5,1.5,0.5,2.4s-0.2,1.7-0.5,2.4s-0.8,1.2-1.4,1.5
			c-0.6,0.4-1.4,0.5-2.2,0.5c-0.8,0-1.6-0.2-2.2-0.5c-0.6-0.4-1.1-0.9-1.4-1.5c-0.3-0.7-0.5-1.5-0.5-2.4s0.2-1.7,0.5-2.4
			s0.8-1.2,1.4-1.5c0.6-0.4,1.4-0.5,2.2-0.5C205.7,740.8,206.4,741,207,741.3z M203.1,743c-0.4,0.5-0.6,1.2-0.6,2.2s0.2,1.7,0.6,2.2
			s1,0.8,1.7,0.8s1.3-0.2,1.7-0.8c0.4-0.5,0.6-1.2,0.6-2.2s-0.2-1.7-0.6-2.2s-0.9-0.8-1.7-0.8C204.1,742.3,203.5,742.5,203.1,743z"
			/>
		<path class="st2" d="M217.7,741.7c0.6,0.5,0.8,1.2,0.8,2s-0.3,1.5-0.8,2c-0.6,0.5-1.3,0.7-2.3,0.7h-1.8v3.1h-1.8v-8.6h3.6
			C216.4,741,217.2,741.2,217.7,741.7z M216.3,744.7c0.3-0.2,0.4-0.6,0.4-1s-0.1-0.8-0.4-1s-0.7-0.3-1.2-0.3h-1.5v2.6h1.5
			C215.7,745,216.1,744.9,216.3,744.7z"/>
		<path class="st2" d="M225.3,747.5H222l-0.7,2.1h-1.8l3.2-8.6h2.1l3.1,8.6H226L225.3,747.5z M224.9,746.1l-0.8-2.4l-0.4-1.3l0,0
			l-0.4,1.3l-0.8,2.4H224.9z"/>
	</g>
</g>
<g>
	<g>
		<path class="st2" d="M298.2,747.7h-3.3l-0.7,2.1h-1.8l3.2-8.6h2.1l3.1,8.6h-1.9L298.2,747.7z M297.7,746.3l-0.8-2.4l-0.4-1.3l0,0
			l-0.4,1.3l-0.8,2.4H297.7z"/>
		<path class="st2" d="M309.4,748.3v1.4h-6.3v-8.6h1.8v7.1L309.4,748.3z"/>
		<path class="st2" d="M316.8,747.7h-3.3l-0.7,2.1H311l3.2-8.6h2.1l3.1,8.6h-1.9L316.8,747.7z M316.4,746.4l-0.8-2.4l-0.4-1.3l0,0
			l-0.4,1.3l-0.8,2.4H316.4z"/>
		<path class="st2" d="M331,749.8h-1.6v-4.5l0.1-2.5l0,0l-2.4,7h-1.5l-2.3-7l0,0l0.1,2.5v4.5h-1.6v-8.6h2.6l1.5,4.7l0.5,1.9l0,0
			l0.6-1.9l1.5-4.7h2.5L331,749.8z"/>
		<path class="st2" d="M340.2,741.7c0.6,0.4,1.1,0.9,1.4,1.5c0.3,0.7,0.5,1.5,0.5,2.4s-0.2,1.7-0.5,2.4s-0.8,1.2-1.4,1.5
			c-0.6,0.4-1.4,0.5-2.2,0.5c-0.8,0-1.6-0.2-2.2-0.5s-1.1-0.9-1.4-1.5c-0.3-0.7-0.5-1.5-0.5-2.4s0.2-1.7,0.5-2.4s0.8-1.2,1.4-1.5
			c0.6-0.4,1.4-0.5,2.2-0.5C338.9,741.1,339.6,741.3,340.2,741.7z M336.3,743.4c-0.4,0.5-0.6,1.2-0.6,2.2s0.2,1.7,0.6,2.2
			s1,0.8,1.7,0.8s1.3-0.2,1.7-0.8s0.6-1.2,0.6-2.2s-0.2-1.7-0.6-2.2s-0.9-0.8-1.7-0.8C337.3,742.6,336.7,742.9,336.3,743.4z"/>
		<path class="st2" d="M294.8,759.4c0.6,0.3,1.1,0.7,1.5,1.3l-1.2,1.2c-0.2-0.5-0.5-0.8-0.9-1s-0.8-0.3-1.4-0.3
			c-0.5,0-0.9,0.1-1.2,0.3s-0.4,0.5-0.4,0.8s0.1,0.5,0.4,0.7s0.8,0.3,1.5,0.5c0.8,0.1,1.4,0.3,1.9,0.6s0.8,0.5,1,0.8
			s0.3,0.7,0.3,1.2s-0.2,1-0.5,1.4s-0.7,0.7-1.3,0.9c-0.5,0.2-1.1,0.3-1.8,0.3c-0.9,0-1.7-0.1-2.3-0.4c-0.6-0.3-1.1-0.7-1.5-1.2
			l1.1-1.3c0.3,0.5,0.7,0.9,1.1,1.1c0.4,0.2,0.9,0.3,1.5,0.3s1-0.1,1.3-0.3s0.4-0.4,0.4-0.7c0-0.2-0.1-0.4-0.4-0.6
			c-0.3-0.2-0.8-0.3-1.5-0.4c-0.8-0.2-1.4-0.4-1.9-0.6c-0.5-0.2-0.8-0.5-1-0.8s-0.3-0.7-0.3-1.2s0.1-1,0.4-1.4s0.7-0.7,1.2-1
			c0.5-0.2,1.2-0.3,1.9-0.3C293.5,759,294.2,759.2,294.8,759.4z"/>
		<path class="st2" d="M305.6,768.8c0.3-0.1,0.5-0.2,0.7-0.4l0.5,1.4c-0.2,0.2-0.5,0.3-0.9,0.4c-0.4,0.1-0.8,0.2-1.2,0.2
			c-0.8,0-1.5-0.2-1.9-0.6c-0.5-0.4-0.7-1.1-0.7-1.9c-1.1-0.1-1.9-0.6-2.6-1.4c-0.6-0.8-0.9-1.8-0.9-3c0-0.9,0.2-1.7,0.5-2.4
			s0.8-1.2,1.4-1.5c0.6-0.4,1.4-0.5,2.2-0.5c0.8,0,1.6,0.2,2.2,0.5c0.6,0.4,1.1,0.9,1.4,1.5c0.3,0.7,0.5,1.5,0.5,2.4
			c0,1.3-0.3,2.3-0.9,3s-1.5,1.2-2.6,1.3c0,0.4,0.2,0.7,0.4,0.8c0.2,0.1,0.6,0.2,1,0.2C305.1,768.9,305.4,768.8,305.6,768.8z
			 M301,765.7c0.4,0.5,1,0.8,1.7,0.8s1.3-0.2,1.7-0.8c0.4-0.5,0.6-1.2,0.6-2.2s-0.2-1.7-0.6-2.2s-0.9-0.8-1.7-0.8
			c-0.7,0-1.3,0.3-1.7,0.8c-0.4,0.5-0.6,1.2-0.6,2.2C300.4,764.4,300.6,765.1,301,765.7z"/>
		<path class="st2" d="M316.9,764.4c0,1.2-0.3,2-0.9,2.6s-1.5,0.9-2.7,0.9s-2.1-0.3-2.7-0.9s-0.9-1.5-0.9-2.6v-5.2h1.8v5.1
			c0,0.7,0.1,1.3,0.5,1.6c0.3,0.3,0.8,0.5,1.4,0.5s1.1-0.2,1.4-0.5s0.5-0.9,0.5-1.6v-5.1h1.8L316.9,764.4z"/>
		<path class="st2" d="M324.6,765.7h-3.3l-0.7,2.1h-1.8l3.2-8.6h2.1l3.1,8.6h-1.9L324.6,765.7z M324.1,764.4l-0.8-2.4l-0.4-1.3l0,0
			l-0.4,1.3l-0.8,2.4H324.1z"/>
		<path class="st2" d="M332.8,764.6h-1.6v3.3h-1.8v-8.6h3.8c1,0,1.7,0.2,2.3,0.7s0.8,1.1,0.8,2c0,0.6-0.2,1.1-0.5,1.5
			s-0.7,0.7-1.3,0.9l2.3,3.5h-2L332.8,764.6z M331.2,763.2h1.8c0.5,0,0.9-0.1,1.2-0.3c0.2-0.2,0.4-0.5,0.4-0.9s-0.1-0.7-0.4-0.9
			c-0.2-0.2-0.6-0.3-1.1-0.3h-1.8L331.2,763.2z"/>
		<path class="st2" d="M345.9,766.4v1.4h-6.6v-8.6h6.4v1.4h-4.6v2.1h3.7v1.4h-3.7v2.2L345.9,766.4z"/>
	</g>
</g>
<g>
	<g>
		<path class="st2" d="M434,750.1h-1.6v-4.5l0.1-2.5l0,0l-2.4,7h-1.5l-2.3-7l0,0l0.1,2.5v4.5h-1.6v-8.6h2.6l1.5,4.7l0.5,1.9l0,0
			l0.6-1.9l1.5-4.7h2.5L434,750.1z"/>
		<path class="st2" d="M439.1,750.1h-1.8v-8.6h1.8V750.1z"/>
		<path class="st2" d="M447.6,741.8c0.6,0.3,1.1,0.7,1.5,1.3l-1.2,1.2c-0.2-0.5-0.5-0.8-0.9-1s-0.8-0.3-1.4-0.3
			c-0.5,0-0.9,0.1-1.2,0.3s-0.4,0.5-0.4,0.8s0.1,0.5,0.4,0.7c0.3,0.2,0.8,0.3,1.5,0.5c0.8,0.1,1.4,0.3,1.9,0.6s0.8,0.5,1,0.8
			s0.3,0.7,0.3,1.2s-0.2,1-0.5,1.4s-0.7,0.7-1.3,0.9c-0.5,0.2-1.1,0.3-1.8,0.3c-0.9,0-1.7-0.1-2.3-0.4c-0.6-0.3-1.1-0.7-1.5-1.2
			l1.1-1.3c0.3,0.5,0.7,0.9,1.1,1.1c0.4,0.2,0.9,0.3,1.5,0.3s1-0.1,1.3-0.3s0.4-0.4,0.4-0.7c0-0.2-0.1-0.4-0.4-0.6
			c-0.3-0.2-0.8-0.3-1.5-0.4c-0.8-0.2-1.4-0.4-1.9-0.6c-0.5-0.2-0.8-0.5-1-0.8s-0.3-0.7-0.3-1.2s0.1-1,0.4-1.4
			c0.3-0.4,0.7-0.7,1.2-1c0.5-0.2,1.2-0.3,1.9-0.3C446.3,741.4,447,741.6,447.6,741.8z"/>
		<path class="st2" d="M457,741.9c0.6,0.3,1.1,0.7,1.5,1.3l-1.2,1.2c-0.2-0.5-0.5-0.8-0.9-1s-0.8-0.3-1.4-0.3
			c-0.5,0-0.9,0.1-1.2,0.3s-0.4,0.5-0.4,0.8s0.1,0.5,0.4,0.7c0.3,0.2,0.8,0.3,1.5,0.5c0.8,0.1,1.4,0.3,1.9,0.6s0.8,0.5,1,0.8
			s0.3,0.7,0.3,1.2s-0.2,1-0.5,1.4s-0.7,0.7-1.3,0.9c-0.5,0.2-1.1,0.3-1.8,0.3c-0.9,0-1.7-0.1-2.3-0.4c-0.6-0.3-1.1-0.7-1.5-1.2
			l1.1-1.3c0.3,0.5,0.7,0.9,1.1,1.1c0.4,0.2,0.9,0.3,1.5,0.3s1-0.1,1.3-0.3s0.4-0.4,0.4-0.7c0-0.2-0.1-0.4-0.4-0.6
			c-0.3-0.2-0.8-0.3-1.5-0.4c-0.8-0.2-1.4-0.4-1.9-0.6c-0.5-0.2-0.8-0.5-1-0.8s-0.3-0.7-0.3-1.2s0.1-1,0.4-1.4
			c0.3-0.4,0.7-0.7,1.2-1c0.5-0.2,1.2-0.3,1.9-0.3C455.7,741.5,456.4,741.6,457,741.9z"/>
		<path class="st2" d="M463,750.2h-1.8v-8.6h1.8V750.2z"/>
		<path class="st2" d="M472.2,742c0.6,0.4,1.1,0.9,1.4,1.5c0.3,0.7,0.5,1.5,0.5,2.4s-0.2,1.7-0.5,2.4s-0.8,1.2-1.4,1.5
			c-0.6,0.4-1.4,0.5-2.2,0.5s-1.6-0.2-2.2-0.5c-0.6-0.4-1.1-0.9-1.4-1.5c-0.3-0.7-0.5-1.5-0.5-2.4s0.2-1.7,0.5-2.4s0.8-1.2,1.4-1.5
			c0.6-0.4,1.4-0.5,2.2-0.5S471.5,741.7,472.2,742z M468.3,743.7c-0.4,0.5-0.6,1.2-0.6,2.2s0.2,1.7,0.6,2.2c0.4,0.5,1,0.8,1.7,0.8
			s1.3-0.2,1.7-0.8s0.6-1.2,0.6-2.2s-0.2-1.7-0.6-2.2c-0.4-0.5-0.9-0.8-1.7-0.8C469.2,743,468.7,743.2,468.3,743.7z"/>
		<path class="st2" d="M484.3,750.2h-2.1l-3-5.1l-0.7-1.4l0,0v1.5v5h-1.6v-8.6h2l3,5l0.7,1.5l0,0v-1.5v-5h1.6L484.3,750.2z"/>
		<path class="st2" d="M438,768.1h-2.1l-3-5.1l-0.7-1.4l0,0v1.5v5h-1.6v-8.6h2l3,5l0.7,1.5l0,0v-1.5v-5h1.6L438,768.1z"/>
		<path class="st2" d="M447.1,760c0.6,0.4,1.1,0.9,1.4,1.5c0.3,0.7,0.5,1.5,0.5,2.4s-0.2,1.7-0.5,2.4s-0.8,1.2-1.4,1.5
			c-0.6,0.4-1.4,0.5-2.2,0.5s-1.6-0.2-2.2-0.5c-0.6-0.4-1.1-0.9-1.4-1.5c-0.3-0.7-0.5-1.5-0.5-2.4s0.2-1.7,0.5-2.4s0.8-1.2,1.4-1.5
			s1.4-0.5,2.2-0.5C445.8,759.4,446.5,759.6,447.1,760z M443.3,761.6c-0.4,0.5-0.6,1.2-0.6,2.2s0.2,1.7,0.6,2.2
			c0.4,0.5,1,0.8,1.7,0.8s1.3-0.2,1.7-0.8c0.4-0.5,0.6-1.2,0.6-2.2s-0.2-1.7-0.6-2.2c-0.4-0.5-0.9-0.8-1.7-0.8
			C444.2,760.9,443.7,761.1,443.3,761.6z"/>
		<path class="st2" d="M455.3,764.9h-1.6v3.3h-1.8v-8.6h3.8c1,0,1.7,0.2,2.3,0.7c0.5,0.5,0.8,1.1,0.8,2c0,0.6-0.2,1.1-0.5,1.5
			s-0.7,0.7-1.3,0.9l2.3,3.5h-2L455.3,764.9z M453.7,763.5h1.8c0.5,0,0.9-0.1,1.2-0.3c0.2-0.2,0.4-0.5,0.4-0.9s-0.1-0.7-0.4-0.9
			c-0.2-0.2-0.6-0.3-1.1-0.3h-1.8L453.7,763.5z"/>
		<path class="st2" d="M468.4,761.1h-2.9v7.1h-1.8v-7.1h-2.9v-1.4h7.6L468.4,761.1z"/>
		<path class="st2" d="M478.3,759.6v8.6h-1.8v-3.6h-3.8v3.6h-1.8v-8.6h1.8v3.5h3.8v-3.5H478.3z"/>
	</g>
</g>
<rect x="151.6" y="641.7" transform="matrix(2.629454e-03 -1 1 2.629454e-03 -457.0188 870.0824)" class="st5" width="112.1" height="45"/>
<g>
	
		<rect x="192.1" y="699.9" transform="matrix(2.629454e-03 -1 1 2.629454e-03 -506.4953 901.576)" class="st3" width="13.2" height="9.7"/>
	
		<rect x="209.8" y="700" transform="matrix(2.629454e-03 -1 1 2.629454e-03 -488.942 919.3757)" class="st3" width="13.2" height="9.7"/>
</g>
<g>
	
		<rect x="192.2" y="680.5" transform="matrix(2.629454e-03 -1 1 2.629454e-03 -486.9957 882.3271)" class="st3" width="13.2" height="9.7"/>
	
		<rect x="209.9" y="680.5" transform="matrix(2.629454e-03 -1 1 2.629454e-03 -469.3421 900.0273)" class="st3" width="13.2" height="9.7"/>
</g>
<g>
	
		<rect x="192.2" y="661.1" transform="matrix(2.629454e-03 -1 1 2.629454e-03 -467.5957 862.9778)" class="st3" width="13.2" height="9.7"/>
	
		<rect x="209.9" y="661.1" transform="matrix(2.629454e-03 -1 1 2.629454e-03 -449.942 880.678)" class="st3" width="13.2" height="9.7"/>
</g>
<g>
	
		<rect x="192.3" y="641.7" transform="matrix(2.629454e-03 -1 1 2.629454e-03 -448.0961 843.7289)" class="st3" width="13.2" height="9.7"/>
	
		<rect x="210" y="641.7" transform="matrix(2.629454e-03 -1 1 2.629454e-03 -430.4425 861.4291)" class="st3" width="13.2" height="9.7"/>
</g>
<g>
	
		<rect x="192.3" y="622.3" transform="matrix(2.629454e-03 -1 1 2.629454e-03 -428.6959 824.3797)" class="st3" width="13.2" height="9.7"/>
	
		<rect x="210" y="622.3" transform="matrix(2.629454e-03 -1 1 2.629454e-03 -411.0424 842.0798)" class="st3" width="13.2" height="9.7"/>
</g>
<rect x="504.6" y="583.3" transform="matrix(2.629454e-03 -1 1 2.629454e-03 -27.6489 1222.8826)" class="st5" width="189.2" height="84"/>
<g>
	
		<rect x="567.8" y="701.2" transform="matrix(2.629454e-03 -1 1 2.629454e-03 -134.378 1275.373)" class="st3" width="8.7" height="7.7"/>
</g>
<g>
	
		<rect x="581.2" y="701.2" transform="matrix(2.629454e-03 -1 1 2.629454e-03 -121.0132 1288.7731)" class="st3" width="8.7" height="7.7"/>
</g>
<g>
	
		<rect x="594.6" y="701.2" transform="matrix(2.629454e-03 -1 1 2.629454e-03 -107.6481 1302.1732)" class="st3" width="8.7" height="7.7"/>
</g>
<g>
	
		<rect x="608" y="701.3" transform="matrix(2.629454e-03 -1 1 2.629454e-03 -94.3835 1315.6727)" class="st3" width="8.7" height="7.7"/>
</g>
<g>
	
		<rect x="621.4" y="701.3" transform="matrix(2.629454e-03 -1 1 2.629454e-03 -81.0186 1329.0728)" class="st3" width="8.7" height="7.7"/>
</g>
<g>
	
		<rect x="567.8" y="686.6" transform="matrix(2.629454e-03 -1 1 2.629454e-03 -119.7777 1260.8115)" class="st3" width="8.7" height="7.7"/>
</g>
<g>
	
		<rect x="581.2" y="686.7" transform="matrix(2.629454e-03 -1 1 2.629454e-03 -106.513 1274.311)" class="st3" width="8.7" height="7.7"/>
</g>
<g>
	
		<rect x="594.6" y="686.7" transform="matrix(2.629454e-03 -1 1 2.629454e-03 -93.1482 1287.7112)" class="st3" width="8.7" height="7.7"/>
</g>
<g>
	
		<rect x="608.1" y="686.8" transform="matrix(2.629454e-03 -1 1 2.629454e-03 -79.7839 1301.3109)" class="st3" width="8.7" height="7.7"/>
</g>
<g>
	
		<rect x="621.5" y="686.8" transform="matrix(2.629454e-03 -1 1 2.629454e-03 -66.419 1314.7109)" class="st3" width="8.7" height="7.7"/>
</g>
<g>
	
		<rect x="567.9" y="672.1" transform="matrix(2.629454e-03 -1 1 2.629454e-03 -105.1781 1246.4497)" class="st3" width="8.7" height="7.7"/>
</g>
<g>
	
		<rect x="581.3" y="672.2" transform="matrix(2.629454e-03 -1 1 2.629454e-03 -91.9135 1259.9493)" class="st3" width="8.7" height="7.7"/>
</g>
<g>
	
		<rect x="594.7" y="672.2" transform="matrix(2.629454e-03 -1 1 2.629454e-03 -78.5485 1273.3494)" class="st3" width="8.7" height="7.7"/>
</g>
<g>
	
		<rect x="608.1" y="672.2" transform="matrix(2.629454e-03 -1 1 2.629454e-03 -65.1837 1286.7495)" class="st3" width="8.7" height="7.7"/>
</g>
<g>
	
		<rect x="621.5" y="672.3" transform="matrix(2.629454e-03 -1 1 2.629454e-03 -51.9189 1300.249)" class="st3" width="8.7" height="7.7"/>
</g>
<g>
	
		<rect x="567.9" y="657.6" transform="matrix(2.629454e-03 -1 1 2.629454e-03 -90.6781 1231.9877)" class="st3" width="8.7" height="7.7"/>
</g>
<g>
	
		<rect x="581.3" y="657.7" transform="matrix(2.629454e-03 -1 1 2.629454e-03 -77.4134 1245.4873)" class="st3" width="8.7" height="7.7"/>
</g>
<g>
	
		<rect x="594.7" y="657.7" transform="matrix(2.629454e-03 -1 1 2.629454e-03 -64.0485 1258.8873)" class="st3" width="8.7" height="7.7"/>
</g>
<g>
	
		<rect x="608.1" y="657.7" transform="matrix(2.629454e-03 -1 1 2.629454e-03 -50.6835 1272.2875)" class="st3" width="8.7" height="7.7"/>
</g>
<g>
	
		<rect x="621.5" y="657.8" transform="matrix(2.629454e-03 -1 1 2.629454e-03 -37.4188 1285.7869)" class="st3" width="8.7" height="7.7"/>
</g>
<g>
	
		<rect x="567.9" y="643.1" transform="matrix(2.629454e-03 -1 1 2.629454e-03 -76.1779 1217.5256)" class="st3" width="8.7" height="7.7"/>
</g>
<g>
	
		<rect x="581.3" y="643.2" transform="matrix(2.629454e-03 -1 1 2.629454e-03 -62.9134 1231.0253)" class="st3" width="8.7" height="7.7"/>
</g>
<g>
	
		<rect x="594.8" y="643.2" transform="matrix(2.629454e-03 -1 1 2.629454e-03 -49.4489 1244.5255)" class="st3" width="8.7" height="7.7"/>
</g>
<g>
	
		<rect x="608.2" y="643.2" transform="matrix(2.629454e-03 -1 1 2.629454e-03 -36.084 1257.9255)" class="st3" width="8.7" height="7.7"/>
</g>
<g>
	
		<rect x="621.6" y="643.3" transform="matrix(2.629454e-03 -1 1 2.629454e-03 -22.8193 1271.4252)" class="st3" width="8.7" height="7.7"/>
</g>
<g>
	
		<rect x="568" y="628.6" transform="matrix(2.629454e-03 -1 1 2.629454e-03 -61.5784 1203.1639)" class="st3" width="8.7" height="7.7"/>
</g>
<g>
	
		<rect x="581.4" y="628.7" transform="matrix(2.629454e-03 -1 1 2.629454e-03 -48.3137 1216.6635)" class="st3" width="8.7" height="7.7"/>
</g>
<g>
	
		<rect x="594.8" y="628.7" transform="matrix(2.629454e-03 -1 1 2.629454e-03 -34.9489 1230.0635)" class="st3" width="8.7" height="7.7"/>
</g>
<g>
	
		<rect x="608.2" y="628.7" transform="matrix(2.629454e-03 -1 1 2.629454e-03 -21.5839 1243.4636)" class="st3" width="8.7" height="7.7"/>
</g>
<g>
	
		<rect x="621.6" y="628.8" transform="matrix(2.629454e-03 -1 1 2.629454e-03 -8.3192 1256.963)" class="st3" width="8.7" height="7.7"/>
</g>
<g>
	
		<rect x="568" y="614.1" transform="matrix(2.629454e-03 -1 1 2.629454e-03 -47.0783 1188.7018)" class="st3" width="8.7" height="7.7"/>
</g>
<g>
	
		<rect x="581.4" y="614.1" transform="matrix(2.629454e-03 -1 1 2.629454e-03 -33.7135 1202.1018)" class="st3" width="8.7" height="7.7"/>
</g>
<g>
	
		<rect x="594.8" y="614.2" transform="matrix(2.629454e-03 -1 1 2.629454e-03 -20.4487 1215.6014)" class="st3" width="8.7" height="7.7"/>
</g>
<g>
	
		<rect x="608.2" y="614.2" transform="matrix(2.629454e-03 -1 1 2.629454e-03 -7.0838 1229.0015)" class="st3" width="8.7" height="7.7"/>
</g>
<g>
	
		<rect x="621.7" y="614.3" transform="matrix(2.629454e-03 -1 1 2.629454e-03 6.2804 1242.6013)" class="st3" width="8.7" height="7.7"/>
</g>
<g>
	
		<rect x="568" y="599.6" transform="matrix(2.629454e-03 -1 1 2.629454e-03 -32.5782 1174.2399)" class="st3" width="8.7" height="7.7"/>
</g>
<g>
	
		<rect x="581.5" y="599.6" transform="matrix(2.629454e-03 -1 1 2.629454e-03 -19.1138 1187.7401)" class="st3" width="8.7" height="7.7"/>
</g>
<g>
	
		<rect x="594.9" y="599.7" transform="matrix(2.629454e-03 -1 1 2.629454e-03 -5.8493 1201.2396)" class="st3" width="8.7" height="7.7"/>
</g>
<g>
	
		<rect x="608.3" y="599.7" transform="matrix(2.629454e-03 -1 1 2.629454e-03 7.5158 1214.6398)" class="st3" width="8.7" height="7.7"/>
</g>
<g>
	
		<rect x="621.7" y="599.7" transform="matrix(2.629454e-03 -1 1 2.629454e-03 20.8807 1228.0398)" class="st3" width="8.7" height="7.7"/>
</g>
<g>
	
		<rect x="568.1" y="585.1" transform="matrix(2.629454e-03 -1 1 2.629454e-03 -17.9787 1159.8779)" class="st3" width="8.7" height="7.7"/>
</g>
<g>
	
		<rect x="581.5" y="585.1" transform="matrix(2.629454e-03 -1 1 2.629454e-03 -4.6137 1173.2782)" class="st3" width="8.7" height="7.7"/>
</g>
<g>
	
		<rect x="594.9" y="585.2" transform="matrix(2.629454e-03 -1 1 2.629454e-03 8.6509 1186.7776)" class="st3" width="8.7" height="7.7"/>
</g>
<g>
	
		<rect x="608.3" y="585.2" transform="matrix(2.629454e-03 -1 1 2.629454e-03 22.0158 1200.1776)" class="st3" width="8.7" height="7.7"/>
</g>
<g>
	
		<rect x="621.7" y="585.2" transform="matrix(2.629454e-03 -1 1 2.629454e-03 35.3808 1213.5779)" class="st3" width="8.7" height="7.7"/>
</g>
<g>
	
		<rect x="568.1" y="570.6" transform="matrix(2.629454e-03 -1 1 2.629454e-03 -3.4786 1145.416)" class="st3" width="8.7" height="7.7"/>
</g>
<g>
	
		<rect x="581.5" y="570.6" transform="matrix(2.629454e-03 -1 1 2.629454e-03 9.8863 1158.816)" class="st3" width="8.7" height="7.7"/>
</g>
<g>
	
		<rect x="594.9" y="570.7" transform="matrix(2.629454e-03 -1 1 2.629454e-03 23.1509 1172.3156)" class="st3" width="8.7" height="7.7"/>
</g>
<g>
	
		<rect x="608.4" y="570.7" transform="matrix(2.629454e-03 -1 1 2.629454e-03 36.6154 1185.8159)" class="st3" width="8.7" height="7.7"/>
</g>
<g>
	
		<rect x="621.8" y="570.7" transform="matrix(2.629454e-03 -1 1 2.629454e-03 49.9803 1199.2159)" class="st3" width="8.7" height="7.7"/>
</g>
<g>
	
		<rect x="568.2" y="556.1" transform="matrix(2.629454e-03 -1 1 2.629454e-03 11.121 1131.0541)" class="st3" width="8.7" height="7.7"/>
</g>
<g>
	
		<rect x="581.6" y="556.1" transform="matrix(2.629454e-03 -1 1 2.629454e-03 24.4859 1144.4543)" class="st3" width="8.7" height="7.7"/>
</g>
<g>
	
		<rect x="595" y="556.2" transform="matrix(2.629454e-03 -1 1 2.629454e-03 37.7505 1157.9539)" class="st3" width="8.7" height="7.7"/>
</g>
<g>
	
		<rect x="608.4" y="556.2" transform="matrix(2.629454e-03 -1 1 2.629454e-03 51.1155 1171.3538)" class="st3" width="8.7" height="7.7"/>
</g>
<g>
	
		<rect x="621.8" y="556.2" transform="matrix(2.629454e-03 -1 1 2.629454e-03 64.4804 1184.754)" class="st3" width="8.7" height="7.7"/>
</g>
<g>
	
		<rect x="568.2" y="541.6" transform="matrix(2.629454e-03 -1 1 2.629454e-03 25.621 1116.5922)" class="st3" width="8.7" height="7.7"/>
</g>
<g>
	
		<rect x="581.6" y="541.6" transform="matrix(2.629454e-03 -1 1 2.629454e-03 38.986 1129.9922)" class="st3" width="8.7" height="7.7"/>
</g>
<g>
	
		<rect x="595" y="541.6" transform="matrix(2.629454e-03 -1 1 2.629454e-03 52.3509 1143.3923)" class="st3" width="8.7" height="7.7"/>
</g>
<rect x="378.7" y="597.3" transform="matrix(2.629454e-03 -1 1 2.629454e-03 -197.3094 1097.7754)" class="st5" width="146" height="101"/>
<g>
	
		<rect x="414.1" y="695.7" transform="matrix(2.629454e-03 -1 1 2.629454e-03 -285.7226 1119.9301)" class="st3" width="9" height="15"/>
	
		<rect x="436.1" y="695.8" transform="matrix(2.629454e-03 -1 1 2.629454e-03 -263.8806 1142.0297)" class="st3" width="9" height="15"/>
</g>
<g>
	
		<rect x="414.2" y="673.7" transform="matrix(2.629454e-03 -1 1 2.629454e-03 -263.623 1098.0879)" class="st3" width="9" height="15"/>
	
		<rect x="436.2" y="673.8" transform="matrix(2.629454e-03 -1 1 2.629454e-03 -241.7808 1120.1875)" class="st3" width="9" height="15"/>
</g>
<g>
	
		<rect x="414.2" y="651.7" transform="matrix(2.629454e-03 -1 1 2.629454e-03 -241.6228 1076.1456)" class="st3" width="9" height="15"/>
	
		<rect x="436.2" y="651.8" transform="matrix(2.629454e-03 -1 1 2.629454e-03 -219.7807 1098.2451)" class="st3" width="9" height="15"/>
</g>
<g>
	
		<rect x="458.1" y="695.9" transform="matrix(2.629454e-03 -1 1 2.629454e-03 -242.0384 1164.1293)" class="st3" width="9" height="15"/>
	
		<rect x="480.1" y="695.9" transform="matrix(2.629454e-03 -1 1 2.629454e-03 -220.096 1186.1295)" class="st3" width="9" height="15"/>
</g>
<g>
	
		<rect x="458.2" y="673.9" transform="matrix(2.629454e-03 -1 1 2.629454e-03 -219.9388 1142.2872)" class="st3" width="9" height="15"/>
	
		<rect x="480.1" y="673.9" transform="matrix(2.629454e-03 -1 1 2.629454e-03 -198.0959 1164.187)" class="st3" width="9" height="15"/>
</g>
<g>
	
		<rect x="458.2" y="651.9" transform="matrix(2.629454e-03 -1 1 2.629454e-03 -197.9387 1120.3448)" class="st3" width="9" height="15"/>
	
		<rect x="480.2" y="651.9" transform="matrix(2.629454e-03 -1 1 2.629454e-03 -175.9962 1142.345)" class="st3" width="9" height="15"/>
</g>
<g>
	
		<rect x="414.3" y="629.7" transform="matrix(2.629454e-03 -1 1 2.629454e-03 -219.5232 1054.3033)" class="st3" width="9" height="15"/>
	
		<rect x="436.3" y="629.8" transform="matrix(2.629454e-03 -1 1 2.629454e-03 -197.6811 1076.4031)" class="st3" width="9" height="15"/>
</g>
<g>
	
		<rect x="458.3" y="629.9" transform="matrix(2.629454e-03 -1 1 2.629454e-03 -175.839 1098.5027)" class="st3" width="9" height="15"/>
	
		<rect x="480.3" y="629.9" transform="matrix(2.629454e-03 -1 1 2.629454e-03 -153.8967 1120.5028)" class="st3" width="9" height="15"/>
</g>
<g>
	
		<rect x="414.3" y="607.7" transform="matrix(2.629454e-03 -1 1 2.629454e-03 -197.5231 1032.3611)" class="st3" width="9" height="15"/>
	
		<rect x="436.3" y="607.8" transform="matrix(2.629454e-03 -1 1 2.629454e-03 -175.6809 1054.4606)" class="st3" width="9" height="15"/>
</g>
<g>
	
		<rect x="458.3" y="607.9" transform="matrix(2.629454e-03 -1 1 2.629454e-03 -153.8388 1076.5603)" class="st3" width="9" height="15"/>
	
		<rect x="480.3" y="607.9" transform="matrix(2.629454e-03 -1 1 2.629454e-03 -131.8965 1098.5605)" class="st3" width="9" height="15"/>
</g>
<g>
	
		<rect x="414.4" y="585.7" transform="matrix(2.629454e-03 -1 1 2.629454e-03 -175.4235 1010.5189)" class="st3" width="9" height="15"/>
	
		<rect x="436.4" y="585.8" transform="matrix(2.629454e-03 -1 1 2.629454e-03 -153.5813 1032.6185)" class="st3" width="9" height="15"/>
</g>
<g>
	
		<rect x="458.4" y="585.9" transform="matrix(2.629454e-03 -1 1 2.629454e-03 -131.7393 1054.7181)" class="st3" width="9" height="15"/>
</g>
<g>
	<g>
		<path class="st4" d="M442.8,558.3c1.4-0.9,2.5-1.7,3.3-2.4s1.4-1.3,1.8-1.9c0.4-0.6,0.5-1.2,0.5-1.7s-0.2-1-0.5-1.3
			s-0.8-0.5-1.3-0.5c-0.6,0-1.1,0.2-1.5,0.6c-0.4,0.4-0.6,1-0.6,1.8l-2-0.8c0.1-1.1,0.5-2,1.3-2.7c0.8-0.6,1.8-1,3-1
			c0.9,0,1.6,0.2,2.2,0.5c0.6,0.3,1.1,0.8,1.4,1.3c0.3,0.5,0.5,1.1,0.5,1.8c0,1.1-0.4,2-1.2,3c-0.8,0.9-2.1,1.9-3.8,3l0,0
			c0.7,0,1.3-0.1,2.1-0.1h3.1v1.9H443L442.8,558.3z"/>
		<path class="st4" d="M461,549.4c0.7,0.6,1,1.3,1,2.2c0,0.6-0.1,1-0.3,1.4s-0.5,0.7-0.8,0.9s-0.6,0.3-0.9,0.3v0.1
			c0.4,0,0.7,0.1,1.1,0.3s0.7,0.5,0.9,0.9s0.3,0.9,0.3,1.4c0,0.6-0.2,1.2-0.5,1.7c-0.4,0.5-0.9,0.9-1.5,1.1
			c-0.6,0.3-1.4,0.4-2.2,0.4c-1.1,0-2-0.2-2.7-0.7c-0.7-0.4-1.2-1.1-1.5-2.1l2.1-0.9c0.1,0.6,0.4,1.1,0.7,1.4
			c0.3,0.3,0.8,0.4,1.4,0.4c0.6,0,1-0.1,1.4-0.4c0.3-0.3,0.5-0.7,0.5-1.2s-0.2-0.9-0.5-1.1c-0.3-0.2-0.8-0.4-1.5-0.4h-0.6v-1.6h0.5
			c1.2,0,1.8-0.5,1.8-1.5c0-0.5-0.1-0.9-0.4-1.1c-0.3-0.3-0.7-0.4-1.2-0.4s-0.9,0.1-1.3,0.4c-0.3,0.3-0.5,0.7-0.6,1.2l-2.1-0.8
			c0.2-0.9,0.7-1.6,1.4-2s1.6-0.7,2.6-0.7C459.4,548.5,460.3,548.8,461,549.4z"/>
	</g>
</g>
<rect x="250.5" y="621.2" transform="matrix(2.629454e-03 -1 1 2.629454e-03 -338.8547 969.2577)" class="st5" width="132" height="66.6"/>
<rect x="311.9" y="693.9" transform="matrix(2.629454e-03 -1 1 2.629454e-03 -382.8542 1012.8423)" class="st3" width="8.9" height="8.9"/>
<rect x="294.3" y="670.5" transform="matrix(2.629454e-03 -1 1 2.629454e-03 -377.0081 971.9042)" class="st3" width="8.9" height="8.9"/>
<rect x="312" y="670.6" transform="matrix(2.629454e-03 -1 1 2.629454e-03 -359.4545 989.7037)" class="st3" width="8.9" height="8.9"/>
<rect x="329.8" y="670.6" transform="matrix(2.629454e-03 -1 1 2.629454e-03 -341.7014 1007.5038)" class="st3" width="8.9" height="8.9"/>
<rect x="294.3" y="647.2" transform="matrix(2.629454e-03 -1 1 2.629454e-03 -353.7079 948.6652)" class="st3" width="8.9" height="8.9"/>
<rect x="312.1" y="647.3" transform="matrix(2.629454e-03 -1 1 2.629454e-03 -336.055 966.565)" class="st3" width="8.9" height="8.9"/>
<rect x="329.8" y="647.3" transform="matrix(2.629454e-03 -1 1 2.629454e-03 -318.4012 984.265)" class="st3" width="8.9" height="8.9"/>
<rect x="294.4" y="623.9" transform="matrix(2.629454e-03 -1 1 2.629454e-03 -330.3083 925.5266)" class="st3" width="8.9" height="8.9"/>
<rect x="312.1" y="624" transform="matrix(2.629454e-03 -1 1 2.629454e-03 -312.7547 943.326)" class="st3" width="8.9" height="8.9"/>
<rect x="329.9" y="624" transform="matrix(2.629454e-03 -1 1 2.629454e-03 -295.0016 961.1263)" class="st3" width="8.9" height="8.9"/>
<rect x="294.4" y="600.6" transform="matrix(2.629454e-03 -1 1 2.629454e-03 -307.0081 902.2875)" class="st3" width="8.9" height="8.9"/>
<rect x="312.2" y="600.7" transform="matrix(2.629454e-03 -1 1 2.629454e-03 -289.3552 920.1874)" class="st3" width="8.9" height="8.9"/>
<rect x="329.9" y="600.7" transform="matrix(2.629454e-03 -1 1 2.629454e-03 -271.7014 937.8873)" class="st3" width="8.9" height="8.9"/>
<g>
	<g>
		<path class="st4" d="M312.9,564.3v11.2h-2.3v-8.4c0-0.2,0-0.3,0-0.4c-0.4,0.4-0.8,0.7-1.3,0.9c-0.5,0.3-0.9,0.4-1.4,0.5l-0.3-2
			c0.5-0.1,1.1-0.3,1.9-0.7c0.7-0.4,1.2-0.8,1.5-1.2L312.9,564.3z"/>
		<path class="st4" d="M323.5,565c0.7,0.6,1,1.3,1,2.2c0,0.6-0.1,1-0.3,1.4c-0.2,0.4-0.5,0.7-0.8,0.9s-0.6,0.3-0.9,0.3v0.1
			c0.4,0,0.7,0.1,1.1,0.3s0.7,0.5,0.9,0.9c0.2,0.4,0.3,0.9,0.3,1.4c0,0.6-0.2,1.2-0.5,1.7c-0.4,0.5-0.9,0.9-1.5,1.1
			c-0.6,0.3-1.4,0.4-2.2,0.4c-1.1,0-2-0.2-2.7-0.7c-0.7-0.4-1.2-1.1-1.5-2.1l2.1-0.9c0.1,0.6,0.4,1.1,0.7,1.4
			c0.3,0.3,0.8,0.4,1.4,0.4s1-0.1,1.4-0.4c0.3-0.3,0.5-0.7,0.5-1.2s-0.2-0.9-0.5-1.1c-0.3-0.2-0.8-0.4-1.5-0.4h-0.6v-1.6h0.5
			c1.2,0,1.8-0.5,1.8-1.5c0-0.5-0.1-0.9-0.4-1.1c-0.3-0.3-0.7-0.4-1.2-0.4s-0.9,0.1-1.3,0.4c-0.3,0.3-0.5,0.7-0.6,1.2l-2.1-0.8
			c0.2-0.9,0.7-1.6,1.4-2s1.6-0.7,2.6-0.7C321.9,564.2,322.9,564.5,323.5,565z"/>
	</g>
</g>
<g>
	<g>
		<path class="st4" d="M596.7,509.7c0.6,0.6,0.9,1.5,0.9,2.5c0,1.3-0.4,2.2-1.2,2.9s-1.8,1-3,1c-1,0-1.9-0.2-2.5-0.6
			c-0.7-0.4-1.2-1-1.7-1.8l2.1-1.2c0.1,0.6,0.4,1,0.7,1.3c0.3,0.3,0.8,0.4,1.4,0.4s1.1-0.2,1.5-0.5c0.4-0.3,0.5-0.8,0.5-1.4
			c0-0.6-0.2-1.1-0.5-1.4s-0.8-0.5-1.4-0.5c-0.9,0-1.6,0.3-2.1,0.8l-1.8-0.2l0.7-6.4h6.7v1.9h-5l-0.3,2.6l-0.1,0.3l0,0
			c0.2-0.3,0.6-0.5,1-0.6c0.4-0.1,0.9-0.2,1.4-0.2C595.2,508.7,596,509,596.7,509.7z"/>
		<path class="st4" d="M608,505.4c0.7,0.5,1.1,1.3,1.1,2.2c0,0.6-0.2,1.1-0.5,1.5s-0.7,0.8-1.3,1l0,0c0.7,0.2,1.2,0.6,1.6,1.1
			s0.5,1.1,0.5,1.7c0,1-0.4,1.7-1.2,2.3c-0.8,0.6-1.9,0.8-3.2,0.8c-1.3,0-2.4-0.3-3.2-0.9c-0.8-0.6-1.2-1.3-1.2-2.3
			c0-0.7,0.2-1.3,0.6-1.7c0.4-0.4,0.9-0.8,1.6-1.1l0,0c-0.5-0.2-1-0.5-1.3-1c-0.3-0.4-0.4-0.9-0.4-1.5c0-1,0.4-1.7,1.1-2.2
			s1.7-0.8,2.9-0.8C606.3,504.6,607.2,504.9,608,505.4z M606.6,513.9c0.4-0.3,0.5-0.7,0.5-1.2s-0.2-0.9-0.5-1.2
			c-0.3-0.3-0.9-0.4-1.5-0.4c-0.6,0-1.1,0.1-1.5,0.4c-0.4,0.3-0.6,0.7-0.6,1.2s0.2,0.9,0.6,1.2c0.4,0.3,0.9,0.4,1.5,0.4
			C605.7,514.3,606.2,514.2,606.6,513.9z M603.8,506.8c-0.3,0.3-0.5,0.6-0.5,1.1s0.2,0.8,0.5,1.1c0.3,0.3,0.7,0.4,1.2,0.4
			s1-0.1,1.3-0.4c0.3-0.3,0.5-0.6,0.5-1.1s-0.2-0.8-0.5-1.1c-0.3-0.3-0.7-0.4-1.3-0.4C604.5,506.4,604.1,506.5,603.8,506.8z"/>
	</g>
</g>
<g>
	<g>
		<path class="st4" d="M203.4,583v11.2h-2.3v-8.4c0-0.2,0-0.3,0-0.4c-0.4,0.4-0.8,0.7-1.3,0.9c-0.5,0.3-0.9,0.4-1.4,0.5l-0.3-2
			c0.5-0.1,1.1-0.3,1.9-0.7c0.7-0.4,1.2-0.8,1.5-1.2L203.4,583z"/>
		<path class="st4" d="M208.3,593c-0.8-1-1.1-2.4-1.1-4.3c0-1.9,0.4-3.3,1.1-4.3c0.8-1,1.9-1.5,3.4-1.5s2.6,0.5,3.4,1.5
			s1.1,2.4,1.1,4.3c0,1.9-0.4,3.3-1.1,4.3c-0.8,1-1.9,1.5-3.4,1.5C210.1,594.4,209,593.9,208.3,593z M213.2,591.6
			c0.4-0.6,0.5-1.6,0.5-2.9c0-1.3-0.2-2.3-0.5-2.9c-0.3-0.6-0.9-1-1.6-1s-1.3,0.3-1.6,0.9s-0.5,1.6-0.5,2.9c0,1.3,0.2,2.3,0.5,2.9
			c0.4,0.6,0.9,1,1.6,1C212.3,592.6,212.9,592.2,213.2,591.6z"/>
	</g>
</g>
<rect x="437.4" y="586.9" transform="matrix(2.629454e-03 -1 1 2.629454e-03 -358.1498 1230.7125)" class="st5" width="1" height="416"/>
<g>
	<path class="st5" d="M186.6,796.6c1.1-0.7,1.9-1.3,2.5-1.8s1.1-1,1.3-1.5c0.3-0.5,0.4-0.9,0.4-1.3c0-0.4-0.1-0.7-0.4-1
		s-0.6-0.4-1-0.4c-0.5,0-0.9,0.2-1.1,0.5c-0.3,0.3-0.4,0.8-0.5,1.4l-1.5-0.6c0.1-0.9,0.4-1.5,1-2s1.3-0.7,2.3-0.7
		c0.7,0,1.2,0.1,1.7,0.4c0.5,0.3,0.8,0.6,1,1s0.3,0.9,0.3,1.4c0,0.8-0.3,1.6-0.9,2.3c-0.6,0.7-1.6,1.5-2.9,2.3l0,0c0.5,0,1,0,1.6,0
		h2.4v1.4h-6.2L186.6,796.6z"/>
	<path class="st5" d="M196,796.8c-0.6-0.7-0.9-1.8-0.9-3.3s0.3-2.6,0.9-3.3c0.6-0.7,1.4-1.1,2.6-1.1s2,0.4,2.6,1.1
		c0.6,0.7,0.9,1.8,0.9,3.3s-0.3,2.6-0.9,3.3s-1.4,1.1-2.6,1.1S196.6,797.6,196,796.8z M199.8,795.8c0.3-0.5,0.4-1.2,0.4-2.2
		s-0.1-1.8-0.4-2.2s-0.7-0.7-1.2-0.7c-0.6,0-1,0.2-1.2,0.7c-0.3,0.5-0.4,1.2-0.4,2.2s0.1,1.8,0.4,2.2c0.3,0.5,0.7,0.7,1.2,0.7
		S199.5,796.3,199.8,795.8z"/>
	<path class="st5" d="M208.2,789.3v8.6h-1.7v-6.4c0-0.1,0-0.2,0-0.3c-0.3,0.3-0.6,0.5-1,0.7s-0.7,0.3-1.1,0.4l-0.2-1.5
		c0.4,0,0.9-0.2,1.4-0.5c0.6-0.3,0.9-0.6,1.2-0.9L208.2,789.3z"/>
	<path class="st5" d="M216.8,790.3c0.6,0.8,0.9,1.9,0.9,3.3c0,1.5-0.3,2.6-0.9,3.3s-1.5,1.1-2.6,1.1c-0.8,0-1.4-0.2-1.9-0.5
		s-0.9-0.8-1.1-1.4l1.7-0.7c0.1,0.4,0.3,0.7,0.5,0.9s0.5,0.3,1,0.3c0.6,0,1.1-0.2,1.4-0.8c0.3-0.5,0.5-1.2,0.5-2.2v-0.2H216
		c-0.1,0.4-0.4,0.8-0.8,1c-0.4,0.2-0.9,0.3-1.4,0.3s-1-0.1-1.4-0.3s-0.8-0.5-1-1c-0.2-0.4-0.4-0.9-0.4-1.5c0-0.9,0.3-1.6,0.9-2.1
		c0.6-0.5,1.4-0.8,2.3-0.8C215.3,789.2,216.2,789.6,216.8,790.3z M213.1,791c-0.3,0.2-0.4,0.6-0.4,1s0.1,0.8,0.4,1
		c0.3,0.2,0.6,0.4,1.1,0.4c0.4,0,0.8-0.1,1.1-0.4c0.3-0.2,0.4-0.6,0.4-1s-0.1-0.8-0.4-1c-0.3-0.3-0.6-0.4-1.1-0.4
		C213.7,790.6,213.4,790.8,213.1,791z"/>
</g>
<text transform="matrix(1 0 0 1 36.9999 425.1743)" class="st1 st6 st7">2017</text>
</svg>
