<svg id="Layer_1" data-name="Layer 1" xmlns="http://www.w3.org/2000/svg" viewBox="0 0 1343 441.48438"><defs><style>.cls-1{fill:#e6e6e5;}.cls-19,.cls-2{fill:#4380a3;}.cls-19,.cls-20,.cls-3{font-size:13px;letter-spacing:0.08em;}.cls-3{fill:#4b4a4a;}.cls-17,.cls-18,.cls-19,.cls-20,.cls-3{font-family:WorkSans-SemiBold, Work Sans;font-weight:600;}.cls-4{letter-spacing:0.061em;}.cls-5{letter-spacing:0.05901em;}.cls-6{letter-spacing:0.05104em;}.cls-7{letter-spacing:0.06802em;}.cls-8{letter-spacing:0.05604em;}.cls-9{letter-spacing:0.02002em;}.cls-10{letter-spacing:0.072em;}.cls-11{letter-spacing:0.05101em;}.cls-12{letter-spacing:0.05803em;}.cls-13{letter-spacing:0.056em;}.cls-14{letter-spacing:0.08004em;}.cls-15{fill:#fcfaf7;}.cls-16,.cls-20{fill:#80aabc;}.cls-17,.cls-18{font-size:17px;fill:#0b4a60;}.cls-17{letter-spacing:0.07996em;}.cls-18{letter-spacing:0.08002em;}</style></defs><title>chart-development</title><rect class="cls-1" y="314.04395" width="1343" height="1"/><rect class="cls-2" x="74" y="433.04395" width="728" height="1"/><text class="cls-3" transform="translate(35.80249 343.36462)">WE<tspan class="cls-4" x="23.10107" y="0">S</tspan><tspan class="cls-5" x="32.25293" y="0">T</tspan><tspan x="-0.39648" y="18">SOM</tspan><tspan class="cls-6" x="32.28516" y="18">A</tspan></text><text class="cls-3" transform="translate(127.20587 343.36462)">MISSION</text><text class="cls-3" transform="translate(258.34656 343.36462)">NO<tspan class="cls-7" x="21.31982" y="0">R</tspan><tspan x="31.04395" y="0">TH</tspan><tspan x="0.9624" y="18">BE</tspan><tspan class="cls-8" x="20.00732" y="18">A</tspan><tspan x="29.4585" y="18">CH</tspan></text><text class="cls-3" transform="translate(381.00549 343.36462)">SOM<tspan class="cls-6" x="32.68164" y="0">A</tspan><tspan x="-25.68164" y="18">SOUTH </tspan><tspan class="cls-9" x="29.68506" y="18">P</tspan><tspan x="38.34326" y="18">AR</tspan><tspan class="cls-10" x="57.98584" y="18">K</tspan></text><text class="cls-3" transform="translate(511.07727 343.36462)">VENICE<tspan x="2.43115" y="18">BE</tspan><tspan class="cls-8" x="21.47607" y="18">A</tspan><tspan x="30.92725" y="18">CH</tspan></text><text class="cls-3" transform="translate(693.36145 343.36462)">MARIN<tspan class="cls-11" x="47.96973" y="0">A</tspan><tspan x="9.71094" y="18">A</tspan><tspan class="cls-7" x="19.47363" y="18">R</tspan><tspan class="cls-4" x="29.19775" y="18">T</tspan><tspan x="38.24561" y="18">S</tspan></text><text class="cls-3" transform="translate(852.18713 343.36462)">TENDER<tspan class="cls-12" x="58.74658" y="0">L</tspan><tspan x="67.31396" y="0">OIN</tspan></text><text class="cls-3" transform="translate(995.35706 343.36462)">NO<tspan class="cls-9" x="21.31982" y="0">P</tspan><tspan class="cls-11" x="29.97803" y="0">A</tspan></text><text class="cls-3" transform="translate(1098.20813 343.36462)">ALAMO<tspan x="-3.67236" y="18">SQ</tspan><tspan class="cls-13" x="16.39941" y="18">U</tspan><tspan class="cls-14" x="26.42236" y="18">ARE</tspan></text><text class="cls-3" transform="translate(1229.60559 343.36462)">MISSION<tspan x="5.94043" y="18">NO</tspan><tspan class="cls-7" x="27.26025" y="18">R</tspan><tspan x="36.98438" y="18">TH</tspan></text><rect class="cls-2" x="372" y="195.04395" width="60" height="119"/><rect class="cls-2" x="30" y="233.04395" width="51" height="81"/><rect class="cls-15" x="40" y="289.04395" width="10.94595" height="15"/><rect class="cls-15" x="60.05405" y="289.04395" width="10.94595" height="15"/><rect class="cls-15" x="40" y="267.04395" width="10.94595" height="15"/><rect class="cls-15" x="60.05405" y="267.04395" width="10.94595" height="15"/><rect class="cls-15" x="40" y="245.04395" width="10.94595" height="15"/><rect class="cls-15" x="60.05405" y="245.04395" width="10.94595" height="15"/><rect class="cls-16" x="991" y="201.98512" width="45" height="112.05882"/><rect class="cls-15" x="999.82353" y="291.98512" width="9.65819" height="13.23529"/><rect class="cls-15" x="1017.51828" y="291.98512" width="9.65819" height="13.23529"/><rect class="cls-15" x="999.82353" y="272.57336" width="9.65819" height="13.23529"/><rect class="cls-15" x="1017.51828" y="272.57336" width="9.65819" height="13.23529"/><rect class="cls-15" x="999.82353" y="253.16159" width="9.65819" height="13.23529"/><rect class="cls-15" x="1017.51828" y="253.16159" width="9.65819" height="13.23529"/><rect class="cls-15" x="999.82353" y="233.74983" width="9.65819" height="13.23529"/><rect class="cls-15" x="1017.51828" y="233.74983" width="9.65819" height="13.23529"/><rect class="cls-15" x="999.82353" y="214.33806" width="9.65819" height="13.23529"/><rect class="cls-15" x="1017.51828" y="214.33806" width="9.65819" height="13.23529"/><rect class="cls-16" x="852" y="124.86747" width="84" height="189.17647"/><rect class="cls-15" x="863.29412" y="294.89418" width="7.72655" height="8.70444"/><rect class="cls-15" x="876.70588" y="294.89418" width="7.72655" height="8.70444"/><rect class="cls-15" x="890.11765" y="294.89418" width="7.72655" height="8.70444"/><rect class="cls-15" x="903.52941" y="294.89418" width="7.72655" height="8.70444"/><rect class="cls-15" x="916.94118" y="294.89418" width="7.72655" height="8.70444"/><rect class="cls-15" x="863.29412" y="280.38678" width="7.72655" height="8.70444"/><rect class="cls-15" x="876.70588" y="280.38678" width="7.72655" height="8.70444"/><rect class="cls-15" x="890.11765" y="280.38678" width="7.72655" height="8.70444"/><rect class="cls-15" x="903.52941" y="280.38678" width="7.72655" height="8.70444"/><rect class="cls-15" x="916.94118" y="280.38678" width="7.72655" height="8.70444"/><rect class="cls-15" x="863.29412" y="265.87938" width="7.72655" height="8.70444"/><rect class="cls-15" x="876.70588" y="265.87938" width="7.72655" height="8.70444"/><rect class="cls-15" x="890.11765" y="265.87938" width="7.72655" height="8.70444"/><rect class="cls-15" x="903.52941" y="265.87938" width="7.72655" height="8.70444"/><rect class="cls-15" x="916.94118" y="265.87938" width="7.72655" height="8.70444"/><rect class="cls-15" x="863.29412" y="251.37199" width="7.72655" height="8.70444"/><rect class="cls-15" x="876.70588" y="251.37199" width="7.72655" height="8.70444"/><rect class="cls-15" x="890.11765" y="251.37199" width="7.72655" height="8.70444"/><rect class="cls-15" x="903.52941" y="251.37199" width="7.72655" height="8.70444"/><rect class="cls-15" x="916.94118" y="251.37199" width="7.72655" height="8.70444"/><rect class="cls-15" x="863.29412" y="236.86459" width="7.72655" height="8.70444"/><rect class="cls-15" x="876.70588" y="236.86459" width="7.72655" height="8.70444"/><rect class="cls-15" x="890.11765" y="236.86459" width="7.72655" height="8.70444"/><rect class="cls-15" x="903.52941" y="236.86459" width="7.72655" height="8.70444"/><rect class="cls-15" x="916.94118" y="236.86459" width="7.72655" height="8.70444"/><rect class="cls-15" x="863.29412" y="222.35719" width="7.72655" height="8.70444"/><rect class="cls-15" x="876.70588" y="222.35719" width="7.72655" height="8.70444"/><rect class="cls-15" x="890.11765" y="222.35719" width="7.72655" height="8.70444"/><rect class="cls-15" x="903.52941" y="222.35719" width="7.72655" height="8.70444"/><rect class="cls-15" x="916.94118" y="222.35719" width="7.72655" height="8.70444"/><rect class="cls-15" x="863.29412" y="207.84979" width="7.72655" height="8.70444"/><rect class="cls-15" x="876.70588" y="207.84979" width="7.72655" height="8.70444"/><rect class="cls-15" x="890.11765" y="207.84979" width="7.72655" height="8.70444"/><rect class="cls-15" x="903.52941" y="207.84979" width="7.72655" height="8.70444"/><rect class="cls-15" x="916.94118" y="207.84979" width="7.72655" height="8.70444"/><rect class="cls-15" x="863.29412" y="193.34239" width="7.72655" height="8.70444"/><rect class="cls-15" x="876.70588" y="193.34239" width="7.72655" height="8.70444"/><rect class="cls-15" x="890.11765" y="193.34239" width="7.72655" height="8.70444"/><rect class="cls-15" x="903.52941" y="193.34239" width="7.72655" height="8.70444"/><rect class="cls-15" x="916.94118" y="193.34239" width="7.72655" height="8.70444"/><rect class="cls-15" x="863.29412" y="178.835" width="7.72655" height="8.70444"/><rect class="cls-15" x="876.70588" y="178.835" width="7.72655" height="8.70444"/><rect class="cls-15" x="890.11765" y="178.835" width="7.72655" height="8.70444"/><rect class="cls-15" x="903.52941" y="178.835" width="7.72655" height="8.70444"/><rect class="cls-15" x="916.94118" y="178.835" width="7.72655" height="8.70444"/><rect class="cls-15" x="863.29412" y="164.3276" width="7.72655" height="8.70444"/><rect class="cls-15" x="876.70588" y="164.3276" width="7.72655" height="8.70444"/><rect class="cls-15" x="890.11765" y="164.3276" width="7.72655" height="8.70444"/><rect class="cls-15" x="903.52941" y="164.3276" width="7.72655" height="8.70444"/><rect class="cls-15" x="916.94118" y="164.3276" width="7.72655" height="8.70444"/><rect class="cls-15" x="863.29412" y="149.8202" width="7.72655" height="8.70444"/><rect class="cls-15" x="876.70588" y="149.8202" width="7.72655" height="8.70444"/><rect class="cls-15" x="890.11765" y="149.8202" width="7.72655" height="8.70444"/><rect class="cls-15" x="903.52941" y="149.8202" width="7.72655" height="8.70444"/><rect class="cls-15" x="916.94118" y="149.8202" width="7.72655" height="8.70444"/><rect class="cls-15" x="863.29412" y="135.3128" width="7.72655" height="8.70444"/><rect class="cls-15" x="876.70588" y="135.3128" width="7.72655" height="8.70444"/><rect class="cls-15" x="890.11765" y="135.3128" width="7.72655" height="8.70444"/><polygon class="cls-2" points="318 314.044 248 314.044 248 211.044 302.054 211.044 302 234.044 318 234.044 318 314.044"/><rect class="cls-15" x="258" y="289.04395" width="10.94595" height="15"/><rect class="cls-15" x="278.05405" y="289.04395" width="10.94595" height="15"/><rect class="cls-15" x="258" y="267.04395" width="10.94595" height="15"/><rect class="cls-15" x="278.05405" y="267.04395" width="10.94595" height="15"/><rect class="cls-15" x="258" y="245.04395" width="10.94595" height="15"/><rect class="cls-15" x="278.05405" y="245.04395" width="10.94595" height="15"/><rect class="cls-15" x="258" y="223.04395" width="10.94595" height="15"/><rect class="cls-15" x="278.05405" y="223.04395" width="10.94595" height="15"/><rect class="cls-15" x="298.05405" y="289.04395" width="10.94595" height="15"/><rect class="cls-15" x="298.05405" y="267.04395" width="10.94595" height="15"/><rect class="cls-15" x="298.05405" y="245.04395" width="10.94595" height="15"/><rect class="cls-2" x="109" y="190.04395" width="101" height="124"/><rect class="cls-15" x="119" y="292.04395" width="15" height="9"/><rect class="cls-15" x="141" y="292.04395" width="15" height="9"/><rect class="cls-15" x="119" y="270.04395" width="15" height="9"/><rect class="cls-15" x="141" y="270.04395" width="15" height="9"/><rect class="cls-15" x="119" y="248.04395" width="15" height="9"/><rect class="cls-15" x="141" y="248.04395" width="15" height="9"/><rect class="cls-15" x="163" y="292.04395" width="15" height="9"/><rect class="cls-15" x="185" y="292.04395" width="15" height="9"/><rect class="cls-15" x="163" y="270.04395" width="15" height="9"/><rect class="cls-15" x="185" y="270.04395" width="15" height="9"/><rect class="cls-15" x="163" y="248.04395" width="15" height="9"/><rect class="cls-15" x="185" y="248.04395" width="15" height="9"/><rect class="cls-15" x="119" y="226.04395" width="15" height="9"/><rect class="cls-15" x="141" y="226.04395" width="15" height="9"/><rect class="cls-15" x="163" y="226.04395" width="15" height="9"/><rect class="cls-15" x="185" y="226.04395" width="15" height="9"/><rect class="cls-15" x="119" y="204.04395" width="15" height="9"/><rect class="cls-15" x="141" y="204.04395" width="15" height="9"/><rect class="cls-15" x="163" y="204.04395" width="15" height="9"/><rect class="cls-15" x="185" y="204.04395" width="15" height="9"/><polygon class="cls-2" points="589 314.044 488 314.044 488 148.044 523 148.044 523 172.044 589 172.044 589 314.044"/><rect class="cls-15" x="498" y="292.04395" width="15" height="9"/><rect class="cls-15" x="520" y="292.04395" width="15" height="9"/><rect class="cls-15" x="498" y="270.04395" width="15" height="9"/><rect class="cls-15" x="520" y="270.04395" width="15" height="9"/><rect class="cls-15" x="498" y="248.04395" width="15" height="9"/><rect class="cls-15" x="520" y="248.04395" width="15" height="9"/><rect class="cls-15" x="542" y="292.04395" width="15" height="9"/><rect class="cls-15" x="564" y="292.04395" width="15" height="9"/><rect class="cls-15" x="542" y="270.04395" width="15" height="9"/><rect class="cls-15" x="564" y="270.04395" width="15" height="9"/><rect class="cls-15" x="542" y="248.04395" width="15" height="9"/><rect class="cls-15" x="564" y="248.04395" width="15" height="9"/><rect class="cls-15" x="498" y="226.04395" width="15" height="9"/><rect class="cls-15" x="520" y="226.04395" width="15" height="9"/><rect class="cls-15" x="542" y="226.04395" width="15" height="9"/><rect class="cls-15" x="564" y="226.04395" width="15" height="9"/><rect class="cls-15" x="498" y="204.04395" width="15" height="9"/><rect class="cls-15" x="520" y="204.04395" width="15" height="9"/><rect class="cls-15" x="542" y="204.04395" width="15" height="9"/><rect class="cls-15" x="564" y="204.04395" width="15" height="9"/><rect class="cls-15" x="498" y="182.04395" width="15" height="9"/><rect class="cls-15" x="520" y="182.04395" width="15" height="9"/><rect class="cls-15" x="498" y="182.04395" width="15" height="9"/><rect class="cls-15" x="520" y="182.04395" width="15" height="9"/><rect class="cls-15" x="498" y="160.04395" width="15" height="9"/><rect class="cls-15" x="542" y="182.04395" width="15" height="9"/><rect class="cls-15" x="564" y="182.04395" width="15" height="9"/><rect class="cls-15" x="382" y="290.04395" width="8" height="8"/><rect class="cls-15" x="398" y="290.04395" width="8" height="8"/><rect class="cls-15" x="414" y="290.04395" width="8" height="8"/><rect class="cls-15" x="382" y="269.04395" width="8" height="8"/><rect class="cls-15" x="398" y="269.04395" width="8" height="8"/><rect class="cls-15" x="414" y="269.04395" width="8" height="8"/><rect class="cls-15" x="382" y="248.04395" width="8" height="8"/><rect class="cls-15" x="398" y="248.04395" width="8" height="8"/><rect class="cls-15" x="414" y="248.04395" width="8" height="8"/><rect class="cls-15" x="382" y="227.04395" width="8" height="8"/><rect class="cls-15" x="398" y="227.04395" width="8" height="8"/><rect class="cls-15" x="414" y="227.04395" width="8" height="8"/><rect class="cls-15" x="382" y="206.04395" width="8" height="8"/><rect class="cls-15" x="398" y="206.04395" width="8" height="8"/><rect class="cls-15" x="414" y="206.04395" width="8" height="8"/><rect class="cls-2" x="641" y="32.04395" width="161" height="282"/><rect class="cls-15" x="655" y="290.04395" width="8" height="8"/><rect class="cls-15" x="669" y="290.04395" width="8" height="8"/><rect class="cls-15" x="683" y="290.04395" width="8" height="8"/><rect class="cls-15" x="697" y="290.04395" width="8" height="8"/><rect class="cls-15" x="711" y="290.04395" width="8" height="8"/><rect class="cls-15" x="725" y="290.04395" width="8" height="8"/><rect class="cls-15" x="739" y="290.04395" width="8" height="8"/><rect class="cls-15" x="753" y="290.04395" width="8" height="8"/><rect class="cls-15" x="767" y="290.04395" width="8" height="8"/><rect class="cls-15" x="781" y="290.04395" width="8" height="8"/><rect class="cls-15" x="655" y="270.04395" width="8" height="8"/><rect class="cls-15" x="669" y="270.04395" width="8" height="8"/><rect class="cls-15" x="683" y="270.04395" width="8" height="8"/><rect class="cls-15" x="697" y="270.04395" width="8" height="8"/><rect class="cls-15" x="711" y="270.04395" width="8" height="8"/><rect class="cls-15" x="725" y="270.04395" width="8" height="8"/><rect class="cls-15" x="739" y="270.04395" width="8" height="8"/><rect class="cls-15" x="753" y="270.04395" width="8" height="8"/><rect class="cls-15" x="767" y="270.04395" width="8" height="8"/><rect class="cls-15" x="781" y="270.04395" width="8" height="8"/><rect class="cls-15" x="655" y="250.04395" width="8" height="8"/><rect class="cls-15" x="669" y="250.04395" width="8" height="8"/><rect class="cls-15" x="683" y="250.04395" width="8" height="8"/><rect class="cls-15" x="697" y="250.04395" width="8" height="8"/><rect class="cls-15" x="711" y="250.04395" width="8" height="8"/><rect class="cls-15" x="725" y="250.04395" width="8" height="8"/><rect class="cls-15" x="739" y="250.04395" width="8" height="8"/><rect class="cls-15" x="753" y="250.04395" width="8" height="8"/><rect class="cls-15" x="767" y="250.04395" width="8" height="8"/><rect class="cls-15" x="781" y="250.04395" width="8" height="8"/><rect class="cls-15" x="655" y="230.04395" width="8" height="8"/><rect class="cls-15" x="669" y="230.04395" width="8" height="8"/><rect class="cls-15" x="683" y="230.04395" width="8" height="8"/><rect class="cls-15" x="697" y="230.04395" width="8" height="8"/><rect class="cls-15" x="711" y="230.04395" width="8" height="8"/><rect class="cls-15" x="725" y="230.04395" width="8" height="8"/><rect class="cls-15" x="739" y="230.04395" width="8" height="8"/><rect class="cls-15" x="753" y="230.04395" width="8" height="8"/><rect class="cls-15" x="767" y="230.04395" width="8" height="8"/><rect class="cls-15" x="781" y="230.04395" width="8" height="8"/><rect class="cls-15" x="655" y="210.04395" width="8" height="8"/><rect class="cls-15" x="669" y="210.04395" width="8" height="8"/><rect class="cls-15" x="683" y="210.04395" width="8" height="8"/><rect class="cls-15" x="697" y="210.04395" width="8" height="8"/><rect class="cls-15" x="711" y="210.04395" width="8" height="8"/><rect class="cls-15" x="725" y="210.04395" width="8" height="8"/><rect class="cls-15" x="739" y="210.04395" width="8" height="8"/><rect class="cls-15" x="753" y="210.04395" width="8" height="8"/><rect class="cls-15" x="767" y="210.04395" width="8" height="8"/><rect class="cls-15" x="781" y="210.04395" width="8" height="8"/><rect class="cls-15" x="655" y="190.04395" width="8" height="8"/><rect class="cls-15" x="669" y="190.04395" width="8" height="8"/><rect class="cls-15" x="683" y="190.04395" width="8" height="8"/><rect class="cls-15" x="697" y="190.04395" width="8" height="8"/><rect class="cls-15" x="711" y="190.04395" width="8" height="8"/><rect class="cls-15" x="725" y="190.04395" width="8" height="8"/><rect class="cls-15" x="739" y="190.04395" width="8" height="8"/><rect class="cls-15" x="753" y="190.04395" width="8" height="8"/><rect class="cls-15" x="767" y="190.04395" width="8" height="8"/><rect class="cls-15" x="781" y="190.04395" width="8" height="8"/><rect class="cls-15" x="655" y="170.04395" width="8" height="8"/><rect class="cls-15" x="669" y="170.04395" width="8" height="8"/><rect class="cls-15" x="683" y="170.04395" width="8" height="8"/><rect class="cls-15" x="697" y="170.04395" width="8" height="8"/><rect class="cls-15" x="711" y="170.04395" width="8" height="8"/><rect class="cls-15" x="725" y="170.04395" width="8" height="8"/><rect class="cls-15" x="739" y="170.04395" width="8" height="8"/><rect class="cls-15" x="753" y="170.04395" width="8" height="8"/><rect class="cls-15" x="767" y="170.04395" width="8" height="8"/><rect class="cls-15" x="781" y="170.04395" width="8" height="8"/><rect class="cls-15" x="655" y="150.04395" width="8" height="8"/><rect class="cls-15" x="669" y="150.04395" width="8" height="8"/><rect class="cls-15" x="683" y="150.04395" width="8" height="8"/><rect class="cls-15" x="697" y="150.04395" width="8" height="8"/><rect class="cls-15" x="711" y="150.04395" width="8" height="8"/><rect class="cls-15" x="725" y="150.04395" width="8" height="8"/><rect class="cls-15" x="739" y="150.04395" width="8" height="8"/><rect class="cls-15" x="753" y="150.04395" width="8" height="8"/><rect class="cls-15" x="767" y="150.04395" width="8" height="8"/><rect class="cls-15" x="781" y="150.04395" width="8" height="8"/><rect class="cls-15" x="655" y="130.04395" width="8" height="8"/><rect class="cls-15" x="669" y="130.04395" width="8" height="8"/><rect class="cls-15" x="683" y="130.04395" width="8" height="8"/><rect class="cls-15" x="697" y="130.04395" width="8" height="8"/><rect class="cls-15" x="711" y="130.04395" width="8" height="8"/><rect class="cls-15" x="725" y="130.04395" width="8" height="8"/><rect class="cls-15" x="739" y="130.04395" width="8" height="8"/><rect class="cls-15" x="753" y="130.04395" width="8" height="8"/><rect class="cls-15" x="767" y="130.04395" width="8" height="8"/><rect class="cls-15" x="781" y="130.04395" width="8" height="8"/><rect class="cls-15" x="655" y="110.04395" width="8" height="8"/><rect class="cls-15" x="669" y="110.04395" width="8" height="8"/><rect class="cls-15" x="683" y="110.04395" width="8" height="8"/><rect class="cls-15" x="697" y="110.04395" width="8" height="8"/><rect class="cls-15" x="711" y="110.04395" width="8" height="8"/><rect class="cls-15" x="725" y="110.04395" width="8" height="8"/><rect class="cls-15" x="739" y="110.04395" width="8" height="8"/><rect class="cls-15" x="753" y="110.04395" width="8" height="8"/><rect class="cls-15" x="767" y="110.04395" width="8" height="8"/><rect class="cls-15" x="781" y="110.04395" width="8" height="8"/><rect class="cls-15" x="655" y="90.04395" width="8" height="8"/><rect class="cls-15" x="669" y="90.04395" width="8" height="8"/><rect class="cls-15" x="683" y="90.04395" width="8" height="8"/><rect class="cls-15" x="697" y="90.04395" width="8" height="8"/><rect class="cls-15" x="711" y="90.04395" width="8" height="8"/><rect class="cls-15" x="725" y="90.04395" width="8" height="8"/><rect class="cls-15" x="739" y="90.04395" width="8" height="8"/><rect class="cls-15" x="753" y="90.04395" width="8" height="8"/><rect class="cls-15" x="767" y="90.04395" width="8" height="8"/><rect class="cls-15" x="781" y="90.04395" width="8" height="8"/><rect class="cls-15" x="655" y="70.04395" width="8" height="8"/><rect class="cls-15" x="669" y="70.04395" width="8" height="8"/><rect class="cls-15" x="683" y="70.04395" width="8" height="8"/><rect class="cls-15" x="697" y="70.04395" width="8" height="8"/><rect class="cls-15" x="711" y="70.04395" width="8" height="8"/><rect class="cls-15" x="725" y="70.04395" width="8" height="8"/><rect class="cls-15" x="739" y="70.04395" width="8" height="8"/><rect class="cls-15" x="753" y="70.04395" width="8" height="8"/><rect class="cls-15" x="767" y="70.04395" width="8" height="8"/><rect class="cls-15" x="781" y="70.04395" width="8" height="8"/><rect class="cls-15" x="669" y="50.04395" width="8" height="8"/><rect class="cls-15" x="683" y="50.04395" width="8" height="8"/><rect class="cls-15" x="697" y="50.04395" width="8" height="8"/><rect class="cls-15" x="711" y="50.04395" width="8" height="8"/><rect class="cls-15" x="725" y="50.04395" width="8" height="8"/><rect class="cls-15" x="739" y="50.04395" width="8" height="8"/><rect class="cls-15" x="753" y="50.04395" width="8" height="8"/><rect class="cls-15" x="767" y="50.04395" width="8" height="8"/><text class="cls-17" transform="translate(46.19629 219.11035)">10</text><text class="cls-18" transform="translate(148.81055 175.11035)">20</text><rect class="cls-16" x="1207" y="168.04395" width="101" height="146"/><rect class="cls-15" x="1217" y="292.04395" width="15" height="9"/><rect class="cls-15" x="1239" y="292.04395" width="15" height="9"/><rect class="cls-15" x="1217" y="270.04395" width="15" height="9"/><rect class="cls-15" x="1239" y="270.04395" width="15" height="9"/><rect class="cls-15" x="1217" y="248.04395" width="15" height="9"/><rect class="cls-15" x="1239" y="248.04395" width="15" height="9"/><rect class="cls-15" x="1261" y="292.04395" width="15" height="9"/><rect class="cls-15" x="1283" y="292.04395" width="15" height="9"/><rect class="cls-15" x="1261" y="270.04395" width="15" height="9"/><rect class="cls-15" x="1283" y="270.04395" width="15" height="9"/><rect class="cls-15" x="1261" y="248.04395" width="15" height="9"/><rect class="cls-15" x="1283" y="248.04395" width="15" height="9"/><rect class="cls-15" x="1217" y="226.04395" width="15" height="9"/><rect class="cls-15" x="1239" y="226.04395" width="15" height="9"/><rect class="cls-15" x="1261" y="226.04395" width="15" height="9"/><rect class="cls-15" x="1283" y="226.04395" width="15" height="9"/><rect class="cls-15" x="1217" y="204.04395" width="15" height="9"/><rect class="cls-15" x="1239" y="204.04395" width="15" height="9"/><rect class="cls-15" x="1261" y="204.04395" width="15" height="9"/><rect class="cls-15" x="1283" y="204.04395" width="15" height="9"/><rect class="cls-15" x="1217" y="182.04395" width="15" height="9"/><rect class="cls-15" x="1239" y="182.04395" width="15" height="9"/><rect class="cls-15" x="1261" y="182.04395" width="15" height="9"/><text class="cls-18" transform="translate(1247.20996 153.11035)">23</text><text class="cls-17" transform="translate(274.96387 195.11035)">11</text><text class="cls-17" transform="translate(392.65527 179.11035)">15</text><rect class="cls-16" x="1089" y="182.04395" width="66.55462" height="132"/><rect class="cls-15" x="1117.84034" y="287.4221" width="8.87395" height="8.87395"/><rect class="cls-15" x="1100.09244" y="264.12798" width="8.87395" height="8.87395"/><rect class="cls-15" x="1117.84034" y="264.12798" width="8.87395" height="8.87395"/><rect class="cls-15" x="1135.58824" y="264.12798" width="8.87395" height="8.87395"/><rect class="cls-15" x="1100.09244" y="240.83386" width="8.87395" height="8.87395"/><rect class="cls-15" x="1117.84034" y="240.83386" width="8.87395" height="8.87395"/><rect class="cls-15" x="1135.58824" y="240.83386" width="8.87395" height="8.87395"/><rect class="cls-15" x="1100.09244" y="217.53974" width="8.87395" height="8.87395"/><rect class="cls-15" x="1117.84034" y="217.53974" width="8.87395" height="8.87395"/><rect class="cls-15" x="1135.58824" y="217.53974" width="8.87395" height="8.87395"/><rect class="cls-15" x="1100.09244" y="194.24563" width="8.87395" height="8.87395"/><rect class="cls-15" x="1117.84034" y="194.24563" width="8.87395" height="8.87395"/><rect class="cls-15" x="1135.58824" y="194.24563" width="8.87395" height="8.87395"/><text class="cls-17" transform="translate(1112.5957 169.11035)">13</text><text class="cls-18" transform="translate(529.5957 129.11035)">31</text><text class="cls-17" transform="translate(706.60352 14.11035)">128</text><text class="cls-18" transform="translate(882.99805 110.11035)">58</text><text class="cls-17" transform="translate(1003.19629 188.11035)">10</text><text class="cls-19" transform="translate(29.79321 437.07672)">2018</text><rect class="cls-16" x="896" y="433.04395" width="416" height="1"/><text class="cls-20" transform="translate(851.79321 437.07672)">2019</text></svg>