<svg id="Layer_1" data-name="Layer 1" xmlns="http://www.w3.org/2000/svg" viewBox="0 0 505.48593 431.30168"><defs><style>.cls-1{fill:#fcfaf7;}.cls-2{font-size:13px;font-family:WorkSans-SemiBold, Work Sans;font-weight:600;}.cls-2,.cls-21{fill:#0b4a60;}.cls-3{letter-spacing:0.05604em;}.cls-4{letter-spacing:0.08em;}.cls-5{fill:#5e5e5e;font-family:WorkSans-Regular, Work Sans;font-weight:400;}.cls-6{letter-spacing:-0.01101em;}.cls-7{letter-spacing:-0.01499em;}.cls-8{letter-spacing:-0.00004em;}.cls-9{letter-spacing:0.061em;}.cls-10{letter-spacing:0.07302em;}.cls-11{letter-spacing:-0.04297em;}.cls-12{letter-spacing:0.04601em;}.cls-13{letter-spacing:0.05101em;}.cls-14{letter-spacing:0.07997em;}.cls-15{letter-spacing:-0.03001em;}.cls-16{letter-spacing:0.07399em;}.cls-17{letter-spacing:0.056em;}.cls-18{letter-spacing:-0.01502em;}.cls-19{letter-spacing:-0.09296em;}.cls-20{fill:#b79a73;}.cls-22{fill:#4380a3;}.cls-23{fill:#e8dbcd;}.cls-24{fill:#ceb79b;}.cls-25{fill:#fff;}</style></defs><title>chart-space-sacrifice</title><rect class="cls-1" width="505.48593" height="431.30168"/><text class="cls-2" transform="translate(65.66166 380.29115)"><tspan class="cls-3">A<tspan class="cls-4" x="9.45117" y="0">GREE</tspan></tspan><tspan class="cls-5"><tspan x="0" y="18">3</tspan><tspan class="cls-6" x="7.5791" y="18">4</tspan><tspan class="cls-7" x="15.37891" y="18">.</tspan><tspan class="cls-8" x="18.64209" y="18">6%</tspan></tspan></text><text class="cls-2" transform="translate(12.4661 108.46124)"><tspan class="cls-9">S<tspan class="cls-4" x="9.15186" y="0">T</tspan><tspan class="cls-10" x="18.44678" y="0">R</tspan><tspan class="cls-4" x="28.23584" y="0">ONG</tspan><tspan class="cls-11" x="59.99463" y="0">L</tspan><tspan class="cls-12" x="67.24902" y="0">Y</tspan><tspan class="cls-13" x="75.98486" y="0"> </tspan><tspan class="cls-3" x="80.62598" y="0">A</tspan><tspan class="cls-14" x="90.07715" y="0">GREE</tspan></tspan><tspan class="cls-5"><tspan class="cls-15" x="0" y="18">2</tspan><tspan class="cls-6" x="7.18896" y="18">4</tspan><tspan x="14.98877" y="18">.5%</tspan></tspan></text><text class="cls-2" transform="translate(264.56687 43.47841)"><tspan class="cls-9">S<tspan class="cls-4" x="9.15186" y="0">T</tspan><tspan class="cls-10" x="18.44678" y="0">R</tspan><tspan class="cls-4" x="28.23584" y="0">ONG</tspan><tspan class="cls-11" x="59.99463" y="0">L</tspan><tspan class="cls-12" x="67.24902" y="0">Y</tspan><tspan class="cls-4" x="75.98486" y="0" xml:space="preserve"> DI</tspan><tspan class="cls-16" x="96.45996" y="0">S</tspan><tspan class="cls-17" x="105.78076" y="0">A</tspan><tspan class="cls-4" x="115.23145" y="0">GREE</tspan></tspan><tspan class="cls-5"><tspan x="0" y="18">5</tspan><tspan class="cls-18" x="7.56592" y="18">.</tspan><tspan x="10.82861" y="18">6%</tspan></tspan></text><text class="cls-2" transform="translate(424.92448 293.42838)"><tspan class="cls-4">NEUTRA<tspan class="cls-17" x="59.18848" y="0">L</tspan></tspan><tspan class="cls-5"><tspan class="cls-15" x="0" y="18">2</tspan><tspan class="cls-6" x="7.18896" y="18">4</tspan><tspan class="cls-19" x="14.98877" y="18">.</tspan><tspan x="17.23828" y="18">1%</tspan></tspan></text><text class="cls-2" transform="translate(377.49992 104.38348)"><tspan class="cls-4">DI<tspan class="cls-16" x="15.45703" y="0">S</tspan><tspan class="cls-3" x="24.77783" y="0">A</tspan><tspan x="34.229" y="0">GREE</tspan></tspan><tspan class="cls-5"><tspan x="0" y="18">11.2%</tspan></tspan></text><circle class="cls-20" cx="246.26024" cy="242.49543" r="151"/><path class="cls-21" d="M149.68134,261.992c-.05566,1.68567-.094,3.37573-.094,5.075a151.00952,151.00952,0,0,0,233.59717,126.415L301.08735,266.567Z" transform="translate(-54.32711 -24.57152)"/><path class="cls-22" d="M300.58735,116.067A150.99833,150.99833,0,0,0,149.65449,262.70251L301.08735,266.567Z" transform="translate(-54.32711 -24.57152)"/><path class="cls-23" d="M353.50141,125.608a150.6579,150.6579,0,0,0-52.91406-9.541l.5,150.5Z" transform="translate(-54.32711 -24.57152)"/><path class="cls-24" d="M353.55175,125.55451,299.88194,266.3726l132.21239-73.27068A151.33028,151.33028,0,0,0,353.55175,125.55451Z" transform="translate(-54.32711 -24.57152)"/><circle class="cls-25" cx="246.26024" cy="242.49543" r="102.17271"/></svg>