<svg id="Layer_1" data-name="Layer 1" xmlns="http://www.w3.org/2000/svg" viewBox="0 0 605.5 636.5"><defs><style>.cls-1{fill:#fcfaf7;}.cls-2{font-size:20px;}.cls-17,.cls-18,.cls-2,.cls-24{fill:#4b4a4a;}.cls-18,.cls-2{font-family:WorkSans-SemiBold, Work Sans;font-weight:600;}.cls-3{letter-spacing:-0.00598em;}.cls-4{letter-spacing:-0.01599em;}.cls-5{letter-spacing:-0.00701em;}.cls-6{letter-spacing:-0.004em;}.cls-7{letter-spacing:-0.02397em;}.cls-8{letter-spacing:-0.021em;}.cls-9{letter-spacing:0.00796em;}.cls-10{letter-spacing:0.00098em;}.cls-11{letter-spacing:-0.02em;}.cls-12{letter-spacing:-0.00999em;}.cls-13{letter-spacing:-0.01299em;}.cls-14{letter-spacing:0.00801em;}.cls-15{fill:#e6e6e5;}.cls-16{fill:#4380a3;}.cls-17{font-size:16px;}.cls-17,.cls-24{font-family:WorkSans-Regular, Work Sans;}.cls-18{font-size:13px;letter-spacing:0.08em;}.cls-19{letter-spacing:0.061em;}.cls-20{letter-spacing:-0.00894em;}.cls-21{letter-spacing:0.07302em;}.cls-22{letter-spacing:0.07103em;}.cls-23{letter-spacing:-0.06598em;}.cls-24{font-size:18px;}.cls-25{letter-spacing:-0.00898em;}.cls-26{letter-spacing:-0.01999em;}.cls-27{letter-spacing:-0.00003em;}.cls-28{fill:#0b4a60;}.cls-29{letter-spacing:-0.02899em;}.cls-30{letter-spacing:-0.02496em;}.cls-31{letter-spacing:-0.04004em;}.cls-32{letter-spacing:0.00003em;}.cls-33{letter-spacing:-0.02301em;}.cls-34{letter-spacing:-0.00003em;}.cls-35{letter-spacing:-0.01996em;}.cls-36{letter-spacing:-0.01501em;}.cls-37{letter-spacing:-0.00699em;}.cls-38{letter-spacing:-0.01596em;}.cls-39{letter-spacing:-0.02499em;}.cls-40{letter-spacing:-0.02298em;}.cls-41{letter-spacing:-0.015em;}.cls-42{letter-spacing:-0.00697em;}.cls-43{letter-spacing:-0.00499em;}.cls-44{fill:#a4cee0;}</style></defs><title>chart-housing-growth</title><rect class="cls-1" width="605.5" height="636.5"/><text class="cls-2" transform="translate(32.41846 53.32031)"><tspan class="cls-3">H</tspan><tspan x="14.66016" y="0">ousing d</tspan><tspan class="cls-4" x="97.65918" y="0">e</tspan><tspan class="cls-5" x="108.979" y="0">v</tspan><tspan x="119.75879" y="0">elopme</tspan><tspan class="cls-6" x="192.97754" y="0">n</tspan><tspan x="205.27734" y="0">t does n</tspan><tspan class="cls-3" x="285.396" y="0">o</tspan><tspan x="297.35596" y="0">t </tspan><tspan class="cls-7" x="312.05566" y="0">k</tspan><tspan x="323.61572" y="0">eep up</tspan><tspan class="cls-8" x="390.55469" y="0"> </tspan><tspan x="396.25488" y="0">wi</tspan><tspan class="cls-9" x="419.6748" y="0">t</tspan><tspan x="428.41406" y="0">h </tspan><tspan x="0" y="24">popu</tspan><tspan class="cls-10" x="49.61963" y="24">l</tspan><tspan class="cls-11" x="56.01904" y="24">a</tspan><tspan x="67.09912" y="24">tion and job g</tspan><tspan class="cls-12" x="202.05713" y="24">r</tspan><tspan class="cls-13" x="210.29736" y="24">o</tspan><tspan x="222.11719" y="24">w</tspan><tspan class="cls-14" x="239.89697" y="24">t</tspan><tspan x="248.63672" y="24">h</tspan></text><rect class="cls-15" x="58.5" y="197" width="522" height="1"/><rect class="cls-16" x="34.5" width="338" height="1"/><rect class="cls-15" x="58.5" y="271.5" width="522" height="1"/><rect class="cls-15" x="58.5" y="346" width="522" height="1"/><rect class="cls-15" x="58.5" y="420.5" width="522" height="1"/><rect class="cls-15" x="58.5" y="495" width="522" height="1"/><text class="cls-17" transform="translate(30.92236 202.32031)">10</text><text class="cls-18" transform="translate(12.26587 381.81543) rotate(-90)">MILLIONS</text><text class="cls-18" transform="translate(142.96851 518.32068)">2010</text><text class="cls-18" transform="translate(305.31958 518.32068)">2015<tspan x="-24.85596" y="18">E</tspan><tspan class="cls-19" x="-15.58691" y="18">S</tspan><tspan x="-6.43506" y="18">TIM</tspan><tspan class="cls-20" x="20.53955" y="18">A</tspan><tspan x="29.146" y="18">TED</tspan></text><text class="cls-18" transform="translate(467.63599 518.32068)">2040<tspan x="-25.0835" y="18">P</tspan><tspan class="cls-21" x="-15.64551" y="18">R</tspan><tspan x="-5.85645" y="18">OJ</tspan><tspan class="cls-22" x="13.66943" y="18">E</tspan><tspan x="22.82178" y="18">CTED</tspan></text><text class="cls-17" transform="translate(25.93115 277.32031)"><tspan class="cls-23">7</tspan><tspan x="7.91992" y="0">.5</tspan></text><text class="cls-17" transform="translate(38.10693 351.32031)">5</text><text class="cls-17" transform="translate(24.52295 425.32031)">2.5</text><text class="cls-17" transform="translate(37.46631 498.32031)">0</text><text class="cls-24" transform="translate(117.41846 589.32031)"><tspan class="cls-25">P</tspan><tspan x="10.81787" y="0">opul</tspan><tspan class="cls-26" x="49.75146" y="0">a</tspan><tspan class="cls-27" x="59.57959" y="0">tion</tspan></text><rect class="cls-28" x="91.5" y="576" width="14" height="14"/><text class="cls-17" transform="translate(32.41846 115.32031)">B<tspan class="cls-29" x="10.44824" y="0">a</tspan><tspan class="cls-30" x="19.04004" y="0">y</tspan><tspan class="cls-31" x="27.2002" y="0"> </tspan><tspan class="cls-32" x="32.01563" y="0">A</tspan><tspan class="cls-4" x="42.57568" y="0">r</tspan><tspan x="48.84766" y="0">e</tspan><tspan class="cls-33" x="58.14355" y="0">a</tspan><tspan class="cls-34" x="66.83154" y="0" xml:space="preserve"> popul</tspan><tspan class="cls-35" x="116.97461" y="0">a</tspan><tspan class="cls-34" x="125.71094" y="0">tion, empl</tspan><tspan class="cls-36" x="205.5332" y="0">o</tspan><tspan class="cls-32" x="215.021" y="0">yme</tspan><tspan class="cls-37" x="248.12451" y="0">n</tspan><tspan x="257.9165" y="0">t, and housing</tspan><tspan x="0" y="24">2040 p</tspan><tspan class="cls-38" x="54.54297" y="24">r</tspan><tspan class="cls-34" x="60.81543" y="24">ojections and base</tspan><tspan class="cls-39" x="208.95654" y="24"> </tspan><tspan x="214.0127" y="24">yea</tspan><tspan class="cls-40" x="240.92383" y="24">r</tspan></text><text class="cls-24" transform="translate(268.41846 589.32031)">Empl<tspan class="cls-41" x="45.48535" y="0">o</tspan><tspan x="56.15918" y="0">yme</tspan><tspan class="cls-42" x="93.40039" y="0">n</tspan><tspan x="104.4165" y="0">t</tspan></text><rect class="cls-16" x="240.5" y="576" width="14" height="14"/><text class="cls-24" transform="translate(436.41846 589.32031)"><tspan class="cls-25">H</tspan><tspan class="cls-27" x="13.05029" y="0">ousing </tspan><tspan class="cls-43" x="76.5708" y="0">U</tspan><tspan x="89.44092" y="0">nits</tspan></text><rect class="cls-44" x="409.5" y="576" width="14" height="14"/><rect class="cls-28" x="108.5" y="284" width="33.875" height="211"/><rect class="cls-16" x="142.375" y="395" width="33.875" height="100"/><rect class="cls-44" x="176.25" y="414" width="33.875" height="81"/><rect class="cls-44" x="338.76" y="412" width="33.875" height="83"/><rect class="cls-44" x="502.625" y="389" width="33.875" height="106"/><rect class="cls-16" x="304.885" y="377" width="33.875" height="118"/><rect class="cls-16" x="468.75" y="357" width="33.875" height="138"/><rect class="cls-28" x="271.01" y="270" width="33.875" height="225"/><rect class="cls-28" x="434.875" y="213" width="33.875" height="282"/></svg>