<?xml version="1.0" encoding="utf-8"?>
<!-- Generator: Adobe Illustrator 23.0.1, SVG Export Plug-In . SVG Version: 6.00 Build 0)  -->
<svg version="1.1" id="Layer_1" xmlns="http://www.w3.org/2000/svg" xmlns:xlink="http://www.w3.org/1999/xlink" x="0px" y="0px"
	 viewBox="0 0 17 14" style="enable-background:new 0 0 17 14;" xml:space="preserve">
<style type="text/css">
	.st0{fill:#4381A4;}
</style>
<path class="st0" d="M10.8,0.8H6.2C4,0.8,2.3,2.5,2.3,4.7v4.7c0,2.1,1.7,3.9,3.9,3.9h4.7c2.1,0,3.9-1.7,3.9-3.9V4.7
	C14.7,2.5,13,0.8,10.8,0.8z M13.5,9.3c0,1.5-1.2,2.7-2.7,2.7H6.2c-1.5,0-2.7-1.2-2.7-2.7V4.7C3.5,3.2,4.7,2,6.2,2h4.7
	c1.5,0,2.7,1.2,2.7,2.7V9.3z"/>
<path class="st0" d="M8.5,3.9C6.8,3.9,5.4,5.3,5.4,7c0,1.7,1.4,3.1,3.1,3.1c1.7,0,3.1-1.4,3.1-3.1C11.6,5.3,10.2,3.9,8.5,3.9z
	 M8.5,8.9C7.4,8.9,6.6,8.1,6.6,7c0-1.1,0.9-1.9,1.9-1.9c1.1,0,1.9,0.9,1.9,1.9C10.4,8.1,9.6,8.9,8.5,8.9z"/>
<path class="st0" d="M11.8,4.1c0.2,0,0.4-0.2,0.4-0.4c0-0.2-0.2-0.4-0.4-0.4c-0.2,0-0.4,0.2-0.4,0.4C11.4,3.9,11.6,4.1,11.8,4.1z"/>
</svg>
