<?xml version="1.0" encoding="utf-8"?>
<!-- Generator: Adobe Illustrator 23.0.1, SVG Export Plug-In . SVG Version: 6.00 Build 0)  -->
<svg version="1.1" id="Layer_1" xmlns="http://www.w3.org/2000/svg" xmlns:xlink="http://www.w3.org/1999/xlink" x="0px" y="0px"
	 viewBox="0 0 17 14" style="enable-background:new 0 0 17 14;" xml:space="preserve">
<style type="text/css">
	.st0{fill:#4381A4;}
</style>
<path class="st0" d="M15.6,8.6v5.1h-2.9V8.9c0-1.2-0.4-2-1.5-2C10.3,7,9.9,7.5,9.7,8C9.6,8.2,9.6,8.5,9.6,8.7v4.9h-3c0,0,0-8,0-8.8
	h2.9V6l0,0l0,0l0,0c0.4-0.5,1.1-1.4,2.7-1.4C14.1,4.6,15.6,5.9,15.6,8.6z M3.6,0.6c-1,0-1.7,0.7-1.7,1.5c0,0.9,0.6,1.5,1.6,1.5l0,0
	c1,0,1.7-0.7,1.7-1.5C5.2,1.3,4.6,0.6,3.6,0.6z M2.1,13.7H5V4.8H2.1V13.7z"/>
</svg>
