<?xml version="1.0" encoding="utf-8"?>
<!-- Generator: Adobe Illustrator 23.0.1, SVG Export Plug-In . SVG Version: 6.00 Build 0)  -->
<svg version="1.1" id="Layer_1" xmlns="http://www.w3.org/2000/svg" xmlns:xlink="http://www.w3.org/1999/xlink" x="0px" y="0px"
	 viewBox="0 0 17 14" style="enable-background:new 0 0 17 14;" xml:space="preserve">
<style type="text/css">
	.st0{fill-rule:evenodd;clip-rule:evenodd;fill:#4381A4;}
</style>
<path class="st0" d="M14.8,1.5c-0.5,0.3-1.1,0.5-1.8,0.7c-0.5-0.5-1.2-0.9-2-0.9c-1.5,0-2.8,1.2-2.8,2.8c0,0.2,0,0.4,0.1,0.6
	C6,4.6,4,3.5,2.6,1.8C2.4,2.3,2.2,2.7,2.2,3.2c0,1,0.5,1.8,1.2,2.3C3,5.5,2.6,5.4,2.2,5.2v0c0,1.3,1,2.5,2.2,2.7C4.2,8,3.9,8,3.7,8
	C3.5,8,3.3,8,3.2,8c0.4,1.1,1.4,1.9,2.6,1.9c-0.9,0.7-2.1,1.2-3.4,1.2c-0.2,0-0.4,0-0.7,0c1.2,0.8,2.7,1.2,4.2,1.2
	c5.1,0,7.9-4.2,7.9-7.9c0-0.1,0-0.2,0-0.4c0.5-0.4,1-0.9,1.4-1.4c-0.5,0.2-1,0.4-1.6,0.4C14.2,2.7,14.6,2.2,14.8,1.5z"/>
</svg>
