<svg width="85" height="38" viewBox="0 0 85 38" fill="none" xmlns="http://www.w3.org/2000/svg">
<path d="M81.8508 0C82.0112 0.221774 82.6528 0.665322 82.6528 1.10887C82.6528 1.55242 82.332 2.66129 82.0112 2.66129C80.5675 3.10483 79.1239 3.32661 77.6802 3.54838C73.1888 4.2137 68.5369 5.1008 64.0455 5.76612C60.9978 6.20967 57.95 6.65322 55.0627 7.09676C50.5712 7.76209 45.9194 8.64918 41.428 9.53628C35.9741 10.4234 30.5202 11.3105 25.2267 12.6411C18.4896 14.4153 11.7525 16.633 5.01532 18.629C3.73205 19.0726 2.44879 19.5161 1.16552 19.7379C0.844707 19.9596 0.363483 19.2943 0.0426664 18.8508C-0.117742 18.629 0.203074 17.7419 0.523891 17.5201C1.00512 17.0766 1.64675 16.633 2.12797 16.4113C11.1108 14.1935 19.9333 11.754 28.9161 9.53628C33.568 8.42741 38.2198 7.09676 43.032 6.20967C47.8443 5.32257 52.8169 4.87902 57.7896 4.2137C60.5165 3.77016 63.0831 3.32661 65.81 2.88306C69.0182 2.43951 72.2263 1.77419 75.2741 1.33064C77.3594 0.887095 79.4447 0.443548 81.8508 0Z" transform="translate(4.44952) rotate(12.9987)" fill="#D8D8D8"/>
</svg>
