<?xml version="1.0" encoding="utf-8"?>
<!-- Generator: Adobe Illustrator 23.0.1, SVG Export Plug-In . SVG Version: 6.00 Build 0)  -->
<svg version="1.1" id="Layer_1" xmlns="http://www.w3.org/2000/svg" xmlns:xlink="http://www.w3.org/1999/xlink" x="0px" y="0px"
	 viewBox="0 0 205.7 47" style="enable-background:new 0 0 205.7 47;" xml:space="preserve">
<style type="text/css">
	.st0{fill:#D8D8D8;stroke:#D8D8D8;stroke-width:0.9789;}
</style>
<path class="st0" d="M148.6,17.9c-1.7,3.4-4.9,3.6-6.9,2.6c-3.4-1.6-6.8-1.5-10.1-1.5c-13.5-0.2-27-0.3-40.5,0
	c-10,0.3-20,1.6-30.1,2.1c-5.2,0.3-10,1.5-14.2,5c-0.4-3.3-0.1-4.2,2.1-4.8c3.1-0.9,6.4-1.9,9.6-2.1c12-0.6,24-0.9,36-1.4
	c6.1-0.2,12.2-0.5,18.2-0.6c7.2,0,14.4,0.2,21.6,0.2c3.8,0,7.5-0.1,11.3-0.1C146.6,17.5,147.5,17.8,148.6,17.9z"/>
<path class="st0" d="M67.7,28.2c0.7-1.3,0.9-2.3,1.3-2.3c8.3-1.1,16.7-2,25.1-1.7c0,0.4,0.1,0.7,0.1,1.1c-2.1,0.3-4.2,0.6-6.4,0.9
	c-5.2,0.7-10.3,1.5-15.5,2.1C71,28.4,69.7,28.2,67.7,28.2z"/>
<path class="st0" d="M118.2,22.6c6,0,11.9,0,18.7,0c-1.8,2.8-3.8,3-5.7,2.8c-4-0.3-8.1-0.7-12.1-1.2c-0.4,0-0.8-0.4-1.2-0.6
	C117.9,23.2,118,22.9,118.2,22.6z"/>
<path class="st0" d="M98.4,23.5c5.2-0.2,10.4-0.5,15.6-0.7c0,0.4,0,0.9,0.1,1.3c-5.2,0.3-10.4,0.5-15.6,0.8
	C98.4,24.5,98.4,24,98.4,23.5z"/>
</svg>
