<?xml version="1.0" encoding="utf-8"?>
<!-- Generator: Adobe Illustrator 22.1.0, SVG Export Plug-In . SVG Version: 6.00 Build 0)  -->
<svg version="1.1" id="Layer_1" xmlns="http://www.w3.org/2000/svg" xmlns:xlink="http://www.w3.org/1999/xlink" x="0px" y="0px"
	 viewBox="0 0 248.7 28.3" style="enable-background:new 0 0 248.7 28.3;" xml:space="preserve">
<style type="text/css">
	.st0{fill:#4A4A4A;stroke:#4A4A4A;stroke-linecap:round;stroke-miterlimit:10;}
</style>
<g>
	<path class="st0" d="M139.3,6.9c1.5-1.1,3.3-0.4,4.9-0.4c3.9,0,7.9,0.4,11.8,0.7c0.5,0,0.9,0.2,1.4,0.6
		C151.2,7.4,145.2,7.1,139.3,6.9C139.2,6.8,139.3,6.9,139.3,6.9z"/>
	<path class="st0" d="M130.9,6.4c-2.5,0.2-5,0.5-7.5,0.6c-2.8,0.1-5.6,0.1-8.4-0.1c1.2-0.1,2.4-0.3,3.6-0.3
		C122.6,6.5,126.7,6.5,130.9,6.4L130.9,6.4z"/>
	<path class="st0" d="M101.4,7.8c-0.3,0.1-0.5,0.3-0.8,0.3c-4.4,0.4-8.9,0.8-13.3,1.3c0-0.1,0-0.3-0.1-0.4c1.3-0.2,2.6-0.4,3.9-0.6
		c2.7-0.3,5.5-0.5,8.2-0.7C100.1,7.6,100.8,7.8,101.4,7.8L101.4,7.8z"/>
	<path class="st0" d="M227.7,14.6c1.1-0.1,2.3-0.4,3.4-0.3c2.2,0.1,4.5-0.1,6.7,0.8l0-0.1c-0.7,0.1-1.4,0.2-2,0.2
		C233.1,15,230.4,14.8,227.7,14.6C227.7,14.5,227.7,14.6,227.7,14.6z"/>
	<path class="st0" d="M237.8,15.1c3.3-0.5,6.5,0.3,9.7,0.9c-1.3,0-2.6,0-3.8-0.1C241.7,15.6,239.8,15.3,237.8,15.1
		C237.8,15,237.8,15.1,237.8,15.1z"/>
	<path class="st0" d="M101.5,7.9c2.2-0.7,4.4-0.7,6.6-0.5C105.9,7.8,103.7,8,101.5,7.9C101.4,7.8,101.5,7.9,101.5,7.9z"/>
	<path class="st0" d="M225.7,14c-0.4,0.2-0.8,0.4-1.2,0.4c-1.8,0.1-3.5,0.1-5.3,0.1l0,0c0.4-0.8,1-0.8,1.8-0.8
		C222.6,13.9,224.2,14,225.7,14L225.7,14z"/>
	<path class="st0" d="M72.4,10.6c1.8-0.2,3.5-0.4,5.3-0.6c0,0.1,0,0.3,0,0.4c-1.8,0.2-3.5,0.4-5.3,0.6
		C72.5,10.9,72.4,10.8,72.4,10.6z"/>
	<path class="st0" d="M201,12.4c-2.2-0.1-4.5-0.2-6.7-0.4l0,0c1.6-0.9,3.1,0.1,4.7,0C199.7,12,200.4,12.3,201,12.4L201,12.4z"/>
	<path class="st0" d="M35,16.1c1.4-0.3,2.7-0.6,4.1-0.9c0,0.1,0.1,0.3,0.1,0.4C37.8,16.1,36.4,16.1,35,16.1z"/>
	<path class="st0" d="M133.4,6.7c2-0.5,3.9-0.9,5.8,0.1c0,0,0,0,0,0C137.3,6.8,135.3,6.7,133.4,6.7C133.4,6.7,133.4,6.7,133.4,6.7z"
		/>
	<path class="st0" d="M201.1,12.5c1.5,0.1,2.9,0.1,4.4,0.2c0,0.1,0,0.3,0,0.4C203.9,13.2,202.4,13.2,201.1,12.5
		C201,12.4,201.1,12.5,201.1,12.5z"/>
	<path class="st0" d="M219.2,14.5c-0.7-0.2-1.4-0.3-2.2-0.4c-0.7-0.1-1.3-0.1-2.3-0.2C216.5,13.3,218.2,13.6,219.2,14.5
		C219.2,14.5,219.2,14.5,219.2,14.5z"/>
	<path class="st0" d="M178.9,10.1c-0.8-0.1-1.7-0.2-2.5-0.4c0-0.1,0-0.3,0.1-0.4c0.8,0.1,1.6,0.3,2.5,0.4
		C178.9,9.9,178.9,10,178.9,10.1z"/>
	<path class="st0" d="M165.8,8.5c-0.8-0.1-1.6-0.1-2.5-0.2c0-0.1,0-0.3,0-0.4c0.8,0.1,1.6,0.2,2.5,0.3
		C165.8,8.3,165.8,8.4,165.8,8.5z"/>
	<path class="st0" d="M194.3,12.1c-1.1-0.2-2.3-0.4-3.4-0.5C192.1,11.5,193.3,11.3,194.3,12.1C194.4,12.1,194.3,12.1,194.3,12.1z"/>
	<path class="st0" d="M23.1,18.6c-0.7,0.2-1.4,0.4-2.1,0.6c0-0.2-0.1-0.3-0.1-0.5c0.8-0.2,1.5-0.3,2.3-0.5
		C23.1,18.3,23.1,18.5,23.1,18.6z"/>
	<path class="st0" d="M209.7,13.1c-0.9,0.6-1.7,0.5-3.1-0.1C208,13.1,208.9,13.1,209.7,13.1L209.7,13.1z"/>
	<path class="st0" d="M28.2,17.5c-0.6,0.1-1.2,0.2-1.7,0.4c0,0,0,0,0-0.1c0.6-0.2,1.1-0.3,1.7-0.5C28.2,17.4,28.2,17.5,28.2,17.5z"
		/>
	<path class="st0" d="M183.6,10.2c0.6,0.1,1.2,0.2,1.8,0.3c0,0.1,0,0.3-0.1,0.4c-0.6-0.1-1.2-0.2-1.8-0.3
		C183.5,10.5,183.6,10.4,183.6,10.2z"/>
	<path class="st0" d="M43.3,15c-0.6,0.1-1.1,0.2-1.7,0.3c0-0.1-0.1-0.2-0.1-0.4c0.6-0.1,1.1-0.3,1.7-0.4
		C43.3,14.7,43.3,14.8,43.3,15z"/>
	<path class="st0" d="M47.8,14.2c0.8-0.2,1.6-0.5,2.4-0.7c0,0.1,0.1,0.3,0.1,0.4C49.5,14,48.7,14,47.8,14.2L47.8,14.2z"/>
	<path class="st0" d="M52.3,13.3c0.7-0.1,1.3-0.2,2-0.3c0,0.1,0,0.2,0.1,0.3c-0.7,0.1-1.3,0.2-2,0.3C52.3,13.5,52.3,13.4,52.3,13.3z
		"/>
	<path class="st0" d="M5.6,22.1c-0.5,0.2-0.9,0.3-1.4,0.5c0-0.1,0-0.2-0.1-0.2C4.5,22.1,5,22,5.5,21.9C5.5,22,5.5,22,5.6,22.1z"/>
	<path class="st0" d="M209.7,13.2c0.7,0.1,1.4,0.2,2.5,0.3C211,14,210.3,13.8,209.7,13.2C209.7,13.1,209.7,13.2,209.7,13.2z"/>
	<path class="st0" d="M47.8,14.1c-0.6,0.2-1.3,0.4-1.9,0.6c0-0.1-0.1-0.3-0.1-0.4C46.5,14.1,47.1,13.7,47.8,14.1
		C47.8,14.2,47.8,14.1,47.8,14.1z"/>
	<path class="st0" d="M130.9,6.4c0.9-0.1,1.8-0.6,2.5,0.3c0,0,0-0.1,0-0.1C132.6,6.6,131.7,6.5,130.9,6.4
		C130.9,6.4,130.9,6.4,130.9,6.4z"/>
	<path class="st0" d="M11.8,20.3c0.3-0.1,0.6-0.2,0.9-0.3c0,0.2,0.1,0.3,0.1,0.5c-0.3,0.1-0.6,0.1-0.9,0.2
		C11.9,20.6,11.8,20.4,11.8,20.3z"/>
	<path class="st0" d="M65.1,11.9c-0.2,0.1-0.5,0.1-0.7,0.2c-0.1-0.2-0.1-0.4-0.2-0.6c0.3,0,0.5,0,0.8,0C65,11.7,65,11.8,65.1,11.9z"
		/>
	<path class="st0" d="M70.5,11.3c-0.3,0.1-0.6,0.2-0.9,0.2c0-0.1-0.1-0.3-0.1-0.4c0.2-0.1,0.4-0.1,0.6-0.2c0.1,0,0.3,0,0.4,0
		C70.4,11.1,70.4,11.2,70.5,11.3z"/>
	<path class="st0" d="M81,10c0,0-0.3,0-0.6,0c0-0.1-0.1-0.2-0.1-0.3C80.7,9.8,81,10,81,10z"/>
	<path class="st0" d="M225.7,14c0.7,0,1.5-0.2,2,0.6c0,0,0,0,0,0C227.1,14.4,226.4,14.2,225.7,14C225.7,14,225.7,14,225.7,14z"/>
</g>
</svg>
