<?xml version="1.0" encoding="utf-8"?>
<!-- Generator: Adobe Illustrator 22.1.0, SVG Export Plug-In . SVG Version: 6.00 Build 0)  -->
<svg version="1.1" id="Layer_1" xmlns="http://www.w3.org/2000/svg" xmlns:xlink="http://www.w3.org/1999/xlink" x="0px" y="0px"
	 viewBox="0 0 144 9" style="enable-background:new 0 0 144 9;" xml:space="preserve">
<style type="text/css">
	.st0{fill:#4A4A4A;}
</style>
<path class="st0" d="M0,8.8c1.2-4.6,3.5-4.2,5.2-4.2c10.5-1.5,21.2-3.1,31.9-3.8c23.2-1.9,46.2,0,69.4,0.8C117.3,2,128.3,2,139.1,2
	c1.5,0,2.9,0.8,4.9,1.1c-1.7,3.4-3.5,5.7-5.8,4.6c-5.5-3.4-11-2.3-16.5-2.7C99,4.3,76.6,3.1,54,3.1C37.7,3.9,21.5,4.3,5.2,8.8
	C3.8,9.2,2,8.8,0,8.8z"/>
</svg>
