<?xml version="1.0" encoding="utf-8"?>
<!-- Generator: Adobe Illustrator 23.0.1, SVG Export Plug-In . SVG Version: 6.00 Build 0)  -->
<svg version="1.1" id="Layer_1" xmlns="http://www.w3.org/2000/svg" xmlns:xlink="http://www.w3.org/1999/xlink" x="0px" y="0px"
	 viewBox="0 0 205.7 47" style="enable-background:new 0 0 205.7 47;" xml:space="preserve">
<style type="text/css">
	.st0{fill:#D8D8D8;stroke:#D8D8D8;stroke-width:1.2699;}
</style>
<path class="st0" d="M201.2,8.1c-0.1,0.7-0.1,1.5-0.2,2.6c-6.1,0-12-0.2-17.9-0.1c-15.1,0.2-30.2,0.4-45.4,0.7c-7,0.1-14,0.3-21,0.7
	c-11.9,0.7-23.9,1.4-35.8,2.4c-11.2,0.9-22.3,1.7-33.4,3.1c-7.2,0.9-14.4,2.6-21.6,3.9c-1.5,0.3-3.1,0.6-4.6,0.7
	c-2.7,0.1-4.6,1-6,3.5c-1.7,3-7.9,3.4-11.2,1c1.1-2.3,3.4-3.2,5.5-3.9c4.1-1.3,8.3-2.6,12.6-3.4C30,17.8,38,16.2,46,15.3
	c11.9-1.4,23.9-2.5,35.8-3.4c15.1-1.1,30.2-1.8,45.3-2.6c7.8-0.4,15.6-0.6,23.4-0.8c10.8-0.3,21.5-0.7,32.3-0.8
	C188.7,7.5,194.6,7.9,201.2,8.1z"/>
</svg>
