<?xml version="1.0" encoding="utf-8"?>
<!-- Generator: Adobe Illustrator 23.0.1, SVG Export Plug-In . SVG Version: 6.00 Build 0)  -->
<svg version="1.1" id="Layer_1" xmlns="http://www.w3.org/2000/svg" xmlns:xlink="http://www.w3.org/1999/xlink" x="0px" y="0px"
	 viewBox="0 0 205.7 47" style="enable-background:new 0 0 205.7 47;" xml:space="preserve">
<style type="text/css">
	.st0{fill:#3A3A3A;stroke:#3A3A3A;stroke-width:0.6;}
</style>
<path class="st0" d="M168.6,31.2c-0.7,0.2-1.4,0.7-2.1,0.6c-4.9-0.4-9.8-1-14.7-1.3c-8.6-0.6-17.3-1-25.9-1.5
	c-9.5-0.5-18.9-1.1-28.4-1.7c-17.5-1.2-35-2.1-52.6-0.7c-4.5,0.3-9,1-13.5,1.5c-1.1,0.1-2.1,0.3-3.6-0.9c1.5-0.4,2.5-0.8,3.5-0.8
	c6.9-0.5,13.9-1,20.8-1.2c9.1-0.3,18.1-0.3,27.2-0.2c4.8,0,9.6,0.6,14.5,0.9c4,0.3,8,0.5,12.1,0.7c10.6,0.6,21.1,1.2,31.7,1.8
	c9.4,0.5,18.7,0.9,28.1,1.4c0.9,0,1.9,0.3,2.8,0.5C168.5,30.5,168.6,30.9,168.6,31.2z"/>
<path class="st0" d="M173.8,20.9c-0.7,0.2-1.6,0.7-2.1,0.5c-3.7-1.8-7.7-1.3-11.6-1.7c-13.2-1.6-26.5-2.3-39.8-2.4
	c-14.3-0.1-28.7-0.2-43-0.2c-11,0-22,0.3-33,0.4c-3.9,0-7.9,0-11.8,0c-1,0-2.1-0.1-1.7-1.8c1.3,0,2.6,0,3.8,0
	c9.4,0.1,18.7,0.3,28.1,0.4c10.7,0.1,21.4,0.1,32,0.1c5.4,0,10.9,0,16.3,0c6.6,0.1,13.3,0,19.9,0.3c11.4,0.6,22.7,1.3,34.1,2.1
	c2.9,0.2,5.7,0.8,8.6,1.2C173.7,20.2,173.8,20.5,173.8,20.9z"/>
<path class="st0" d="M175.1,24.8c-0.6,1.6-1.3,1.7-2.3,1.5c-6-0.9-11.9-1.8-17.9-2.5c-13.4-1.4-26.8-0.6-40.2-0.6
	c-5.7,0-11.5-0.4-17.2-0.6c-6.4-0.2-12.9-0.3-19.3-0.5c-8.3-0.2-16.5-0.5-24.8-0.5c-4.8,0-9.7,0.3-14.5,0.5c-0.9,0-1.8-0.2-2.8-0.3
	c0.3-1.6,1.2-1.5,1.9-1.5c9.3,0.2,18.5,0.3,27.8,0.6c9.1,0.2,18.1,0.6,27.2,0.8c9.6,0.2,19.1,0.5,28.7,0.5
	c9.8,0.1,19.5-0.2,29.3-0.1c3.8,0,7.6,0.6,11.4,1c3.2,0.3,6.4,0.6,9.6,0.9C173,24.3,174,24.6,175.1,24.8z"/>
</svg>
