<?xml version="1.0" encoding="utf-8"?>
<!-- Generator: Adobe Illustrator 23.0.1, SVG Export Plug-In . SVG Version: 6.00 Build 0)  -->
<svg version="1.1" id="Layer_1" xmlns="http://www.w3.org/2000/svg" xmlns:xlink="http://www.w3.org/1999/xlink" x="0px" y="0px"
	 viewBox="0 0 205.7 47" style="enable-background:new 0 0 205.7 47;" xml:space="preserve">
<style type="text/css">
	.st0{fill:#D8D8D8;stroke:#D8D8D8;stroke-width:1.2699;}
</style>
<path class="st0" d="M82.8,29.3c-1.1,0-2.3,0.2-3.4-0.1c-1.1-0.2-2.4-0.6-3.2-1.4c-3.7-3.6-5.7-8.2-6.8-13.2c-0.1-0.6-0.1-1.3,0-1.9
	c0.3-1.5,1.2-2.1,2.6-1.6c1.1,0.4,2.2,1,3.3,1.5c2.4,1.2,2.6,1.1,3.9-1.1c1-1.7,2.1-3.3,3.2-4.9c0.4-0.5,0.8-1,1.3-1.5
	C85.6,3.3,88,2.8,89.8,4c1.5,1,2.2,3.1,1.4,5.5c-0.9,2.6-2,5.2-3.1,7.8C86.4,21.3,84.6,25.2,82.8,29.3z M81.2,26.6
	c2.4-4.9,4.7-9.8,7-14.8c0.5-1,0.6-2.2,0.7-3.2c0.1-2-1.1-2.8-2.8-1.9C85.5,7,84.9,7.5,84.4,8c-1.6,1.8-2.6,3.8-3,6.2
	c-0.6,3.3-2.9,4.1-5.7,2.1c-0.8-0.6-1.8-1-3.3-1.9c0.2,1.7,0.2,2.8,0.6,3.6c1,2.2,2.2,4.3,3.4,6.3C77.4,26,78.8,26.9,81.2,26.6z"/>
<path class="st0" d="M116.8,25.2c1.5-1.4,2.9-2.8,4.4-4c1.2-0.9,2.5-1.6,3.9-2.1c2.5-0.8,4,0.5,3.9,3.2c0,1-0.2,2.1-0.5,3
	c-1.8,4.6-3.6,9.2-6.4,13.3c-1.9,2.9-4.7,4.1-7.9,4.6c-0.8,0.1-1.9-0.6-2.6-1.3c-1.8-2-3-4.4-3.2-7c-0.2-3,0-6.2,0.4-9.2
	c0.4-2.6,2.7-3.5,5.1-2.2C115,24,115.9,24.6,116.8,25.2z M126.3,22.3c-2.5-0.3-4.1,1-5.2,2.5c-0.9,1.3-1.3,3-2.1,4.5
	c-0.3,0.6-0.8,1.5-1.3,1.5c-0.5,0.1-1.4-0.5-1.8-1c-0.7-0.8-1.1-2-1.8-2.8c-1.2-1.4-2.3-1.1-2.8,0.7c-0.7,2.7-0.8,5.5-0.1,8.3
	c0.3,1.1,0.8,2.1,1.5,3c1.8,2.4,3.8,2.7,5.7,0.4c3.6-4.3,5.9-9.3,7.7-14.4C126.4,24.3,126.2,23.3,126.3,22.3z"/>
</svg>
