<svg width="105" height="47" viewBox="0 0 105 47" fill="none" xmlns="http://www.w3.org/2000/svg">
<path d="M53.4078 14.8034C52.9707 14.7354 52.5734 14.572 52.2422 14.6537C49.5403 15.2935 46.8251 15.8925 44.1496 16.6548C41.2225 17.4988 38.3218 18.4381 35.4344 19.4318C30.4941 21.1199 25.5934 22.9032 20.6531 24.6048C16.9313 25.8844 13.2227 27.2457 9.75251 29.1379C7.50087 30.3631 5.11679 31.3704 3.19627 33.181C1.75258 34.5423 0.494307 36.0397 0.0969594 38.1089C-0.220919 39.756 0.229409 40.954 1.64662 41.7571C3.77905 42.9823 6.11016 43.663 8.52073 44.0033C14.0041 44.7656 19.5008 45.174 25.0504 44.929C28.2159 44.7928 31.3815 44.8881 34.547 44.7112C39.0238 44.4661 43.5138 44.1258 47.9774 43.731C51.6595 43.3907 55.3415 42.9823 58.9971 42.4514C62.4806 41.9341 65.9375 41.2398 69.3944 40.5728C71.5931 40.1372 73.7917 39.6744 75.9639 39.089C79.8447 38.0408 83.6327 36.6795 87.2618 34.8826C90.5598 33.249 93.7916 31.5066 96.5995 29.0562C99.1028 26.8645 101.434 24.5231 102.401 21.1607C103.262 18.1795 103.394 15.2527 101.447 12.5981C100.017 10.6651 98.2551 9.07237 96.2286 7.86081C90.9042 4.67537 85.0632 3.0282 79.0235 1.98C73.752 1.06793 68.454 0.56425 63.1296 0.278377C57.6859 -0.0211088 52.2157 -0.184465 46.7721 0.346442C43.9377 0.618702 41.0768 1.02709 38.3086 1.70774C35.4079 2.42923 32.7325 3.7633 30.9709 6.45867C30.1497 7.71107 29.5537 9.01791 30.0835 10.5834C30.4808 6.73093 32.9179 4.55285 36.1099 3.19156C37.8053 2.47007 39.6198 1.93916 41.4344 1.65329C44.4277 1.20406 47.4608 0.9318 50.4939 0.768444C53.1694 0.632315 55.8449 0.741218 58.5203 0.79567C60.666 0.836509 62.8117 0.890961 64.9441 1.05432C67.262 1.23129 69.5798 1.46271 71.8845 1.77581C75.2884 2.23865 78.7056 2.61981 82.0566 3.36852C84.7453 3.9675 87.4737 4.55285 90.0035 5.76441C91.9505 6.70371 93.9505 7.56132 95.8048 8.66398C98.0697 10.0117 99.9902 11.8086 101.381 14.1228C102.003 15.1574 102.083 16.3417 102.083 17.526C102.056 21.8141 100.017 24.9996 96.9704 27.6813C91.5797 32.4186 85.2751 35.3182 78.5996 37.5371C74.4407 38.912 70.1626 39.7833 65.8713 40.5864C60.6395 41.5529 55.368 42.3017 50.0701 42.8326C47.09 43.1321 44.1099 43.4588 41.1297 43.6766C38.2291 43.8944 35.3285 44.0169 32.4278 44.1122C28.4676 44.2483 24.5206 44.4117 20.5604 44.3708C17.5273 44.33 14.4942 44.0441 11.4744 43.7583C9.63331 43.5813 7.80551 43.2682 6.0042 42.8598C4.77242 42.5739 3.54064 42.1519 2.42807 41.5393C0.626756 40.5592 0.176429 38.667 1.1698 36.7884C1.84529 35.5088 2.71946 34.3925 3.83203 33.4532C5.89824 31.7108 8.26908 30.4584 10.6797 29.3829C14.9578 27.4771 19.3286 25.7347 23.7127 24.1011C28.3087 22.3995 32.9576 20.8476 37.6198 19.3229C42.441 17.7438 47.2489 16.1375 52.2555 15.2254C52.5866 15.1574 52.931 15.0893 53.2621 15.0212C53.2753 15.0349 53.3018 14.9804 53.4078 14.8034Z" transform="translate(1 1)" fill="#D8D8D8" stroke="#D8D8D8" stroke-width="2"/>
</svg>
