<svg width="113" height="14" viewBox="0 0 113 14" fill="none" xmlns="http://www.w3.org/2000/svg">
<path d="M0 5.6661C1.58835 3.17302 3.85743 3.6263 5.67269 4.07959C9.98394 5.43946 14.2952 7.25261 18.6064 9.06576C22.01 10.4256 23.3715 10.199 25.4137 7.25261C26.0944 6.11939 26.7751 4.98617 27.4558 3.85295C29.2711 0.453288 30.8594 -0.226644 34.2631 1.58651C37.4398 3.17302 40.6165 5.21281 43.7932 7.25261C44.7008 7.7059 45.3815 8.15918 46.2892 8.61247C49.9197 9.97234 53.3233 9.97234 56.5 7.02596C56.9538 6.57268 57.6345 5.89274 58.3153 5.6661C60.5843 4.53288 62.8534 4.07959 65.1225 5.6661C67.1647 7.02596 69.2068 8.38583 71.249 9.74569C73.745 11.5588 74.6526 11.3322 76.4679 8.61247C77.3755 7.25261 78.2831 6.11939 79.1908 4.75952C80.7791 2.49308 83.0482 1.81315 85.5442 2.49308C87.1325 2.94637 88.7209 3.39966 90.0823 4.07959C92.8052 5.6661 95.0743 5.43946 97.3434 3.39966C98.4779 2.49308 100.066 1.81315 101.428 0.679932C102.789 -0.226644 104.151 -0.226644 105.058 0.679932C107.554 3.17302 110.05 5.6661 112.546 8.15918C112.773 8.38583 112.773 9.06576 113 9.51905C111.639 10.8789 110.958 9.51905 110.277 8.83912C108.689 7.25261 107.1 5.89274 105.512 4.30624C104.378 2.94637 103.016 2.94637 101.655 4.07959C100.747 4.75952 99.8394 5.21281 98.9317 5.89274C96.2088 8.15918 93.259 8.61247 90.0823 7.02596C88.9478 6.57268 87.5863 6.11939 86.2249 5.6661C83.502 4.75952 82.8213 4.98617 81.2329 7.02596C79.6446 8.83912 78.2831 10.6523 76.6948 12.2388C74.6526 14.5052 73.0643 14.5052 70.5683 12.6921C68.0723 11.3322 65.8032 9.51905 63.3072 7.93254C61.7189 7.02596 59.9036 7.02596 58.5422 8.61247C56.5 10.8789 54.004 12.4654 50.8273 12.2388C47.1968 12.0121 44.0201 10.6523 41.0703 8.38583C38.5743 6.57268 35.8514 4.98617 33.1285 3.39966C31.3133 2.26644 30.4056 3.17302 29.498 4.75952C28.3635 6.57268 27.4558 8.38583 26.3213 9.97234C24.7329 12.2388 21.3293 13.1454 18.8333 12.0121C18.1526 11.7855 17.4719 11.3322 16.7912 10.8789C12.4799 8.15918 7.71486 7.02596 2.72289 6.34603C1.81526 6.11939 1.13454 5.89274 0 5.6661Z" fill="#4A4A4A"/>
</svg>
