<svg width="106" height="48" viewBox="0 0 106 48" fill="none" xmlns="http://www.w3.org/2000/svg">
<path d="M43.7371 39.6227C43.4424 44.1204 43.2656 48.6629 42.8382 53.1382C42.4403 57.2555 41.9246 61.3505 41.232 65.3783C40.2742 70.9948 38.9479 76.4324 37.0617 81.5119C35.7355 85.0698 34.3208 88.5382 32.8915 92.0066C32.3462 93.3044 31.6684 94.5352 30.9316 95.6316C29.9737 97.0637 28.8391 97.6008 27.616 96.2805C26.9529 95.5645 26.5108 95.9225 25.9214 96.5491C23.8289 98.8539 21.6479 100.98 19.1576 102.233C14.9578 104.336 11.1707 103.598 7.58984 99.3014C3.25748 94.0429 1.03235 87.2851 0.251345 79.14C-0.175997 74.6646 0.0155698 70.2116 0.280817 65.7811C0.634479 60.0079 1.10603 54.2347 1.666 48.5062C2.52068 39.8464 4.30373 31.6118 6.9562 23.8023C8.54768 19.1032 10.1392 14.4265 12.2759 10.1973C14.9578 4.84921 18.3766 1.51508 22.7679 0.463374C25.0225 -0.0736674 27.2329 -0.230304 29.4875 0.463374C30.9758 0.933285 32.2283 2.02975 33.4662 3.14858C37.2828 6.63935 39.611 11.965 41.1731 18.141C42.9119 25.033 43.4719 32.2607 43.7371 39.6227ZM27.4981 95.0051C27.8812 95.3183 28.0728 95.5645 28.2938 95.6316C29.6201 96.1015 30.46 94.9156 31.1526 93.5282C33.4219 89.0305 35.4408 84.2642 37.0028 79.14C39.0806 72.3151 40.6868 65.2664 41.4383 57.7702C42.1162 50.99 42.6909 44.277 42.4698 37.385C42.293 31.8579 41.8362 26.4428 40.7899 21.1619C39.6258 15.2991 37.6806 10.1301 34.5419 6.16944C32.5231 3.57374 30.2685 1.69409 27.5865 1.38082C26.334 1.24656 25.0372 1.20181 23.7846 1.44795C19.3786 2.29827 15.7241 5.25199 12.9685 10.6895C11.0823 14.4265 9.50552 18.4319 8.1056 22.6163C5.98363 29.0161 4.11216 35.5725 3.15433 42.5988C2.41753 47.9692 1.93124 53.4291 1.40075 58.8666C0.826047 64.707 0.649215 70.592 0.855518 76.4771C1.17971 85.2041 3.36063 92.6108 7.91403 98.2273C10.537 101.472 13.3958 102.792 16.7998 102.009C20.2333 101.203 22.9152 98.2721 25.7003 95.5645C25.9361 95.3407 26.0245 94.4456 26.1719 94.4233C27.4392 94.4009 28.176 92.9688 29.0896 92.029C29.9885 91.1115 30.8137 90.0151 31.6684 89.0081C31.7273 89.12 31.7863 89.2319 31.8452 89.3437C30.4453 91.201 29.0306 93.0359 27.4981 95.0051Z" transform="translate(97.5243 -11) rotate(75)" fill="#D8D8D8" stroke="#D8D8D8" stroke-width="2"/>
</svg>
